<svg version="1.1" xmlns="http://www.w3.org/2000/svg" viewBox="0 0 195 169" width="195" height="169">
  <!-- svg-source:excalidraw -->
  
  <defs>
    <style>
      @font-face {
        font-family: "Virgil";
        src: url("https://unpkg.com/@zsviczian/excalidraw@0.11.0-obsidian-25/dist/excalidraw-assets/Virgil.woff2");
      }
      @font-face {
        font-family: "Cascadia";
        src: url("https://unpkg.com/@zsviczian/excalidraw@0.11.0-obsidian-25/dist/excalidraw-assets/Cascadia.woff2");
      }
    </style>
  </defs>
  <rect x="0" y="0" width="195" height="169" fill="#ffffff"/><g stroke-linecap="round" transform="translate(10 10) rotate(0 87.5 74.5)"><path d="M74 0.03 C84.91 -2.71, 98.05 -0.48, 109.29 2.11 C120.52 4.7, 132.03 9.13, 141.41 15.6 C150.78 22.07, 159.83 31.76, 165.54 40.92 C171.25 50.09, 175 60.55, 175.66 70.61 C176.32 80.67, 173.77 91.9, 169.49 101.26 C165.21 110.62, 158.33 119.57, 149.96 126.76 C141.59 133.96, 130.35 140.88, 119.29 144.45 C108.24 148.02, 95.46 148.56, 83.63 148.17 C71.81 147.78, 58.92 146.61, 48.35 142.11 C37.77 137.62, 27.84 129.19, 20.19 121.19 C12.54 113.2, 5.59 103.81, 2.45 94.13 C-0.7 84.45, -0.54 73.1, 1.32 63.14 C3.19 53.19, 7.19 43.02, 13.64 34.4 C20.09 25.78, 29.62 16.97, 40.01 11.41 C50.41 5.85, 69.63 2.55, 76.01 1.04 C82.38 -0.46, 78.03 1.11, 78.24 2.37 M114.22 4.32 C125.17 6.12, 136.61 12.91, 145.24 19.36 C153.87 25.81, 160.98 33.94, 166.03 43.05 C171.08 52.16, 175.23 63.98, 175.54 74.03 C175.85 84.09, 172.97 93.92, 167.88 103.38 C162.78 112.84, 153.74 123.62, 144.97 130.79 C136.19 137.96, 126.33 143.23, 115.22 146.39 C104.12 149.55, 90.17 150.77, 78.36 149.74 C66.55 148.7, 54.45 145.59, 44.36 140.17 C34.27 134.75, 24.91 125.38, 17.82 117.21 C10.74 109.03, 4.71 100.88, 1.85 91.11 C-1.01 81.35, -1.54 68.65, 0.65 58.59 C2.85 48.54, 8.01 39.11, 15.02 30.78 C22.04 22.46, 32.26 13.95, 42.77 8.65 C53.27 3.35, 65.91 -0.43, 78.05 -1.03 C90.19 -1.63, 109.85 3.99, 115.62 5.04 C121.39 6.09, 113.59 4.26, 112.68 5.26" stroke="#000000" stroke-width="1" fill="none"/></g></svg>