<svg version="1.1" xmlns="http://www.w3.org/2000/svg" viewBox="0 0 339 358" width="678" height="716">
  <!-- svg-source:excalidraw -->
  
  <defs>
    <style>
      @font-face {
        font-family: "Virgil";
        src: url("https://unpkg.com/@zsviczian/excalidraw@0.11.0-obsidian-18/dist/excalidraw-assets/Virgil.woff2");
      }
      @font-face {
        font-family: "Cascadia";
        src: url("https://unpkg.com/@zsviczian/excalidraw@0.11.0-obsidian-18/dist/excalidraw-assets/Cascadia.woff2");
      }
    </style>
  </defs>
  <rect x="0" y="0" width="339" height="358" fill="#ffffff"/><g transform="translate(158 221) rotate(0 -27 63.5)" stroke="none"><path fill="#000000" d="M 0,1.61 Q 0,1.61 -2.87,1.55 -5.75,1.50 -7.83,1.50 -9.91,1.50 -12.24,1.49 -14.56,1.49 -17.19,1.78 -19.83,2.07 -22.75,2.19 -25.68,2.32 -27.67,2.65 -29.67,2.98 -32.65,3.14 -35.63,3.29 -38.54,3.66 -41.44,4.03 -45.06,4.19 -48.67,4.35 -52.74,4.69 -56.80,5.04 -61.12,5.46 -65.44,5.88 -71.51,7.21 -77.57,8.53 -81.62,9.42 -85.67,10.30 -90.18,11.81 -94.69,13.31 -99.14,15.36 -103.59,17.41 -108.30,20.52 -113.01,23.62 -117.59,27.22 -122.18,30.83 -126.06,34.91 -129.94,39.00 -133.50,44.68 -137.07,50.37 -138.89,54.17 -140.71,57.97 -142.04,62.10 -143.38,66.24 -144.23,70.25 -145.08,74.27 -145.15,77.87 -145.22,81.47 -144.70,84.64 -144.18,87.80 -142.58,91.01 -140.98,94.21 -138.87,97.27 -136.76,100.34 -134.20,103.01 -131.65,105.69 -128.08,108.21 -124.51,110.74 -120.19,112.62 -115.88,114.50 -108.93,116.44 -101.97,118.38 -96.95,119.79 -91.93,121.20 -85.85,122.35 -79.76,123.50 -72.94,123.97 -66.11,124.44 -55.78,124.09 -45.46,123.75 -35.60,123.01 -25.75,122.28 -19.30,121.40 -12.85,120.52 -4.96,119.02 2.92,117.51 13.10,114.31 23.28,111.11 31.34,108.04 39.40,104.97 45.91,101.42 52.42,97.86 58.30,93.77 64.19,89.67 67.82,86.79 71.46,83.91 76.08,79.02 80.71,74.12 83.79,69.29 86.86,64.45 88.44,61.00 90.03,57.56 90.71,53.12 91.40,48.69 90.85,43.73 90.31,38.78 89.23,34.39 88.15,30.00 86.87,27.07 85.59,24.14 83.94,22.55 82.30,20.95 79.19,19.51 76.09,18.06 73.11,17.08 70.12,16.09 67.48,15.69 64.84,15.28 62.29,15.11 59.74,14.94 56.42,14.92 53.10,14.90 52.89,14.91 52.68,14.92 52.48,14.86 52.27,14.80 52.10,14.68 51.92,14.56 51.80,14.39 51.67,14.22 51.61,14.01 51.54,13.81 51.54,13.60 51.55,13.39 51.62,13.19 51.69,12.99 51.82,12.82 51.95,12.65 52.13,12.53 52.31,12.42 52.51,12.36 52.72,12.31 52.93,12.32 53.14,12.34 53.34,12.42 53.53,12.50 53.69,12.64 53.85,12.78 53.96,12.97 54.07,13.15 54.11,13.36 54.15,13.57 54.13,13.78 54.10,13.99 54.01,14.18 53.92,14.37 53.77,14.52 53.62,14.68 53.43,14.77 53.24,14.87 53.03,14.90 52.82,14.93 52.61,14.89 52.40,14.86 52.22,14.75 52.03,14.65 51.89,14.49 51.74,14.34 51.66,14.14 51.57,13.95 51.55,13.74 51.53,13.53 51.58,13.32 51.63,13.11 51.74,12.93 51.85,12.75 52.02,12.62 52.18,12.48 52.38,12.41 52.58,12.33 52.58,12.33 52.58,12.33 56.28,11.95 59.98,11.58 62.66,11.76 65.34,11.95 68.24,12.39 71.14,12.83 74.42,13.83 77.70,14.83 81.24,16.71 84.77,18.58 86.55,20.73 88.34,22.89 89.72,26.08 91.10,29.26 92.23,33.85 93.36,38.44 93.95,43.78 94.54,49.12 93.84,54.04 93.14,58.95 91.46,62.62 89.78,66.29 86.54,71.43 83.29,76.56 78.46,81.61 73.63,86.66 69.89,89.59 66.15,92.51 60.09,96.67 54.04,100.82 47.34,104.50 40.63,108.18 32.48,111.31 24.33,114.44 13.96,117.72 3.59,120.99 -4.38,122.54 -12.37,124.09 -18.93,124.98 -25.48,125.87 -35.41,126.59 -45.34,127.31 -55.85,127.69 -66.37,128.07 -73.40,127.53 -80.43,127.00 -86.66,125.80 -92.89,124.59 -97.90,123.16 -102.91,121.72 -110.09,119.68 -117.27,117.64 -121.86,115.57 -126.45,113.50 -130.29,110.78 -134.14,108.06 -136.86,105.15 -139.58,102.25 -141.76,98.95 -143.94,95.66 -145.67,92.01 -147.40,88.37 -147.96,84.89 -148.52,81.41 -148.43,77.50 -148.34,73.59 -147.46,69.40 -146.57,65.21 -145.18,60.86 -143.78,56.50 -141.87,52.51 -139.97,48.52 -136.13,42.64 -132.29,36.75 -128.21,32.56 -124.12,28.36 -119.45,24.66 -114.77,20.96 -109.87,17.69 -104.97,14.43 -100.34,12.32 -95.71,10.21 -91.02,8.68 -86.34,7.16 -82.28,6.33 -78.23,5.51 -71.99,4.17 -65.75,2.82 -61.41,2.37 -57.07,1.92 -52.94,1.56 -48.80,1.20 -45.30,1.06 -41.81,0.93 -38.80,0.60 -35.79,0.27 -32.97,0.14 -30.15,0.01 -27.98,-0.33 -25.81,-0.68 -22.97,-0.80 -20.14,-0.92 -17.35,-1.20 -14.56,-1.49 -12.24,-1.49 -9.91,-1.50 -7.83,-1.50 -5.75,-1.50 -2.87,-1.55 0,-1.61 0.19,-1.59 0.38,-1.56 0.56,-1.49 0.75,-1.42 0.91,-1.31 1.07,-1.20 1.19,-1.06 1.32,-0.91 1.41,-0.74 1.50,-0.57 1.55,-0.38 1.60,-0.19 1.60,0.00 1.60,0.19 1.55,0.38 1.50,0.57 1.41,0.74 1.32,0.91 1.19,1.06 1.07,1.20 0.91,1.31 0.74,1.42 0.56,1.49 0.38,1.56 0.19,1.59 -0.00,1.61 -0.00,1.61 L 0,1.61 Z"/></g><g transform="translate(204 219) rotate(0 -15 6)" stroke="none"><path fill="#000000" d="M -0.26,1.59 Q -0.26,1.59 -3.71,1.00 -7.16,0.42 -10.00,0.19 -12.84,-0.03 -15.68,0.16 -18.52,0.35 -20.36,0.43 -22.19,0.52 -23.58,1.10 -24.97,1.69 -26.06,2.45 -27.14,3.21 -26.13,3.90 -25.11,4.59 -22.93,5.67 -20.76,6.75 -18.02,8.11 -15.28,9.47 -12.81,10.30 -10.33,11.13 -6.66,11.38 -2.98,11.63 -2.77,11.67 -2.57,11.71 -2.38,11.81 -2.20,11.92 -2.05,12.08 -1.91,12.23 -1.83,12.43 -1.74,12.62 -1.73,12.84 -1.71,13.05 -1.76,13.25 -1.81,13.46 -1.92,13.64 -2.04,13.82 -2.20,13.95 -2.37,14.09 -2.57,14.16 -2.77,14.23 -2.98,14.24 -3.19,14.24 -3.40,14.18 -3.60,14.12 -3.77,14.00 -3.94,13.87 -4.07,13.70 -4.19,13.53 -4.26,13.32 -4.32,13.12 -4.31,12.91 -4.31,12.70 -4.23,12.50 -4.16,12.30 -4.03,12.13 -3.90,11.97 -3.72,11.85 -3.54,11.74 -3.33,11.69 -3.13,11.63 -2.91,11.65 -2.70,11.67 -2.51,11.75 -2.31,11.84 -2.15,11.98 -1.99,12.12 -1.89,12.30 -1.78,12.49 -1.74,12.70 -1.70,12.91 -1.73,13.12 -1.76,13.33 -1.86,13.52 -1.95,13.71 -2.10,13.86 -2.25,14.01 -2.44,14.10 -2.63,14.20 -2.84,14.23 -3.05,14.26 -3.05,14.26 -3.05,14.26 -7.20,14.27 -11.35,14.28 -14.07,13.37 -16.78,12.46 -19.51,11.06 -22.24,9.67 -24.81,8.33 -27.37,7.00 -28.86,5.64 -30.36,4.29 -29.72,2.30 -29.09,0.32 -27.63,-0.58 -26.17,-1.49 -24.27,-2.12 -22.38,-2.75 -20.55,-2.82 -18.72,-2.89 -15.65,-3.07 -12.57,-3.24 -9.60,-2.98 -6.63,-2.72 -3.18,-2.15 0.26,-1.59 0.45,-1.53 0.63,-1.48 0.80,-1.38 0.97,-1.28 1.11,-1.15 1.25,-1.01 1.35,-0.85 1.46,-0.68 1.52,-0.50 1.58,-0.31 1.59,-0.12 1.61,0.07 1.58,0.26 1.54,0.45 1.47,0.63 1.39,0.81 1.27,0.96 1.15,1.12 1.00,1.24 0.85,1.36 0.68,1.45 0.50,1.53 0.31,1.57 0.12,1.60 -0.07,1.60 -0.26,1.59 -0.26,1.59 L -0.26,1.59 Z"/></g><g transform="translate(129 290) rotate(0 -4.5 -89)" stroke="none"><path fill="#000000" d="M -1.53,-0.51 Q -1.53,-0.51 -0.94,-2.22 -0.35,-3.94 -0.14,-5.41 0.06,-6.88 0.43,-10.12 0.80,-13.36 0.95,-17.56 1.09,-21.75 0.00,-28.87 -1.08,-35.99 -2.45,-43.95 -3.81,-51.91 -5.35,-61.04 -6.89,-70.17 -7.56,-77.28 -8.22,-84.39 -9.10,-96.61 -9.98,-108.82 -10.29,-119.50 -10.59,-130.19 -10.73,-136.74 -10.87,-143.28 -11.19,-149.48 -11.50,-155.67 -11.65,-160.65 -11.80,-165.62 -12.17,-168.79 -12.54,-171.96 -12.73,-173.62 -12.92,-175.28 -11.76,-174.95 -10.60,-174.62 -10.66,-174.41 -10.72,-174.21 -10.84,-174.03 -10.96,-173.86 -11.13,-173.73 -11.30,-173.60 -11.50,-173.54 -11.70,-173.47 -11.92,-173.48 -12.13,-173.48 -12.33,-173.55 -12.53,-173.62 -12.70,-173.75 -12.87,-173.88 -12.98,-174.06 -13.10,-174.23 -13.15,-174.44 -13.21,-174.65 -13.19,-174.86 -13.18,-175.07 -13.10,-175.27 -13.02,-175.46 -12.88,-175.62 -12.74,-175.78 -12.56,-175.89 -12.37,-176.00 -12.17,-176.04 -11.96,-176.08 -11.75,-176.06 -11.54,-176.03 -11.34,-175.94 -11.15,-175.85 -11.00,-175.70 -10.85,-175.55 -10.75,-175.37 -10.65,-175.18 -10.62,-174.97 -10.59,-174.76 -10.62,-174.55 -10.66,-174.34 -10.76,-174.15 -10.87,-173.97 -11.02,-173.82 -11.18,-173.68 -11.37,-173.59 -11.56,-173.50 -11.78,-173.48 -11.99,-173.46 -12.19,-173.51 -12.40,-173.56 -12.58,-173.67 -12.76,-173.78 -12.90,-173.95 -13.03,-174.11 -13.11,-174.31 -13.19,-174.51 -13.20,-174.72 -13.21,-174.93 -13.21,-174.93 -13.21,-174.93 -10.92,-175.35 -8.63,-175.77 -8.52,-174.09 -8.41,-172.41 -8.08,-169.08 -7.75,-165.74 -7.60,-160.82 -7.45,-155.90 -7.06,-149.64 -6.67,-143.38 -6.51,-136.85 -6.35,-130.33 -5.95,-119.72 -5.55,-109.12 -4.77,-96.94 -3.98,-84.76 -3.43,-77.78 -2.89,-70.79 -1.58,-61.64 -0.28,-52.49 0.99,-44.49 2.27,-36.49 3.34,-29.06 4.40,-21.63 4.22,-17.30 4.03,-12.97 3.62,-9.68 3.21,-6.40 2.93,-4.67 2.65,-2.95 2.09,-1.22 1.53,0.51 1.44,0.68 1.36,0.86 1.24,1.01 1.11,1.16 0.96,1.28 0.80,1.39 0.62,1.47 0.44,1.55 0.25,1.58 0.06,1.61 -0.12,1.59 -0.32,1.58 -0.50,1.52 -0.69,1.45 -0.85,1.35 -1.02,1.25 -1.15,1.11 -1.28,0.97 -1.38,0.80 -1.48,0.63 -1.53,0.44 -1.59,0.25 -1.60,0.06 -1.60,-0.12 -1.57,-0.31 -1.53,-0.51 -1.53,-0.51 L -1.53,-0.51 Z"/></g><g transform="translate(114 116) rotate(0 5 -13.5)" stroke="none"><path fill="#000000" d="M -1.58,-0.28 Q -1.58,-0.28 -0.40,-6.60 0.78,-12.92 1.88,-16.82 2.99,-20.72 3.47,-22.65 3.95,-24.58 4.40,-25.06 4.86,-25.55 4.92,-25.72 4.98,-25.88 5.08,-26.03 5.18,-26.17 5.31,-26.29 5.44,-26.41 5.60,-26.49 5.75,-26.58 5.92,-26.62 6.09,-26.66 6.27,-26.67 6.45,-26.67 6.62,-26.63 6.79,-26.59 6.95,-26.51 7.10,-26.43 7.24,-26.31 7.37,-26.20 7.47,-26.05 7.57,-25.91 7.64,-25.74 7.70,-25.58 7.73,-25.40 7.75,-25.23 7.73,-25.05 7.71,-24.88 8.25,-23.15 8.80,-21.42 9.07,-18.70 9.35,-15.98 9.96,-12.63 10.57,-9.28 10.61,-9.07 10.65,-8.86 10.62,-8.65 10.59,-8.44 10.49,-8.25 10.39,-8.06 10.24,-7.92 10.09,-7.77 9.90,-7.67 9.71,-7.58 9.50,-7.55 9.29,-7.53 9.08,-7.57 8.87,-7.61 8.69,-7.72 8.50,-7.82 8.36,-7.98 8.22,-8.14 8.14,-8.34 8.06,-8.53 8.04,-8.74 8.03,-8.96 8.08,-9.16 8.13,-9.37 8.25,-9.55 8.36,-9.72 8.53,-9.86 8.70,-9.99 8.90,-10.06 9.10,-10.13 9.31,-10.13 9.52,-10.14 9.72,-10.07 9.93,-10.01 10.10,-9.89 10.27,-9.76 10.39,-9.59 10.51,-9.41 10.58,-9.21 10.64,-9.01 10.63,-8.79 10.62,-8.58 10.55,-8.38 10.47,-8.18 10.34,-8.02 10.20,-7.85 10.02,-7.74 9.84,-7.63 9.64,-7.58 9.43,-7.53 9.22,-7.55 9.01,-7.57 8.81,-7.65 8.62,-7.74 8.46,-7.88 8.30,-8.02 8.20,-8.21 8.10,-8.40 8.10,-8.40 8.10,-8.40 7.06,-12.06 6.02,-15.72 5.88,-18.21 5.74,-20.70 5.30,-23.13 4.86,-25.55 4.92,-25.72 4.98,-25.88 5.08,-26.03 5.18,-26.17 5.31,-26.29 5.44,-26.41 5.60,-26.49 5.75,-26.58 5.92,-26.62 6.09,-26.66 6.27,-26.67 6.45,-26.67 6.62,-26.63 6.79,-26.59 6.95,-26.51 7.10,-26.43 7.24,-26.31 7.37,-26.20 7.47,-26.05 7.57,-25.91 7.64,-25.74 7.70,-25.58 7.73,-25.40 7.75,-25.23 7.73,-25.05 7.71,-24.88 7.21,-24.31 6.71,-23.74 6.28,-21.83 5.86,-19.92 4.83,-16.15 3.81,-12.37 2.70,-6.04 1.58,0.28 1.53,0.47 1.47,0.66 1.37,0.82 1.27,0.99 1.13,1.13 0.99,1.26 0.83,1.37 0.66,1.47 0.47,1.52 0.29,1.58 0.09,1.59 -0.09,1.61 -0.28,1.57 -0.47,1.54 -0.65,1.46 -0.83,1.38 -0.98,1.26 -1.13,1.14 -1.25,0.98 -1.38,0.83 -1.46,0.65 -1.54,0.48 -1.57,0.29 -1.61,0.09 -1.59,-0.09 -1.58,-0.28 -1.58,-0.28 L -1.58,-0.28 Z"/></g><g transform="translate(141 158.5) rotate(0 18 -29.5)" stroke="none"><path fill="#000000" d="M 3.79,-0.59 Q 3.79,-0.59 4.20,-1.75 4.62,-2.91 4.76,-4.61 4.90,-6.32 4.97,-8.52 5.04,-10.72 4.62,-13.23 4.19,-15.75 3.12,-18.75 2.06,-21.75 0.23,-25.59 -1.58,-29.42 -3.29,-34.03 -5.01,-38.65 -6.18,-42.96 -7.35,-47.27 -8.28,-50.19 -9.22,-53.11 -9.68,-54.81 -10.15,-56.51 -9.62,-57.88 -9.08,-59.26 -6.25,-60.16 -3.41,-61.06 0.70,-60.41 4.82,-59.75 9.82,-57.34 14.83,-54.93 19.65,-52.19 24.47,-49.44 28.34,-47.13 32.21,-44.82 34.77,-43.25 37.33,-41.68 38.65,-39.33 39.97,-36.98 37.06,-35.43 34.15,-33.89 29.45,-33.57 24.76,-33.25 21.81,-33.43 18.86,-33.61 16.58,-34.05 14.30,-34.49 13.47,-35.25 12.64,-36.00 12.41,-36.07 12.19,-36.14 11.99,-36.25 11.79,-36.37 11.62,-36.54 11.45,-36.70 11.33,-36.90 11.21,-37.10 11.14,-37.32 11.06,-37.55 11.05,-37.78 11.03,-38.01 11.07,-38.24 11.11,-38.48 11.21,-38.69 11.30,-38.90 11.44,-39.09 11.59,-39.27 11.77,-39.42 11.95,-39.57 12.17,-39.66 12.38,-39.76 12.61,-39.81 12.84,-39.85 13.07,-39.84 13.31,-39.82 16.68,-39.91 20.06,-39.99 24.20,-38.98 28.34,-37.97 32.02,-36.39 35.70,-34.82 38.80,-32.55 41.89,-30.28 43.02,-27.20 44.15,-24.12 43.50,-22.13 42.85,-20.14 40.04,-17.99 37.22,-15.83 31.83,-13.59 26.45,-11.35 23.81,-10.14 21.16,-8.94 17.88,-8.56 14.60,-8.17 11.67,-9.28 8.73,-10.38 8.55,-10.48 8.36,-10.59 8.22,-10.74 8.07,-10.90 7.99,-11.09 7.90,-11.29 7.88,-11.50 7.86,-11.71 7.91,-11.92 7.96,-12.12 8.07,-12.30 8.18,-12.48 8.35,-12.62 8.51,-12.75 8.71,-12.83 8.91,-12.91 9.12,-12.91 9.33,-12.92 9.54,-12.86 9.74,-12.80 9.92,-12.68 10.09,-12.56 10.22,-12.39 10.34,-12.22 10.41,-12.01 10.47,-11.81 10.47,-11.60 10.46,-11.39 10.39,-11.19 10.32,-10.99 10.19,-10.82 10.06,-10.65 9.88,-10.54 9.70,-10.42 9.50,-10.36 9.29,-10.31 9.08,-10.33 8.87,-10.34 8.67,-10.42 8.48,-10.50 8.32,-10.64 8.16,-10.78 8.05,-10.97 7.94,-11.15 7.90,-11.36 7.86,-11.57 7.89,-11.78 7.91,-11.99 8.00,-12.18 8.10,-12.37 8.25,-12.53 8.39,-12.68 8.58,-12.77 8.77,-12.87 8.98,-12.90 9.19,-12.93 9.40,-12.89 9.61,-12.86 9.61,-12.86 9.61,-12.86 11.93,-12.10 14.25,-11.34 16.88,-11.99 19.52,-12.63 22.20,-13.86 24.88,-15.09 29.86,-17.20 34.85,-19.31 37.63,-21.46 40.41,-23.60 40.01,-25.75 39.62,-27.90 36.97,-29.82 34.33,-31.74 30.96,-33.25 27.59,-34.76 23.73,-35.61 19.87,-36.46 17.35,-36.65 14.82,-36.84 13.73,-36.42 12.64,-36.00 12.41,-36.07 12.19,-36.14 11.99,-36.25 11.79,-36.37 11.62,-36.54 11.45,-36.70 11.33,-36.90 11.21,-37.10 11.14,-37.32 11.06,-37.55 11.05,-37.78 11.03,-38.01 11.07,-38.24 11.11,-38.48 11.21,-38.69 11.30,-38.90 11.44,-39.09 11.59,-39.27 11.77,-39.42 11.95,-39.57 12.17,-39.66 12.38,-39.76 12.61,-39.81 12.84,-39.85 13.07,-39.84 13.31,-39.82 14.27,-39.11 15.24,-38.40 17.20,-38.10 19.15,-37.80 21.86,-37.59 24.57,-37.38 28.89,-37.49 33.22,-37.61 34.40,-38.25 35.58,-38.89 33.04,-40.42 30.50,-41.95 26.65,-44.23 22.81,-46.51 18.07,-49.15 13.34,-51.79 8.75,-53.94 4.17,-56.08 0.76,-56.67 -2.63,-57.25 -4.63,-57.09 -6.64,-56.93 -6.29,-55.55 -5.94,-54.17 -4.97,-51.19 -3.99,-48.21 -2.80,-44.06 -1.62,-39.91 0.04,-35.43 1.71,-30.96 3.55,-26.94 5.40,-22.91 6.52,-19.61 7.64,-16.30 8.05,-13.45 8.47,-10.60 8.37,-8.29 8.28,-5.98 8.03,-3.83 7.79,-1.68 7.29,-0.54 6.79,0.59 6.70,0.76 6.60,0.93 6.47,1.08 6.34,1.22 6.18,1.33 6.02,1.44 5.83,1.50 5.65,1.57 5.46,1.59 5.26,1.61 5.07,1.58 4.88,1.56 4.70,1.48 4.52,1.41 4.36,1.30 4.20,1.19 4.07,1.04 3.95,0.89 3.86,0.72 3.77,0.54 3.73,0.35 3.68,0.16 3.69,-0.02 3.69,-0.21 3.74,-0.40 3.79,-0.59 3.79,-0.59 L 3.79,-0.59 Z"/></g><g transform="translate(166 75) rotate(0 9 0)" stroke="none"><path fill="#000000" d="M 0.26,-1.59 Q 0.26,-1.59 2.03,-1.59 3.79,-1.60 5.40,-1.80 7.01,-2.00 9.61,-1.96 12.20,-1.93 14.78,-2.01 17.36,-2.10 17.57,-2.09 17.78,-2.09 17.98,-2.01 18.18,-1.94 18.35,-1.81 18.51,-1.67 18.63,-1.49 18.74,-1.31 18.79,-1.11 18.84,-0.90 18.83,-0.69 18.81,-0.48 18.73,-0.28 18.64,-0.09 18.50,0.06 18.36,0.22 18.17,0.32 17.99,0.43 17.78,0.47 17.57,0.51 17.36,0.48 17.15,0.45 16.96,0.36 16.77,0.26 16.62,0.11 16.47,-0.03 16.37,-0.22 16.28,-0.41 16.25,-0.62 16.22,-0.83 16.26,-1.04 16.30,-1.25 16.41,-1.43 16.51,-1.62 16.67,-1.76 16.83,-1.90 17.02,-1.99 17.22,-2.07 17.43,-2.09 17.64,-2.10 17.85,-2.05 18.05,-2.00 18.23,-1.89 18.41,-1.77 18.54,-1.61 18.68,-1.44 18.75,-1.24 18.82,-1.04 18.83,-0.83 18.84,-0.62 18.77,-0.42 18.71,-0.21 18.59,-0.04 18.46,0.12 18.29,0.25 18.12,0.37 17.91,0.43 17.71,0.50 17.71,0.50 17.71,0.50 15.02,1.32 12.32,2.14 9.87,2.31 7.41,2.49 5.25,2.62 3.10,2.75 1.41,2.17 -0.26,1.59 -0.45,1.53 -0.63,1.48 -0.80,1.38 -0.97,1.28 -1.11,1.15 -1.25,1.01 -1.35,0.85 -1.46,0.68 -1.52,0.50 -1.58,0.31 -1.59,0.12 -1.61,-0.07 -1.58,-0.26 -1.54,-0.45 -1.47,-0.63 -1.39,-0.81 -1.27,-0.96 -1.15,-1.12 -1.00,-1.24 -0.85,-1.36 -0.68,-1.45 -0.50,-1.53 -0.31,-1.57 -0.12,-1.60 0.07,-1.60 0.26,-1.59 0.26,-1.59 L 0.26,-1.59 Z"/></g><g transform="translate(191 62) rotate(0 9.5 3.5)" stroke="none"><path fill="#000000" d="M -0.72,-1.44 Q -0.72,-1.44 0.37,-2.14 1.46,-2.84 3.86,-3.48 6.26,-4.12 7.87,-4.38 9.48,-4.64 11.24,-4.40 13.01,-4.16 13.93,-4.04 14.85,-3.93 15.07,-3.88 15.28,-3.82 15.48,-3.72 15.67,-3.61 15.83,-3.47 16.00,-3.32 16.12,-3.14 16.25,-2.96 16.32,-2.75 16.40,-2.54 16.43,-2.32 16.45,-2.11 16.42,-1.89 16.40,-1.67 16.32,-1.46 16.24,-1.26 16.11,-1.08 15.99,-0.89 15.82,-0.75 15.65,-0.60 15.46,-0.50 15.26,-0.40 15.05,-0.35 14.83,-0.30 14.61,-0.30 14.39,-0.30 13.86,1.27 13.32,2.85 12.74,4.08 12.15,5.30 12.04,5.43 11.92,5.57 11.78,5.68 11.63,5.78 11.47,5.85 11.30,5.92 11.12,5.95 10.94,5.98 10.76,5.96 10.59,5.94 10.42,5.88 10.25,5.82 10.10,5.73 9.94,5.63 9.82,5.50 9.70,5.37 9.61,5.21 9.52,5.05 9.47,4.88 9.43,4.71 9.42,4.53 9.42,4.35 9.45,4.17 9.49,4.00 9.57,3.83 9.65,3.67 10.95,2.84 12.24,2.01 13.65,1.74 15.05,1.48 16.21,1.40 17.36,1.32 18.83,2.12 20.29,2.91 19.46,6.37 18.62,9.83 18.49,9.99 18.35,10.16 18.17,10.27 17.99,10.38 17.78,10.42 17.57,10.47 17.36,10.45 17.15,10.42 16.95,10.34 16.76,10.25 16.61,10.10 16.45,9.96 16.35,9.77 16.25,9.58 16.22,9.37 16.18,9.16 16.21,8.95 16.25,8.74 16.35,8.56 16.44,8.37 16.60,8.22 16.75,8.07 16.94,7.98 17.14,7.89 17.35,7.87 17.56,7.85 17.77,7.89 17.97,7.94 18.16,8.04 18.34,8.15 18.48,8.31 18.62,8.48 18.70,8.67 18.78,8.87 18.79,9.08 18.80,9.29 18.74,9.50 18.69,9.70 18.57,9.88 18.45,10.06 18.28,10.19 18.11,10.32 17.91,10.38 17.71,10.45 17.50,10.45 17.29,10.45 17.08,10.39 16.88,10.32 16.71,10.19 16.54,10.07 16.42,9.89 16.30,9.71 16.25,9.51 16.19,9.31 16.20,9.09 16.21,8.88 16.29,8.68 16.37,8.49 16.37,8.49 16.37,8.49 15.93,6.72 15.49,4.95 13.82,5.12 12.15,5.30 12.04,5.43 11.92,5.57 11.78,5.68 11.63,5.78 11.47,5.85 11.30,5.92 11.12,5.95 10.94,5.98 10.76,5.96 10.59,5.94 10.42,5.88 10.25,5.82 10.10,5.73 9.94,5.63 9.82,5.50 9.70,5.37 9.61,5.21 9.52,5.05 9.47,4.88 9.43,4.71 9.42,4.53 9.42,4.35 9.45,4.17 9.49,4.00 9.57,3.83 9.65,3.67 9.99,2.58 10.34,1.48 10.98,0.10 11.63,-1.27 13.24,-2.60 14.85,-3.93 15.07,-3.88 15.28,-3.82 15.48,-3.72 15.67,-3.61 15.83,-3.47 16.00,-3.32 16.12,-3.14 16.25,-2.96 16.32,-2.75 16.40,-2.54 16.43,-2.32 16.45,-2.11 16.42,-1.89 16.40,-1.67 16.32,-1.46 16.24,-1.26 16.11,-1.08 15.99,-0.89 15.82,-0.75 15.65,-0.60 15.46,-0.50 15.26,-0.40 15.05,-0.35 14.83,-0.30 14.61,-0.30 14.39,-0.30 13.46,-0.35 12.53,-0.40 11.28,-0.54 10.03,-0.68 8.61,-0.49 7.18,-0.30 5.16,0.12 3.13,0.54 1.92,0.99 0.72,1.44 0.53,1.50 0.35,1.57 0.16,1.59 -0.03,1.61 -0.22,1.58 -0.41,1.55 -0.59,1.48 -0.77,1.41 -0.93,1.30 -1.09,1.18 -1.22,1.03 -1.34,0.89 -1.43,0.71 -1.52,0.54 -1.56,0.35 -1.60,0.16 -1.60,-0.03 -1.59,-0.22 -1.54,-0.41 -1.49,-0.60 -1.40,-0.77 -1.30,-0.94 -1.17,-1.08 -1.04,-1.22 -0.88,-1.33 -0.72,-1.44 -0.72,-1.44 L -0.72,-1.44 Z"/></g><g transform="translate(329 127.5) rotate(0 -9.75 16.25)" stroke="none"><path fill="#000000" d="M 0.86,0.98 Q 0.86,0.98 -0.28,1.99 -1.43,3.00 -2.62,4.12 -3.81,5.25 -5.60,7.02 -7.40,8.80 -9.10,11.19 -10.80,13.59 -11.98,15.35 -13.15,17.10 -14.19,19.09 -15.24,21.08 -16.10,23.19 -16.96,25.30 -17.32,26.45 -17.68,27.60 -17.74,29.22 -17.80,30.84 -17.82,31.05 -17.84,31.26 -17.92,31.45 -18.01,31.65 -18.15,31.80 -18.29,31.96 -18.48,32.06 -18.67,32.17 -18.88,32.20 -19.08,32.24 -19.29,32.21 -19.50,32.18 -19.69,32.08 -19.88,31.99 -20.03,31.84 -20.18,31.68 -20.27,31.49 -20.37,31.30 -20.39,31.09 -20.42,30.88 -20.38,30.67 -20.33,30.46 -20.23,30.28 -20.12,30.10 -19.96,29.96 -19.80,29.82 -19.61,29.73 -19.41,29.65 -19.20,29.64 -18.99,29.62 -18.78,29.68 -18.58,29.73 -18.40,29.84 -18.22,29.96 -18.09,30.13 -17.96,30.29 -17.89,30.50 -17.81,30.70 -17.81,30.91 -17.81,31.12 -17.87,31.32 -17.94,31.53 -18.06,31.70 -18.19,31.87 -18.36,31.99 -18.54,32.11 -18.74,32.17 -18.94,32.23 -19.16,32.22 -19.37,32.22 -19.57,32.14 -19.76,32.07 -19.93,31.93 -20.09,31.80 -20.21,31.62 -20.32,31.44 -20.37,31.23 -20.42,31.02 -20.42,31.02 -20.42,31.02 -20.30,28.92 -20.19,26.82 -19.79,25.56 -19.39,24.30 -18.48,22.08 -17.56,19.86 -16.45,17.75 -15.34,15.64 -14.14,13.85 -12.94,12.06 -11.09,9.50 -9.25,6.93 -7.43,5.14 -5.61,3.35 -4.39,2.18 -3.16,1.02 -2.01,0.01 -0.86,-0.98 -0.73,-1.07 -0.60,-1.16 -0.45,-1.22 -0.30,-1.27 -0.14,-1.29 0.00,-1.31 0.16,-1.29 0.32,-1.27 0.46,-1.21 0.61,-1.15 0.74,-1.06 0.87,-0.97 0.98,-0.85 1.08,-0.73 1.15,-0.59 1.23,-0.45 1.26,-0.30 1.30,-0.15 1.30,0.00 1.30,0.16 1.26,0.31 1.22,0.47 1.15,0.61 1.07,0.75 0.97,0.87 0.86,0.98 0.86,0.98 L 0.86,0.98 Z"/></g><g transform="translate(109 10) rotate(0 0.00004999999998744897 0.00005000000000165983)" stroke="none"><path fill="#000000" d="M 2.12,-2.12 Q 2.12,-2.12 2.40,-1.73 2.69,-1.33 2.83,-0.87 2.97,-0.40 2.96,0.08 2.95,0.56 2.78,1.02 2.61,1.47 2.31,1.85 2.00,2.23 1.59,2.49 1.18,2.76 0.71,2.87 0.24,2.99 -0.24,2.95 -0.72,2.91 -1.17,2.72 -1.61,2.53 -1.98,2.20 -2.34,1.88 -2.58,1.45 -2.82,1.03 -2.91,0.55 -3.00,0.08 -2.93,-0.40 -2.87,-0.88 -2.65,-1.31 -2.44,-1.75 -2.09,-2.09 -1.75,-2.44 -1.31,-2.65 -0.88,-2.87 -0.39,-2.93 0.08,-3.00 0.55,-2.91 1.03,-2.82 1.46,-2.58 1.88,-2.34 2.20,-1.97 2.53,-1.61 2.72,-1.17 2.91,-0.72 2.95,-0.23 2.99,0.24 2.87,0.71 2.76,1.18 2.49,1.59 2.23,2.00 1.85,2.31 1.47,2.61 1.02,2.78 0.56,2.95 0.07,2.96 -0.40,2.97 -0.87,2.83 -1.33,2.69 -1.73,2.40 -2.12,2.12 -2.12,2.12 -2.12,2.12 -2.34,1.83 -2.57,1.55 -2.72,1.22 -2.86,0.89 -2.93,0.53 -2.99,0.18 -2.97,-0.18 -2.95,-0.54 -2.84,-0.88 -2.74,-1.23 -2.55,-1.54 -2.36,-1.85 -2.10,-2.10 -1.85,-2.36 -1.54,-2.55 -1.23,-2.74 -0.88,-2.84 -0.54,-2.95 -0.17,-2.97 0.18,-2.99 0.53,-2.93 0.89,-2.86 1.22,-2.72 1.55,-2.57 1.84,-2.34 2.12,-2.12 2.12,-2.12 L 2.12,-2.12 Z"/></g></svg>