<svg version="1.1" xmlns="http://www.w3.org/2000/svg" viewBox="0 0 429 229" width="858" height="458">
  <!-- svg-source:excalidraw -->
  
  <defs>
    <style>
      @font-face {
        font-family: "Virgil";
        src: url("https://unpkg.com/@zsviczian/excalidraw@0.11.0-obsidian-18/dist/excalidraw-assets/Virgil.woff2");
      }
      @font-face {
        font-family: "Cascadia";
        src: url("https://unpkg.com/@zsviczian/excalidraw@0.11.0-obsidian-18/dist/excalidraw-assets/Cascadia.woff2");
      }
    </style>
  </defs>
  <rect x="0" y="0" width="429" height="229" fill="#ffffff"/><g transform="translate(20 36) rotate(0 0 86.5)" stroke="none"><path fill="#000000" d="M -1.58,-0.31 Q -1.58,-0.31 -1.31,-1.75 -1.05,-3.20 -0.96,-4.10 -0.87,-5.01 -0.80,-5.20 -0.74,-5.40 -0.63,-5.58 -0.52,-5.75 -0.37,-5.90 -0.22,-6.04 -0.04,-6.15 0.13,-6.25 0.33,-6.31 0.53,-6.37 0.74,-6.38 0.95,-6.39 1.15,-6.35 1.35,-6.31 1.54,-6.22 1.73,-6.13 1.89,-6.00 2.05,-5.87 2.18,-5.70 2.31,-5.54 2.39,-5.34 2.47,-5.15 2.50,-4.95 2.54,-4.74 2.52,-4.54 2.51,-4.33 2.76,2.46 3.02,9.25 3.04,14.35 3.06,19.45 2.49,28.87 1.91,38.29 0.50,51.51 -0.90,64.73 -2.33,80.10 -3.77,95.46 -4.35,109.71 -4.94,123.95 -3.47,136.18 -2.01,148.41 -0.82,154.73 0.36,161.06 2.83,165.59 5.30,170.12 6.35,172.56 7.40,174.99 7.46,175.19 7.53,175.39 7.53,175.60 7.52,175.82 7.45,176.02 7.39,176.22 7.25,176.39 7.12,176.55 6.95,176.67 6.77,176.79 6.57,176.84 6.36,176.90 6.15,176.88 5.94,176.87 5.74,176.79 5.54,176.71 5.38,176.57 5.22,176.43 5.11,176.25 5.01,176.07 4.96,175.86 4.92,175.65 4.94,175.44 4.97,175.23 5.06,175.04 5.15,174.84 5.30,174.69 5.45,174.54 5.63,174.44 5.82,174.34 6.03,174.31 6.24,174.28 6.45,174.31 6.66,174.35 6.85,174.45 7.04,174.55 7.18,174.71 7.32,174.86 7.41,175.06 7.50,175.25 7.52,175.46 7.54,175.67 7.49,175.88 7.45,176.09 7.33,176.27 7.22,176.45 7.06,176.59 6.90,176.72 6.70,176.80 6.50,176.88 6.29,176.89 6.08,176.90 5.87,176.84 5.67,176.78 5.49,176.66 5.32,176.54 5.19,176.37 5.06,176.20 5.06,176.20 5.06,176.20 3.73,174.02 2.39,171.85 -0.75,166.90 -3.90,161.95 -5.10,155.43 -6.31,148.92 -7.77,136.34 -9.23,123.77 -8.57,109.42 -7.92,95.07 -6.45,79.69 -4.98,64.30 -3.60,51.17 -2.22,38.04 -1.66,28.75 -1.09,19.46 -1.09,14.36 -1.08,9.26 -1.05,3.40 -1.02,-2.46 -0.94,-3.73 -0.87,-5.01 -0.80,-5.20 -0.74,-5.40 -0.63,-5.58 -0.52,-5.75 -0.37,-5.90 -0.22,-6.04 -0.04,-6.15 0.13,-6.25 0.33,-6.31 0.53,-6.37 0.74,-6.38 0.95,-6.39 1.15,-6.35 1.35,-6.31 1.54,-6.22 1.73,-6.13 1.89,-6.00 2.05,-5.87 2.18,-5.70 2.31,-5.54 2.39,-5.34 2.47,-5.15 2.50,-4.95 2.54,-4.74 2.52,-4.54 2.51,-4.33 2.35,-3.44 2.20,-2.54 1.89,-1.11 1.58,0.31 1.52,0.50 1.46,0.68 1.35,0.85 1.25,1.01 1.11,1.15 0.97,1.28 0.80,1.38 0.63,1.48 0.45,1.53 0.26,1.59 0.07,1.60 -0.12,1.60 -0.31,1.57 -0.50,1.53 -0.68,1.45 -0.85,1.36 -1.00,1.24 -1.15,1.12 -1.27,0.96 -1.39,0.81 -1.47,0.63 -1.54,0.45 -1.58,0.26 -1.61,0.07 -1.59,-0.12 -1.58,-0.31 -1.58,-0.31 L -1.58,-0.31 Z"/></g><g transform="translate(14 43) rotate(0 8 -16.5)" stroke="none"><path fill="#000000" d="M -1.60,-0.20 Q -1.60,-0.20 -1.28,-2.49 -0.95,-4.79 0.61,-10.48 2.19,-16.17 3.72,-19.81 5.25,-23.44 6.73,-26.45 8.22,-29.46 9.10,-30.72 9.99,-31.99 10.11,-32.18 10.24,-32.36 10.40,-32.51 10.57,-32.65 10.76,-32.76 10.96,-32.86 11.17,-32.92 11.39,-32.97 11.61,-32.97 11.83,-32.98 12.04,-32.92 12.26,-32.87 12.46,-32.77 12.65,-32.67 12.82,-32.53 12.99,-32.38 13.11,-32.20 13.24,-32.02 13.32,-31.81 13.40,-31.60 13.43,-31.39 13.46,-31.17 13.43,-30.95 13.41,-30.73 13.33,-30.52 13.25,-30.31 14.47,-28.49 15.69,-26.66 15.85,-24.14 16.00,-21.62 16.03,-19.14 16.07,-16.66 16.23,-15.21 16.39,-13.75 16.66,-12.44 16.94,-11.13 16.99,-10.92 17.04,-10.71 17.02,-10.50 17.01,-10.29 16.92,-10.09 16.84,-9.90 16.70,-9.74 16.55,-9.58 16.37,-9.48 16.18,-9.37 15.98,-9.33 15.77,-9.29 15.56,-9.32 15.35,-9.35 15.16,-9.45 14.97,-9.54 14.82,-9.69 14.67,-9.84 14.57,-10.03 14.48,-10.22 14.45,-10.43 14.42,-10.64 14.46,-10.85 14.50,-11.06 14.60,-11.24 14.71,-11.43 14.87,-11.57 15.02,-11.71 15.22,-11.80 15.41,-11.88 15.63,-11.90 15.84,-11.92 16.04,-11.86 16.25,-11.81 16.43,-11.70 16.61,-11.58 16.74,-11.42 16.87,-11.25 16.95,-11.05 17.02,-10.85 17.03,-10.64 17.03,-10.43 16.97,-10.23 16.91,-10.02 16.78,-9.85 16.66,-9.68 16.49,-9.55 16.32,-9.43 16.11,-9.37 15.91,-9.31 15.70,-9.31 15.48,-9.32 15.28,-9.39 15.09,-9.46 14.92,-9.60 14.75,-9.73 14.64,-9.91 14.53,-10.09 14.53,-10.09 14.53,-10.09 13.61,-11.55 12.69,-13.02 12.23,-14.79 11.77,-16.56 11.70,-18.98 11.62,-21.40 11.53,-23.63 11.44,-25.87 11.34,-27.01 11.25,-28.15 10.62,-30.07 9.99,-31.99 10.11,-32.18 10.24,-32.36 10.40,-32.51 10.57,-32.65 10.76,-32.76 10.96,-32.86 11.17,-32.92 11.39,-32.97 11.61,-32.97 11.83,-32.98 12.04,-32.92 12.26,-32.87 12.46,-32.77 12.65,-32.67 12.82,-32.53 12.99,-32.38 13.11,-32.20 13.24,-32.02 13.32,-31.81 13.40,-31.61 13.43,-31.39 13.46,-31.17 13.43,-30.95 13.41,-30.73 13.33,-30.52 13.25,-30.31 12.28,-29.09 11.31,-27.86 9.77,-25.00 8.23,-22.14 6.71,-18.74 5.19,-15.33 3.65,-9.86 2.10,-4.40 1.85,-2.10 1.60,0.20 1.55,0.38 1.50,0.57 1.41,0.74 1.32,0.92 1.19,1.06 1.06,1.21 0.90,1.32 0.74,1.43 0.56,1.50 0.38,1.56 0.18,1.59 -0.00,1.61 -0.19,1.58 -0.39,1.56 -0.57,1.49 -0.75,1.42 -0.91,1.31 -1.07,1.20 -1.20,1.05 -1.33,0.91 -1.42,0.73 -1.51,0.56 -1.55,0.37 -1.60,0.18 -1.60,-0.00 -1.60,-0.20 -1.60,-0.20 L -1.60,-0.20 Z"/></g><g transform="translate(23 206) rotate(0 182.5 6.5)" stroke="none"><path fill="#000000" d="M 0.51,1.53 Q 0.51,1.53 -0.20,1.73 -0.92,1.94 1.61,1.83 4.16,1.73 5.95,1.24 7.74,0.75 11.45,-0.01 15.17,-0.78 17.67,-1.10 20.18,-1.42 23.20,-0.99 26.23,-0.56 29.03,-0.37 31.84,-0.18 35.49,0.44 39.14,1.06 41.68,1.90 44.22,2.74 46.58,3.33 48.95,3.92 50.99,4.17 53.03,4.42 55.32,4.55 57.60,4.68 61.44,4.70 65.29,4.71 68.37,4.72 71.45,4.73 74.04,5.00 76.63,5.27 82.51,5.62 88.39,5.97 91.75,6.15 95.12,6.32 99.60,6.12 104.08,5.92 112.12,5.83 120.15,5.75 125.28,5.73 130.41,5.71 138.09,6.05 145.78,6.38 153.03,6.50 160.28,6.61 167.39,6.66 174.49,6.70 179.81,6.73 185.13,6.76 191.99,6.76 198.85,6.76 208.96,6.74 219.06,6.72 228.21,6.44 237.35,6.15 246.38,5.47 255.41,4.80 261.89,4.51 268.37,4.22 275.69,3.84 283.02,3.45 292.80,3.25 302.57,3.05 310.82,3.52 319.07,3.98 326.61,4.76 334.16,5.54 340.26,6.49 346.37,7.45 350.94,8.22 355.51,9.00 358.82,9.47 362.13,9.94 363.94,10.53 365.74,11.11 365.94,11.19 366.14,11.28 366.30,11.42 366.46,11.56 366.56,11.74 366.67,11.92 366.71,12.13 366.75,12.34 366.73,12.55 366.70,12.76 366.61,12.95 366.52,13.14 366.37,13.30 366.22,13.45 366.03,13.54 365.84,13.64 365.63,13.67 365.42,13.70 365.21,13.67 365.00,13.63 364.82,13.53 364.63,13.42 364.49,13.27 364.34,13.11 364.26,12.92 364.17,12.72 364.15,12.51 364.13,12.30 364.18,12.09 364.23,11.88 364.34,11.70 364.45,11.52 364.62,11.39 364.78,11.25 364.98,11.18 365.18,11.10 365.39,11.09 365.61,11.09 365.81,11.15 366.01,11.21 366.19,11.33 366.36,11.45 366.49,11.62 366.61,11.79 366.68,12.00 366.74,12.20 366.74,12.41 366.73,12.62 366.66,12.82 366.59,13.02 366.46,13.19 366.33,13.36 366.15,13.47 365.97,13.59 365.77,13.64 365.56,13.70 365.35,13.68 365.14,13.67 365.14,13.67 365.14,13.67 363.49,13.43 361.85,13.20 358.38,13.10 354.92,12.99 350.31,12.42 345.71,11.86 339.69,10.99 333.68,10.12 326.23,9.32 318.79,8.53 310.72,7.99 302.65,7.46 292.96,7.61 283.27,7.76 275.92,8.20 268.57,8.64 262.16,8.95 255.75,9.25 246.62,9.97 237.49,10.68 228.28,10.97 219.06,11.26 208.95,11.23 198.85,11.20 191.98,11.19 185.12,11.17 179.79,11.15 174.46,11.14 167.34,11.09 160.21,11.04 152.92,10.92 145.62,10.81 138.03,10.60 130.44,10.39 125.32,10.45 120.21,10.51 112.26,10.61 104.30,10.70 99.59,10.93 94.87,11.15 91.46,10.97 88.06,10.80 82.07,10.32 76.08,9.84 73.75,9.52 71.41,9.20 68.32,9.17 65.23,9.13 61.31,9.05 57.39,8.96 54.94,8.86 52.49,8.75 50.16,8.45 47.83,8.15 45.30,7.44 42.78,6.73 40.60,5.86 38.41,4.99 35.00,4.32 31.59,3.64 28.61,3.46 25.62,3.28 23.14,2.84 20.66,2.41 18.33,2.75 16.00,3.10 12.39,3.89 8.79,4.69 6.88,5.18 4.97,5.68 2.22,6.11 -0.53,6.54 -1.70,5.98 -2.88,5.43 -3.46,4.51 -4.03,3.59 -4.07,2.50 -4.11,1.41 -3.32,0.31 -2.52,-0.79 -1.51,-1.16 -0.51,-1.53 -0.31,-1.57 -0.12,-1.60 0.06,-1.60 0.25,-1.59 0.44,-1.53 0.63,-1.48 0.80,-1.38 0.97,-1.28 1.11,-1.15 1.25,-1.02 1.35,-0.85 1.45,-0.69 1.52,-0.50 1.58,-0.32 1.59,-0.12 1.61,0.06 1.58,0.25 1.55,0.44 1.47,0.62 1.39,0.80 1.28,0.96 1.16,1.11 1.01,1.24 0.86,1.36 0.68,1.44 0.51,1.53 0.51,1.53 L 0.51,1.53 Z"/></g><g transform="translate(381 206) rotate(0 7.5 5)" stroke="none"><path fill="#000000" d="M 0,-1.61 Q 0,-1.61 1.72,-1.60 3.44,-1.59 5.39,-1.61 7.33,-1.64 9.69,-0.45 12.05,0.73 13.41,1.87 14.76,3.01 15.40,5.01 16.03,7.02 15.21,8.20 14.40,9.39 10.79,10.15 7.17,10.91 6.96,10.92 6.75,10.92 6.55,10.86 6.34,10.80 6.17,10.68 6.00,10.55 5.87,10.38 5.75,10.21 5.69,10.00 5.62,9.80 5.63,9.59 5.63,9.38 5.71,9.18 5.78,8.98 5.91,8.81 6.05,8.65 6.22,8.53 6.40,8.42 6.61,8.36 6.82,8.31 7.03,8.33 7.24,8.35 7.43,8.43 7.63,8.51 7.79,8.65 7.95,8.80 8.05,8.98 8.16,9.17 8.20,9.37 8.24,9.58 8.21,9.79 8.18,10.00 8.09,10.19 7.99,10.39 7.84,10.54 7.69,10.69 7.50,10.78 7.31,10.88 7.10,10.90 6.89,10.93 6.68,10.89 6.47,10.85 6.29,10.75 6.10,10.65 5.96,10.49 5.82,10.33 5.73,10.14 5.65,9.94 5.63,9.73 5.62,9.52 5.67,9.31 5.72,9.10 5.83,8.92 5.95,8.75 6.11,8.61 6.28,8.48 6.48,8.41 6.68,8.33 6.67,8.33 6.67,8.33 9.30,7.08 11.93,5.84 11.05,4.85 10.17,3.86 8.63,2.75 7.09,1.64 5.27,1.61 3.44,1.59 1.72,1.60 0,1.61 -0.19,1.59 -0.38,1.56 -0.56,1.49 -0.75,1.42 -0.91,1.31 -1.07,1.20 -1.19,1.06 -1.32,0.91 -1.41,0.74 -1.50,0.57 -1.55,0.38 -1.60,0.19 -1.60,-0.00 -1.60,-0.19 -1.55,-0.38 -1.50,-0.57 -1.41,-0.74 -1.32,-0.91 -1.19,-1.06 -1.07,-1.20 -0.91,-1.31 -0.74,-1.42 -0.56,-1.49 -0.38,-1.56 -0.19,-1.59 0.00,-1.61 0.00,-1.61 L 0,-1.61 Z"/></g><g transform="translate(10 162) rotate(0 204.5 -46)" stroke="none"><path fill="#000000" d="M 1.50,-0.57 Q 1.50,-0.57 2.98,3.14 4.46,6.86 5.36,8.65 6.26,10.44 7.70,10.12 9.14,9.81 9.73,8.81 10.32,7.82 11.49,5.65 12.67,3.49 13.72,0.37 14.77,-2.73 16.40,-6.48 18.04,-10.24 19.83,-15.21 21.63,-20.19 23.55,-25.76 25.47,-31.32 27.43,-37.14 29.39,-42.96 31.40,-48.33 33.40,-53.70 35.14,-57.47 36.88,-61.24 39.62,-67.14 42.36,-73.03 44.70,-77.31 47.03,-81.59 49.47,-85.71 51.90,-89.83 54.66,-93.94 57.41,-98.05 59.99,-102.07 62.56,-106.08 65.69,-110.18 68.83,-114.28 72.46,-118.62 76.09,-122.96 78.80,-125.98 81.50,-129.00 84.59,-130.97 87.69,-132.95 89.62,-133.81 91.55,-134.67 93.93,-135.34 96.30,-136.02 98.28,-135.72 100.26,-135.42 101.60,-134.51 102.93,-133.59 104.18,-131.22 105.44,-128.85 105.93,-125.39 106.42,-121.93 106.57,-117.62 106.72,-113.31 106.78,-109.49 106.85,-105.66 106.86,-100.87 106.86,-96.07 106.58,-90.25 106.29,-84.43 106.16,-77.41 106.04,-70.39 106.00,-65.39 105.96,-60.38 106.56,-53.16 107.15,-45.94 107.98,-39.44 108.81,-32.93 110.03,-26.77 111.25,-20.61 112.33,-16.29 113.42,-11.97 115.57,-7.44 117.72,-2.90 119.75,1.09 121.78,5.08 124.30,8.36 126.81,11.64 129.88,15.05 132.94,18.46 135.68,21.36 138.42,24.25 140.92,26.27 143.42,28.29 145.90,30.02 148.38,31.74 150.31,33.05 152.25,34.37 154.65,35.41 157.05,36.45 159.31,37.50 161.57,38.56 163.19,38.94 164.82,39.31 166.47,39.80 168.13,40.28 169.92,40.16 171.71,40.04 173.41,39.23 175.12,38.41 177.01,37.23 178.90,36.05 180.25,35.01 181.60,33.97 183.01,32.69 184.42,31.41 186.93,29.87 189.44,28.33 191.63,27.12 193.81,25.92 195.19,24.91 196.58,23.90 198.70,22.55 200.82,21.19 203.15,19.76 205.48,18.33 207.57,16.89 209.66,15.45 210.81,14.56 211.96,13.68 214.11,11.64 216.26,9.60 217.85,8.34 219.45,7.09 220.90,5.77 222.35,4.45 223.92,3.24 225.49,2.03 226.77,1.20 228.06,0.37 229.69,-0.78 231.31,-1.94 232.53,-2.96 233.76,-3.99 235.48,-5.33 237.21,-6.68 238.84,-7.84 240.48,-9.01 243.16,-9.92 245.84,-10.82 247.72,-10.90 249.60,-10.98 251.33,-10.69 253.07,-10.40 254.67,-9.98 256.27,-9.55 258.22,-8.80 260.16,-8.05 262.23,-6.82 264.31,-5.58 266.39,-3.83 268.48,-2.08 270.44,-0.54 272.39,1.00 274.44,2.86 276.49,4.73 278.51,6.67 280.53,8.61 282.77,10.54 285.01,12.46 287.17,14.48 289.32,16.50 291.86,18.42 294.41,20.34 296.91,22.01 299.41,23.69 302.65,25.20 305.89,26.71 309.45,27.60 313.00,28.50 316.18,28.91 319.35,29.31 322.70,29.49 326.04,29.68 329.39,29.48 332.74,29.28 336.41,28.67 340.08,28.05 343.64,27.21 347.20,26.36 350.41,25.42 353.63,24.48 357.10,23.77 360.58,23.07 363.77,22.48 366.96,21.89 370.22,21.92 373.48,21.94 375.64,21.96 377.81,21.98 380.56,22.28 383.30,22.58 385.81,22.68 388.31,22.78 391.19,23.11 394.08,23.45 396.09,23.57 398.10,23.70 399.52,23.78 400.95,23.85 402.36,24.18 403.78,24.51 404.79,25.02 405.80,25.52 406.97,28.70 408.14,31.88 407.94,31.94 407.74,32.01 407.52,32.01 407.31,32.01 407.11,31.94 406.91,31.87 406.74,31.75 406.57,31.62 406.45,31.44 406.33,31.27 406.27,31.06 406.22,30.86 406.23,30.64 406.24,30.43 406.32,30.23 406.40,30.04 406.54,29.88 406.67,29.71 406.86,29.60 407.04,29.49 407.25,29.45 407.45,29.40 407.67,29.43 407.88,29.45 408.07,29.54 408.26,29.63 408.42,29.78 408.57,29.92 408.67,30.11 408.77,30.30 408.80,30.51 408.84,30.72 408.80,30.93 408.77,31.14 408.67,31.32 408.57,31.51 408.41,31.66 408.26,31.80 408.07,31.89 407.87,31.98 407.66,32.00 407.45,32.03 407.24,31.98 407.04,31.93 406.85,31.82 406.67,31.72 406.54,31.55 406.40,31.39 406.32,31.19 406.24,31.00 406.23,30.78 406.22,30.57 406.28,30.37 406.33,30.16 406.45,29.99 406.57,29.81 406.74,29.68 406.91,29.55 406.91,29.55 406.91,29.55 405.38,29.39 403.84,29.22 402.30,28.59 400.75,27.96 399.28,27.91 397.81,27.86 395.70,27.70 393.59,27.54 390.85,27.19 388.11,26.84 385.49,26.69 382.86,26.54 380.32,26.25 377.77,25.96 375.60,25.94 373.43,25.93 370.54,25.87 367.66,25.81 364.51,26.38 361.36,26.96 358.04,27.62 354.72,28.29 351.41,29.22 348.10,30.16 344.43,31.04 340.76,31.91 336.88,32.62 333.00,33.34 329.42,33.57 325.83,33.80 322.34,33.63 318.84,33.47 315.39,33.05 311.94,32.64 308.01,31.61 304.09,30.59 300.56,28.92 297.03,27.25 294.42,25.50 291.82,23.75 289.11,21.69 286.40,19.62 284.31,17.67 282.22,15.71 279.89,13.71 277.56,11.70 275.58,9.80 273.60,7.90 271.67,6.13 269.73,4.37 267.72,2.78 265.71,1.20 263.87,-0.34 262.03,-1.90 260.28,-3.02 258.52,-4.14 256.88,-4.89 255.23,-5.63 253.80,-6.01 252.37,-6.39 251.02,-6.64 249.68,-6.89 248.37,-6.89 247.06,-6.89 244.95,-6.25 242.83,-5.62 241.30,-4.51 239.77,-3.40 238.10,-2.10 236.44,-0.80 235.10,0.33 233.75,1.46 232.05,2.69 230.34,3.92 229.20,4.65 228.05,5.37 226.61,6.47 225.17,7.58 223.60,8.99 222.03,10.40 220.58,11.52 219.13,12.64 216.82,14.82 214.50,17.01 213.26,17.94 212.02,18.88 209.84,20.38 207.66,21.87 205.36,23.29 203.05,24.70 201.03,25.99 199.01,27.27 197.42,28.42 195.82,29.56 193.71,30.72 191.60,31.89 189.41,33.20 187.21,34.52 185.68,35.90 184.15,37.29 182.63,38.45 181.10,39.62 178.95,40.93 176.80,42.24 174.39,43.22 171.98,44.19 169.50,44.24 167.03,44.29 165.42,43.82 163.82,43.35 161.82,42.82 159.81,42.30 157.60,41.24 155.39,40.18 152.69,38.95 149.99,37.72 148.03,36.39 146.08,35.06 143.47,33.27 140.85,31.49 138.12,29.31 135.40,27.13 132.61,24.19 129.83,21.26 126.64,17.73 123.46,14.19 120.76,10.60 118.06,7.01 115.93,2.96 113.81,-1.09 111.58,-6.02 109.36,-10.95 108.27,-15.38 107.18,-19.82 105.98,-26.13 104.79,-32.43 103.99,-39.04 103.20,-45.64 102.69,-53.03 102.17,-60.42 102.24,-65.43 102.30,-70.45 102.40,-77.53 102.51,-84.61 102.77,-90.33 103.04,-96.05 102.98,-100.81 102.92,-105.58 102.84,-109.37 102.75,-113.15 102.55,-117.28 102.35,-121.40 102.02,-124.26 101.69,-127.13 100.48,-129.31 99.27,-131.49 98.22,-131.81 97.18,-132.14 95.16,-131.58 93.14,-131.01 91.48,-130.31 89.82,-129.61 87.18,-127.90 84.53,-126.20 81.85,-123.28 79.18,-120.35 75.56,-116.10 71.94,-111.86 68.83,-107.94 65.72,-104.03 63.08,-100.01 60.44,-95.99 57.68,-92.02 54.93,-88.04 52.52,-83.97 50.12,-79.90 47.83,-75.73 45.54,-71.55 42.80,-65.66 40.07,-59.78 38.39,-56.12 36.71,-52.47 34.74,-47.14 32.77,-41.82 30.79,-35.99 28.82,-30.17 26.88,-24.57 24.94,-18.98 23.06,-13.92 21.18,-8.86 19.59,-5.25 18.01,-1.64 16.88,1.74 15.75,5.14 14.52,7.46 13.28,9.78 12.25,11.22 11.22,12.67 9.54,13.67 7.85,14.67 6.42,14.44 4.99,14.22 4.03,13.11 3.07,12.00 2.18,10.04 1.28,8.08 -0.11,4.33 -1.50,0.57 -1.55,0.39 -1.60,0.20 -1.60,0.00 -1.60,-0.18 -1.55,-0.37 -1.51,-0.56 -1.42,-0.73 -1.33,-0.91 -1.20,-1.05 -1.07,-1.20 -0.91,-1.31 -0.75,-1.42 -0.57,-1.49 -0.39,-1.56 -0.20,-1.58 -0.00,-1.61 0.18,-1.59 0.37,-1.56 0.56,-1.50 0.74,-1.43 0.90,-1.32 1.06,-1.21 1.19,-1.06 1.32,-0.92 1.41,-0.75 1.50,-0.57 1.50,-0.57 L 1.50,-0.57 Z"/></g></svg>