<svg version="1.1" xmlns="http://www.w3.org/2000/svg" viewBox="0 0 687.8161924663264 573.4302161380755" width="687.8161924663264" height="573.4302161380755">
  <!-- svg-source:excalidraw -->
  
  <defs>
    <style>
      @font-face {
        font-family: "Virgil";
        src: url("https://unpkg.com/@zsviczian/excalidraw@0.11.0-obsidian-18/dist/excalidraw-assets/Virgil.woff2");
      }
      @font-face {
        font-family: "Cascadia";
        src: url("https://unpkg.com/@zsviczian/excalidraw@0.11.0-obsidian-18/dist/excalidraw-assets/Cascadia.woff2");
      }
    </style>
  </defs>
  <rect x="0" y="0" width="687.8161924663264" height="573.4302161380755" fill="#ffffff"/><g transform="translate(25 63.12959827366467) rotate(0 9.5 111.5)" stroke="none"><path fill="#000000" d="M 0.82,1.02 Q 0.82,1.02 -0.23,2.62 -1.28,4.22 -0.85,9.58 -0.42,14.94 1.07,21.04 2.57,27.14 4.10,35.31 5.64,43.49 6.57,48.36 7.49,53.24 10.79,74.62 14.10,96.00 16.35,111.12 18.60,126.23 20.69,139.83 22.79,153.43 24.22,167.92 25.65,182.41 26.24,190.88 26.82,199.36 25.61,206.43 24.40,213.49 23.21,216.24 22.03,218.98 21.96,219.18 21.89,219.39 21.76,219.55 21.63,219.72 21.45,219.84 21.27,219.96 21.07,220.01 20.86,220.07 20.65,220.05 20.44,220.04 20.24,219.96 20.04,219.88 19.88,219.74 19.72,219.60 19.61,219.42 19.51,219.23 19.46,219.03 19.42,218.82 19.44,218.61 19.47,218.40 19.56,218.20 19.65,218.01 19.80,217.86 19.95,217.71 20.14,217.61 20.32,217.51 20.53,217.48 20.74,217.45 20.95,217.48 21.16,217.52 21.35,217.62 21.54,217.72 21.68,217.88 21.83,218.03 21.91,218.23 22.00,218.42 22.02,218.63 22.04,218.84 21.99,219.05 21.95,219.26 21.84,219.44 21.72,219.62 21.56,219.75 21.40,219.89 21.20,219.97 21.00,220.04 20.79,220.05 20.58,220.06 20.37,220.00 20.17,219.95 19.99,219.82 19.82,219.70 19.69,219.53 19.56,219.36 19.50,219.16 19.43,218.96 19.44,218.75 19.44,218.53 19.44,218.53 19.44,218.53 19.25,215.55 19.05,212.56 20.19,206.14 21.32,199.73 20.66,191.36 19.99,182.98 18.48,168.66 16.97,154.33 14.85,140.72 12.74,127.10 10.49,112.00 8.24,96.90 5.01,75.61 1.78,54.31 0.86,49.42 -0.05,44.53 -1.49,36.49 -2.93,28.45 -4.39,22.10 -5.84,15.75 -6.37,9.90 -6.90,4.04 -5.68,2.21 -4.46,0.37 -2.64,-0.32 -0.82,-1.02 -0.68,-1.10 -0.55,-1.19 -0.40,-1.24 -0.24,-1.28 -0.09,-1.30 0.06,-1.31 0.22,-1.28 0.37,-1.25 0.52,-1.19 0.66,-1.13 0.79,-1.03 0.91,-0.93 1.01,-0.81 1.11,-0.69 1.18,-0.54 1.24,-0.40 1.27,-0.24 1.31,-0.09 1.30,0.06 1.29,0.22 1.24,0.37 1.20,0.52 1.12,0.66 1.04,0.79 0.93,0.91 0.82,1.02 0.82,1.02 L 0.82,1.02 Z"/></g><g transform="translate(22 96.12959827366467) rotate(0 -4.5 -0.5)" stroke="none"><path fill="#000000" d="M -0.20,1.86 Q -0.20,1.86 -3.86,1.17 -7.51,0.48 -7.72,0.42 -7.92,0.37 -8.10,0.25 -8.27,0.13 -8.40,-0.03 -8.53,-0.20 -8.60,-0.40 -8.67,-0.60 -8.67,-0.82 -8.66,-1.03 -8.60,-1.23 -8.53,-1.43 -8.40,-1.60 -8.27,-1.77 -8.09,-1.89 -7.92,-2.01 -7.71,-2.06 -7.51,-2.12 -7.30,-2.11 -7.08,-2.10 -6.89,-2.02 -6.69,-1.94 -6.53,-1.80 -6.37,-1.66 -6.26,-1.48 -6.15,-1.30 -6.10,-1.09 -6.06,-0.88 -6.08,-0.67 -6.10,-0.46 -6.19,-0.27 -6.28,-0.07 -6.43,0.07 -6.58,0.22 -6.77,0.32 -6.95,0.42 -7.16,0.46 -7.37,0.49 -7.58,0.45 -7.79,0.42 -7.98,0.32 -8.17,0.22 -8.31,0.06 -8.46,-0.08 -8.55,-0.27 -8.64,-0.47 -8.66,-0.68 -8.68,-0.89 -8.63,-1.10 -8.59,-1.30 -8.48,-1.49 -8.37,-1.67 -8.21,-1.80 -8.04,-1.94 -7.85,-2.02 -7.65,-2.10 -7.44,-2.11 -7.22,-2.12 -7.22,-2.12 -7.22,-2.12 -3.51,-1.99 0.20,-1.86 0.42,-1.81 0.64,-1.76 0.84,-1.65 1.05,-1.55 1.22,-1.40 1.39,-1.25 1.52,-1.07 1.65,-0.88 1.73,-0.67 1.81,-0.46 1.84,-0.24 1.87,-0.01 1.85,0.20 1.82,0.43 1.74,0.64 1.67,0.85 1.54,1.04 1.41,1.23 1.25,1.38 1.08,1.53 0.88,1.64 0.68,1.74 0.46,1.80 0.24,1.86 0.01,1.86 -0.20,1.86 -0.20,1.86 L -0.20,1.86 Z"/></g><g transform="translate(10 95.12959827366467) rotate(0 101 5.5)" stroke="none"><path fill="#000000" d="M 0,-2.94 Q 0,-2.94 2.58,-2.96 5.17,-2.97 8.42,-2.70 11.67,-2.42 18.06,-2.34 24.45,-2.26 31.35,-1.64 38.25,-1.02 44.30,-0.48 50.34,0.06 58.17,1.15 65.99,2.25 70.20,3.01 74.41,3.77 87.69,3.77 100.97,3.77 116.21,3.78 131.46,3.79 140.29,4.09 149.12,4.38 160.42,5.37 171.71,6.36 177.31,6.78 182.90,7.19 187.85,6.54 192.80,5.88 195.33,5.31 197.86,4.75 198.24,4.74 198.61,4.74 198.98,4.83 199.35,4.91 199.68,5.09 200.02,5.26 200.30,5.51 200.59,5.75 200.80,6.06 201.02,6.37 201.16,6.72 201.29,7.08 201.34,7.45 201.39,7.82 201.35,8.20 201.31,8.57 201.18,8.93 201.04,9.28 200.83,9.59 200.62,9.91 200.34,10.16 200.06,10.41 199.73,10.59 199.40,10.77 199.03,10.86 198.66,10.95 198.07,11.07 197.47,11.19 197.32,11.34 197.17,11.49 196.98,11.59 196.79,11.68 196.58,11.71 196.37,11.74 196.16,11.70 195.95,11.66 195.76,11.55 195.58,11.45 195.44,11.29 195.30,11.13 195.21,10.94 195.13,10.74 195.11,10.53 195.10,10.32 195.15,10.11 195.20,9.91 195.31,9.73 195.43,9.55 195.59,9.42 195.76,9.28 195.96,9.21 196.16,9.14 196.37,9.13 196.58,9.13 196.79,9.19 196.99,9.25 197.16,9.38 197.33,9.50 197.46,9.67 197.58,9.85 197.64,10.05 197.71,10.25 197.70,10.46 197.69,10.68 197.62,10.88 197.55,11.08 197.41,11.24 197.28,11.41 197.10,11.52 196.92,11.63 196.71,11.69 196.51,11.74 196.30,11.72 196.09,11.70 195.89,11.62 195.70,11.53 195.54,11.39 195.38,11.25 195.28,11.06 195.17,10.88 195.13,10.67 195.09,10.46 195.12,10.25 195.15,10.04 195.24,9.85 195.34,9.66 195.34,9.66 195.34,9.66 196.60,7.20 197.86,4.75 198.24,4.74 198.61,4.74 198.98,4.83 199.35,4.91 199.68,5.09 200.02,5.26 200.30,5.51 200.59,5.75 200.80,6.06 201.02,6.37 201.16,6.72 201.29,7.08 201.34,7.45 201.39,7.82 201.35,8.20 201.31,8.57 201.18,8.93 201.05,9.28 200.83,9.59 200.62,9.91 200.34,10.16 200.06,10.41 199.73,10.59 199.40,10.77 199.03,10.86 198.66,10.95 196.14,11.54 193.62,12.14 188.04,12.85 182.46,13.56 176.80,13.13 171.15,12.71 160.03,11.73 148.91,10.74 140.18,10.45 131.45,10.15 116.20,10.14 100.95,10.13 87.13,10.06 73.30,9.99 69.20,9.24 65.10,8.49 57.44,7.39 49.77,6.30 43.72,5.73 37.68,5.17 31.00,4.53 24.33,3.90 17.72,3.73 11.12,3.57 8.14,3.27 5.17,2.97 2.58,2.96 0,2.94 -0.35,2.90 -0.70,2.86 -1.03,2.73 -1.36,2.60 -1.66,2.40 -1.95,2.20 -2.18,1.93 -2.42,1.67 -2.59,1.35 -2.75,1.04 -2.84,0.69 -2.92,0.35 -2.92,-0.00 -2.92,-0.35 -2.84,-0.70 -2.75,-1.04 -2.58,-1.35 -2.42,-1.67 -2.18,-1.93 -1.95,-2.20 -1.66,-2.40 -1.36,-2.60 -1.03,-2.73 -0.70,-2.86 -0.35,-2.90 0.00,-2.94 0.00,-2.94 L 0,-2.94 Z"/></g><g transform="translate(205 121.12959827366467) rotate(0 12 114)" stroke="none"><path fill="#000000" d="M 2.13,0 Q 2.13,0 2.78,3.73 3.44,7.47 3.15,12.04 2.86,16.62 2.45,21.43 2.03,26.24 1.86,29.07 1.69,31.91 3.92,44.83 6.15,57.75 7.11,64.60 8.06,71.45 9.01,75.64 9.97,79.82 13.28,95.19 16.60,110.56 19.74,125.42 22.88,140.29 24.82,156.25 26.76,172.20 27.57,181.27 28.39,190.34 28.74,198.87 29.09,207.39 28.55,212.81 28.02,218.22 25.19,222.01 22.35,225.79 20.46,226.37 18.57,226.95 18.41,227.09 18.25,227.23 18.05,227.31 17.85,227.39 17.64,227.41 17.43,227.42 17.22,227.37 17.02,227.31 16.84,227.19 16.66,227.08 16.53,226.91 16.40,226.74 16.33,226.54 16.26,226.34 16.26,226.13 16.26,225.92 16.32,225.71 16.39,225.51 16.51,225.34 16.64,225.17 16.81,225.05 16.99,224.93 17.19,224.87 17.40,224.81 17.61,224.82 17.82,224.83 18.02,224.90 18.22,224.98 18.38,225.11 18.55,225.25 18.66,225.43 18.77,225.61 18.82,225.82 18.86,226.03 18.84,226.24 18.82,226.45 18.74,226.64 18.65,226.84 18.51,226.99 18.36,227.15 18.18,227.25 17.99,227.35 17.78,227.39 17.57,227.43 17.36,227.39 17.15,227.36 16.96,227.26 16.77,227.17 16.62,227.01 16.48,226.86 16.38,226.67 16.29,226.48 16.27,226.27 16.24,226.06 16.29,225.85 16.33,225.64 16.44,225.46 16.54,225.27 16.54,225.27 16.54,225.27 16.76,223.31 16.97,221.34 19.11,219.13 21.24,216.92 21.56,212.30 21.89,207.67 21.55,199.33 21.21,190.99 20.41,182.03 19.61,173.06 17.74,157.41 15.88,141.76 12.77,126.90 9.66,112.04 6.40,96.71 3.13,81.37 2.13,76.89 1.13,72.42 0.20,65.66 -0.73,58.91 -2.95,45.22 -5.18,31.53 -5.00,28.59 -4.82,25.65 -4.42,20.91 -4.01,16.18 -3.72,11.82 -3.44,7.47 -2.78,3.73 -2.13,0 -2.10,-0.25 -2.07,-0.51 -1.98,-0.75 -1.88,-0.99 -1.74,-1.20 -1.59,-1.41 -1.40,-1.58 -1.21,-1.75 -0.98,-1.87 -0.75,-1.99 -0.50,-2.05 -0.25,-2.11 0.00,-2.11 0.25,-2.11 0.50,-2.05 0.75,-1.99 0.98,-1.87 1.21,-1.75 1.40,-1.58 1.59,-1.41 1.74,-1.20 1.88,-0.99 1.98,-0.75 2.07,-0.51 2.10,-0.25 2.13,0.00 2.13,0.00 L 2.13,0 Z"/></g><g transform="translate(295 371.12959827366467) rotate(0 41 -44)" stroke="none"><path fill="#000000" d="M 1.28,-1.86 Q 1.28,-1.86 6.27,0.72 11.26,3.31 15.55,5.38 19.85,7.45 24.52,8.55 29.18,9.65 36.40,8.16 43.62,6.67 47.83,5.28 52.03,3.90 58.21,-2.64 64.38,-9.19 69.36,-16.77 74.35,-24.36 79.92,-35.01 85.48,-45.67 89.88,-54.54 94.27,-63.41 96.92,-71.02 99.57,-78.63 101.28,-84.17 103.00,-89.71 103.08,-97.63 103.16,-105.56 100.13,-115.21 97.10,-124.87 93.84,-132.46 90.58,-140.05 86.46,-145.89 82.35,-151.74 77.40,-155.73 72.46,-159.73 63.79,-165.18 55.12,-170.63 47.03,-175.90 38.94,-181.16 29.55,-186.80 20.16,-192.44 11.73,-194.38 3.29,-196.32 -7.12,-191.00 -17.55,-185.68 -24.48,-179.77 -31.41,-173.85 -35.23,-159.01 -39.05,-144.17 -37.66,-121.15 -36.27,-98.12 -29.74,-76.13 -23.22,-54.14 -19.03,-43.05 -14.85,-31.97 0.46,-12.99 15.78,5.97 24.63,15.58 33.48,25.18 37.84,29.88 42.21,34.58 46.87,41.79 51.53,49.00 52.46,56.02 53.39,63.04 48.90,71.14 44.40,79.24 38.69,84.75 32.98,90.25 -2.50,97.12 -38.00,103.98 -53.67,106.45 -69.35,108.92 -77.73,108.83 -86.12,108.74 -88.97,108.11 -91.82,107.48 -92.24,107.42 -92.67,107.37 -93.07,107.21 -93.47,107.05 -93.82,106.80 -94.17,106.55 -94.45,106.23 -94.74,105.90 -94.93,105.52 -95.13,105.13 -95.22,104.71 -95.32,104.30 -95.32,103.86 -95.31,103.43 -95.20,103.02 -95.09,102.60 -94.89,102.22 -94.68,101.84 -94.39,101.53 -94.10,101.21 -93.75,100.97 -93.39,100.73 -92.98,100.58 -92.58,100.43 -92.15,100.39 -91.72,100.34 -88.62,100.37 -85.52,100.40 -76.91,102.48 -68.29,104.56 -58.92,105.96 -49.55,107.37 -37.55,108.54 -25.54,109.72 -17.80,110.52 -10.06,111.31 6.80,111.07 23.68,110.82 39.85,107.88 56.02,104.93 68.71,99.73 81.40,94.54 87.90,91.24 94.40,87.94 106.48,72.82 118.56,57.70 127.24,43.80 135.91,29.89 142.74,16.57 149.57,3.24 156.18,-13.24 162.78,-29.73 166.71,-42.96 170.64,-56.18 171.14,-78.38 171.63,-100.59 170.17,-120.10 168.70,-139.62 166.36,-154.46 164.02,-169.30 162.16,-176.34 160.31,-183.38 158.74,-186.12 157.18,-188.86 150.21,-191.10 143.25,-193.34 133.70,-193.05 124.15,-192.75 117.99,-191.03 111.83,-189.32 105.20,-184.06 98.57,-178.80 94.93,-177.16 91.29,-175.52 91.11,-175.42 90.92,-175.32 90.71,-175.28 90.50,-175.24 90.29,-175.27 90.08,-175.30 89.89,-175.39 89.70,-175.49 89.55,-175.64 89.40,-175.79 89.31,-175.98 89.22,-176.17 89.19,-176.38 89.16,-176.59 89.20,-176.80 89.24,-177.01 89.35,-177.20 89.46,-177.38 89.61,-177.52 89.77,-177.66 89.97,-177.74 90.16,-177.83 90.38,-177.84 90.59,-177.86 90.79,-177.81 91.00,-177.75 91.18,-177.64 91.36,-177.52 91.49,-177.36 91.62,-177.19 91.69,-176.99 91.77,-176.79 91.77,-176.58 91.77,-176.37 91.71,-176.16 91.65,-175.96 91.52,-175.79 91.40,-175.62 91.22,-175.49 91.05,-175.37 90.85,-175.31 90.64,-175.25 90.43,-175.26 90.22,-175.26 90.02,-175.34 89.82,-175.41 89.66,-175.55 89.49,-175.68 89.38,-175.86 89.26,-176.04 89.21,-176.25 89.16,-176.45 89.18,-176.66 89.20,-176.88 89.29,-177.07 89.37,-177.27 89.51,-177.42 89.66,-177.58 89.66,-177.58 89.66,-177.58 92.08,-180.75 94.50,-183.93 102.13,-189.99 109.75,-196.05 116.85,-197.97 123.95,-199.89 134.77,-200.03 145.58,-200.18 154.07,-196.69 162.56,-193.19 164.88,-189.21 167.20,-185.23 169.07,-177.81 170.95,-170.40 173.33,-155.27 175.70,-140.15 177.23,-120.29 178.75,-100.42 178.15,-77.31 177.56,-54.19 173.52,-40.62 169.48,-27.05 162.74,-10.25 155.99,6.53 149.01,20.12 142.02,33.71 133.07,47.96 124.12,62.21 110.97,78.15 97.81,94.09 90.93,97.59 84.06,101.09 70.68,106.48 57.30,111.86 40.55,114.87 23.80,117.87 6.50,118.11 -10.78,118.34 -18.50,117.55 -26.23,116.76 -38.42,115.57 -50.61,114.38 -60.30,112.92 -69.99,111.45 -77.81,109.48 -85.62,107.52 -88.72,107.50 -91.82,107.48 -92.24,107.42 -92.67,107.37 -93.07,107.21 -93.47,107.05 -93.82,106.80 -94.17,106.55 -94.45,106.23 -94.74,105.90 -94.93,105.52 -95.13,105.13 -95.22,104.71 -95.32,104.30 -95.32,103.86 -95.31,103.43 -95.20,103.02 -95.09,102.60 -94.89,102.22 -94.68,101.84 -94.39,101.53 -94.10,101.21 -93.75,100.97 -93.39,100.73 -92.99,100.58 -92.58,100.43 -92.15,100.39 -91.72,100.34 -88.86,100.95 -85.99,101.56 -78.22,101.68 -70.45,101.80 -54.89,99.34 -39.32,96.89 -5.36,90.82 28.60,84.75 33.43,80.13 38.26,75.50 42.33,69.23 46.41,62.95 45.87,57.79 45.32,52.63 41.09,46.08 36.86,39.53 32.48,34.83 28.11,30.13 19.09,20.34 10.08,10.55 -5.80,-9.35 -21.69,-29.26 -25.99,-40.66 -30.30,-52.06 -36.98,-74.86 -43.66,-97.66 -44.94,-121.84 -46.21,-146.02 -41.42,-162.44 -36.62,-178.85 -28.70,-185.59 -20.78,-192.33 -8.44,-197.86 3.90,-203.38 13.86,-201.06 23.82,-198.75 33.38,-193.03 42.93,-187.31 50.99,-182.07 59.04,-176.84 68.08,-171.12 77.12,-165.39 82.72,-160.68 88.32,-155.97 92.78,-149.45 97.25,-142.93 100.64,-134.96 104.04,-126.98 107.19,-116.25 110.35,-105.52 110.10,-96.60 109.85,-87.67 108.09,-81.97 106.32,-76.27 103.49,-68.26 100.66,-60.25 96.22,-51.31 91.79,-42.37 86.04,-31.40 80.29,-20.44 74.89,-12.33 69.49,-4.22 62.05,3.14 54.61,10.51 49.79,12.12 44.97,13.73 36.36,15.22 27.75,16.72 22.23,15.36 16.71,14.01 11.92,11.67 7.13,9.33 2.92,5.59 -1.28,1.86 -1.48,1.68 -1.68,1.50 -1.84,1.27 -1.99,1.05 -2.09,0.79 -2.19,0.54 -2.22,0.27 -2.26,0.00 -2.22,-0.26 -2.19,-0.53 -2.09,-0.79 -2.00,-1.04 -1.84,-1.27 -1.69,-1.49 -1.49,-1.67 -1.28,-1.85 -1.04,-1.98 -0.80,-2.11 -0.54,-2.17 -0.27,-2.24 -0.00,-2.24 0.26,-2.24 0.53,-2.17 0.79,-2.11 1.03,-1.98 1.28,-1.86 1.28,-1.86 L 1.28,-1.86 Z"/></g><g transform="translate(537.7190212394204 96.74891066036889) rotate(0 30.153364668042684 28.76167091413302)" stroke="none"><path fill="#000000" d="M 1.17,-1.23 Q 1.17,-1.23 5.95,2.43 10.74,6.09 16.92,11.98 23.09,17.87 30.05,24.51 37.01,31.15 44.30,38.11 51.60,45.06 51.89,45.45 52.18,45.84 52.34,46.30 52.49,46.76 52.49,47.25 52.49,47.73 52.33,48.19 52.17,48.65 51.88,49.04 51.58,49.42 51.18,49.70 50.77,49.97 50.30,50.10 49.84,50.22 49.35,50.20 48.87,50.17 48.41,49.99 47.96,49.81 47.59,49.49 47.22,49.17 46.98,48.76 46.73,48.34 46.62,47.86 46.52,47.39 46.57,46.90 46.63,46.42 46.83,45.98 47.04,45.54 47.38,45.19 47.71,44.84 48.14,44.61 48.57,44.38 49.05,44.31 49.53,44.23 50.01,44.31 50.49,44.39 50.92,44.62 51.35,44.85 51.68,45.20 52.02,45.56 52.22,46.00 52.42,46.44 52.47,46.93 52.52,47.41 52.42,47.88 52.31,48.36 52.06,48.77 51.80,49.19 51.43,49.50 51.06,49.82 50.61,49.99 50.16,50.17 49.67,50.20 49.19,50.22 48.72,50.09 48.25,49.96 47.85,49.68 47.45,49.41 47.45,49.41 47.45,49.41 40.16,42.45 32.86,35.50 25.90,28.86 18.94,22.22 12.77,16.33 6.59,10.44 2.70,5.83 -1.17,1.23 -1.30,1.07 -1.43,0.91 -1.52,0.73 -1.61,0.54 -1.65,0.34 -1.69,0.14 -1.69,-0.06 -1.68,-0.26 -1.62,-0.46 -1.57,-0.66 -1.46,-0.84 -1.36,-1.01 -1.22,-1.16 -1.08,-1.31 -0.90,-1.42 -0.73,-1.53 -0.54,-1.60 -0.34,-1.66 -0.14,-1.68 0.06,-1.70 0.26,-1.67 0.46,-1.63 0.65,-1.55 0.84,-1.47 1.01,-1.35 1.17,-1.23 1.17,-1.23 L 1.17,-1.23 Z"/></g><g transform="translate(598.0257505755058 154.27225248863493) rotate(0 39.8952209454103 83.73357419356466)" stroke="none"><path fill="#000000" d="M 2.38,-1.13 Q 2.38,-1.13 8.28,10.82 14.18,22.78 22.35,39.93 30.52,57.08 39.73,76.41 48.94,95.73 58.59,115.98 68.24,136.23 68.37,136.70 68.51,137.17 68.49,137.65 68.46,138.14 68.29,138.59 68.11,139.05 67.80,139.42 67.49,139.80 67.08,140.05 66.67,140.31 66.19,140.42 65.72,140.53 65.24,140.48 64.75,140.43 64.31,140.23 63.86,140.03 63.51,139.70 63.15,139.37 62.92,138.95 62.69,138.52 62.60,138.04 62.52,137.56 62.59,137.08 62.66,136.60 62.89,136.17 63.11,135.73 63.46,135.40 63.81,135.06 64.25,134.85 64.69,134.64 65.17,134.58 65.65,134.52 66.13,134.62 66.60,134.72 67.02,134.97 67.44,135.21 67.76,135.58 68.08,135.95 68.27,136.40 68.45,136.85 68.48,137.33 68.51,137.82 68.39,138.29 68.26,138.76 68.00,139.16 67.73,139.57 67.34,139.87 66.96,140.17 66.50,140.33 66.04,140.49 65.56,140.49 65.07,140.50 64.61,140.35 64.14,140.20 63.75,139.91 63.36,139.62 63.09,139.22 62.81,138.82 62.81,138.82 62.81,138.82 53.16,118.57 43.51,98.32 34.30,78.99 25.10,59.67 16.92,42.51 8.75,25.36 3.18,13.25 -2.38,1.13 -2.48,0.83 -2.58,0.53 -2.60,0.21 -2.63,-0.10 -2.58,-0.41 -2.53,-0.72 -2.41,-1.02 -2.28,-1.31 -2.09,-1.56 -1.90,-1.82 -1.65,-2.02 -1.41,-2.22 -1.12,-2.36 -0.83,-2.50 -0.52,-2.56 -0.21,-2.62 0.10,-2.61 0.41,-2.60 0.72,-2.51 1.03,-2.42 1.30,-2.26 1.58,-2.11 1.81,-1.89 2.04,-1.67 2.21,-1.40 2.38,-1.13 2.38,-1.13 L 2.38,-1.13 Z"/></g><g transform="translate(677.8161924663264 321.73940087576426) rotate(0 -45.230047002064 97.88246069164617)" stroke="none"><path fill="#000000" d="M 1.57,0.72 Q 1.57,0.72 -4.34,15.06 -10.27,29.40 -19.54,49.45 -28.80,69.50 -39.24,92.09 -49.68,114.68 -60.62,138.35 -71.56,162.03 -71.83,162.43 -72.10,162.83 -72.49,163.13 -72.88,163.42 -73.34,163.58 -73.80,163.73 -74.28,163.73 -74.77,163.73 -75.23,163.58 -75.69,163.42 -76.08,163.13 -76.47,162.83 -76.74,162.43 -77.01,162.03 -77.14,161.56 -77.27,161.09 -77.25,160.61 -77.22,160.12 -77.04,159.67 -76.86,159.22 -76.55,158.85 -76.23,158.48 -75.81,158.23 -75.40,157.97 -74.92,157.87 -74.45,157.77 -73.97,157.82 -73.48,157.87 -73.04,158.07 -72.60,158.28 -72.25,158.61 -71.89,158.95 -71.67,159.38 -71.44,159.81 -71.36,160.29 -71.28,160.77 -71.36,161.25 -71.44,161.72 -71.66,162.15 -71.89,162.58 -72.24,162.92 -72.60,163.25 -73.04,163.46 -73.48,163.66 -73.96,163.71 -74.45,163.77 -74.92,163.66 -75.40,163.56 -75.81,163.31 -76.23,163.06 -76.54,162.69 -76.86,162.32 -77.04,161.86 -77.22,161.41 -77.25,160.93 -77.27,160.44 -77.14,159.97 -77.01,159.50 -77.01,159.51 -77.01,159.51 -66.07,135.83 -55.14,112.16 -44.70,89.57 -34.26,66.98 -24.99,46.93 -15.73,26.88 -8.65,13.07 -1.57,-0.72 -1.46,-0.90 -1.35,-1.08 -1.20,-1.23 -1.05,-1.38 -0.87,-1.48 -0.69,-1.59 -0.49,-1.65 -0.29,-1.71 -0.08,-1.72 0.12,-1.73 0.32,-1.69 0.53,-1.65 0.72,-1.56 0.91,-1.48 1.07,-1.34 1.24,-1.21 1.37,-1.05 1.49,-0.88 1.58,-0.69 1.66,-0.50 1.70,-0.29 1.73,-0.08 1.72,0.12 1.70,0.33 1.64,0.53 1.57,0.73 1.57,0.73 L 1.57,0.72 Z"/></g><g transform="translate(587.3560984621984 517.5043222590566) rotate(0 -198.7802578500967 -39.431323027440385)" stroke="none"><path fill="#000000" d="M -0.38,1.95 Q -0.38,1.95 -29.06,-3.21 -57.73,-8.38 -98.45,-16.46 -139.17,-24.54 -185.05,-33.64 -230.93,-42.74 -279.00,-52.28 -327.07,-61.81 -327.53,-61.98 -327.99,-62.15 -328.36,-62.46 -328.74,-62.77 -329.00,-63.18 -329.26,-63.59 -329.37,-64.06 -329.49,-64.54 -329.44,-65.02 -329.40,-65.50 -329.21,-65.95 -329.01,-66.40 -328.68,-66.75 -328.36,-67.11 -327.93,-67.35 -327.51,-67.59 -327.03,-67.68 -326.55,-67.77 -326.07,-67.70 -325.59,-67.63 -325.16,-67.41 -324.72,-67.19 -324.38,-66.84 -324.04,-66.50 -323.82,-66.06 -323.61,-65.62 -323.55,-65.14 -323.49,-64.66 -323.58,-64.18 -323.68,-63.71 -323.92,-63.28 -324.16,-62.86 -324.52,-62.54 -324.89,-62.22 -325.34,-62.03 -325.78,-61.84 -326.27,-61.80 -326.75,-61.77 -327.22,-61.89 -327.70,-62.01 -328.10,-62.27 -328.51,-62.54 -328.81,-62.92 -329.12,-63.30 -329.28,-63.76 -329.44,-64.21 -329.45,-64.70 -329.46,-65.19 -329.32,-65.65 -329.17,-66.11 -328.89,-66.51 -328.60,-66.90 -328.20,-67.18 -327.81,-67.46 -327.34,-67.60 -326.88,-67.74 -326.39,-67.72 -325.90,-67.71 -325.90,-67.71 -325.91,-67.71 -277.83,-58.17 -229.76,-48.64 -183.88,-39.53 -138.00,-30.43 -97.28,-22.36 -56.56,-14.28 -28.08,-8.12 0.38,-1.95 0.61,-1.88 0.84,-1.80 1.04,-1.68 1.25,-1.55 1.42,-1.38 1.58,-1.20 1.71,-1.00 1.83,-0.79 1.90,-0.56 1.96,-0.33 1.97,-0.09 1.99,0.14 1.94,0.38 1.89,0.62 1.79,0.83 1.69,1.05 1.54,1.24 1.39,1.43 1.19,1.57 1.00,1.72 0.78,1.81 0.56,1.91 0.32,1.95 0.09,1.99 -0.14,1.97 -0.38,1.95 -0.38,1.95 L -0.38,1.95 Z"/></g><g transform="translate(189.79558276200498 438.64167620417584) rotate(0 19.715661513720192 -6.49457085157843)" stroke="none"><path fill="#000000" d="M -0.49,-1.51 Q -0.49,-1.51 2.11,-3.11 4.72,-4.72 8.76,-6.05 12.80,-7.38 17.35,-8.88 21.90,-10.38 26.67,-11.95 31.44,-13.52 31.92,-13.59 32.40,-13.67 32.88,-13.59 33.36,-13.50 33.78,-13.27 34.21,-13.04 34.54,-12.69 34.88,-12.33 35.08,-11.89 35.28,-11.45 35.33,-10.96 35.38,-10.48 35.27,-10.00 35.16,-9.53 34.91,-9.12 34.65,-8.70 34.28,-8.39 33.91,-8.08 33.46,-7.90 33.00,-7.72 32.52,-7.70 32.03,-7.68 31.56,-7.81 31.10,-7.94 30.70,-8.22 30.30,-8.49 30.00,-8.88 29.71,-9.27 29.56,-9.73 29.41,-10.20 29.41,-10.68 29.42,-11.17 29.57,-11.63 29.73,-12.09 30.03,-12.47 30.33,-12.86 30.73,-13.13 31.14,-13.40 31.60,-13.53 32.07,-13.65 32.56,-13.62 33.04,-13.59 33.49,-13.41 33.95,-13.23 34.31,-12.91 34.68,-12.59 34.93,-12.17 35.18,-11.75 35.28,-11.28 35.38,-10.80 35.32,-10.32 35.27,-9.84 35.06,-9.40 34.85,-8.96 34.52,-8.61 34.18,-8.26 33.75,-8.03 33.32,-7.81 33.32,-7.81 33.32,-7.81 28.55,-6.24 23.78,-4.67 19.23,-3.17 14.68,-1.67 10.64,-0.34 6.60,0.98 3.55,1.25 0.49,1.51 0.31,1.55 0.12,1.59 -0.07,1.58 -0.26,1.57 -0.44,1.52 -0.63,1.46 -0.79,1.36 -0.96,1.27 -1.10,1.13 -1.24,1.00 -1.34,0.84 -1.44,0.67 -1.50,0.49 -1.56,0.31 -1.57,0.12 -1.59,-0.07 -1.56,-0.26 -1.53,-0.45 -1.45,-0.62 -1.37,-0.80 -1.26,-0.95 -1.14,-1.11 -0.99,-1.23 -0.84,-1.35 -0.67,-1.43 -0.49,-1.51 -0.49,-1.51 L -0.49,-1.51 Z"/></g><g transform="translate(229.22690578944537 425.652534501019) rotate(0 61.93037204897996 -8.582111482442912)" stroke="none"><path fill="#000000" d="M -0.31,-2.27 Q -0.31,-2.27 8.53,-3.85 17.39,-5.44 30.07,-7.20 42.76,-8.96 57.05,-10.94 71.35,-12.92 86.33,-14.99 101.30,-17.07 101.79,-17.06 102.27,-17.04 102.73,-16.88 103.19,-16.71 103.57,-16.41 103.95,-16.10 104.21,-15.69 104.47,-15.28 104.59,-14.81 104.71,-14.34 104.67,-13.86 104.63,-13.37 104.44,-12.93 104.25,-12.48 103.93,-12.12 103.60,-11.75 103.18,-11.51 102.76,-11.27 102.28,-11.18 101.80,-11.09 101.32,-11.15 100.84,-11.22 100.40,-11.43 99.97,-11.65 99.62,-11.99 99.28,-12.33 99.06,-12.77 98.84,-13.20 98.78,-13.68 98.71,-14.17 98.80,-14.64 98.89,-15.12 99.13,-15.55 99.37,-15.97 99.73,-16.29 100.09,-16.62 100.54,-16.81 100.98,-17.01 101.47,-17.05 101.95,-17.09 102.42,-16.97 102.90,-16.85 103.31,-16.59 103.72,-16.33 104.02,-15.95 104.33,-15.58 104.50,-15.12 104.67,-14.66 104.68,-14.18 104.69,-13.69 104.55,-13.23 104.41,-12.76 104.13,-12.37 103.84,-11.97 103.45,-11.69 103.06,-11.40 102.59,-11.26 102.13,-11.11 102.13,-11.11 102.13,-11.11 87.15,-9.04 72.17,-6.96 57.88,-4.98 43.58,-3.00 30.90,-1.24 18.21,0.50 9.26,1.39 0.31,2.27 0.03,2.27 -0.23,2.28 -0.50,2.21 -0.77,2.15 -1.02,2.03 -1.27,1.90 -1.48,1.72 -1.69,1.54 -1.85,1.32 -2.01,1.09 -2.11,0.84 -2.21,0.58 -2.25,0.31 -2.29,0.03 -2.26,-0.23 -2.23,-0.51 -2.14,-0.77 -2.04,-1.03 -1.89,-1.26 -1.74,-1.49 -1.53,-1.67 -1.33,-1.86 -1.09,-1.99 -0.84,-2.13 -0.58,-2.20 -0.31,-2.27 -0.31,-2.27 L -0.31,-2.27 Z"/></g><g transform="translate(353.0876498874053 408.48831153613315) rotate(0 59.37893350014559 1.3916937539096637)" stroke="none"><path fill="#000000" d="M 0.05,-2.23 Q 0.05,-2.23 8.59,-2.41 17.14,-2.60 29.30,-2.31 41.46,-2.03 55.17,-1.71 68.87,-1.39 83.23,-1.05 97.59,-0.71 98.07,-0.62 98.55,-0.53 98.97,-0.30 99.40,-0.06 99.72,0.29 100.05,0.65 100.24,1.10 100.44,1.55 100.48,2.03 100.52,2.51 100.40,2.99 100.29,3.46 100.03,3.87 99.77,4.28 99.39,4.59 99.01,4.89 98.56,5.06 98.10,5.23 97.62,5.25 97.13,5.26 96.66,5.12 96.20,4.98 95.80,4.70 95.41,4.41 95.12,4.02 94.84,3.63 94.69,3.16 94.55,2.70 94.56,2.21 94.57,1.72 94.74,1.27 94.90,0.81 95.21,0.43 95.51,0.05 95.92,-0.20 96.33,-0.47 96.80,-0.58 97.27,-0.70 97.75,-0.67 98.24,-0.63 98.69,-0.44 99.13,-0.25 99.50,0.07 99.86,0.39 100.10,0.81 100.34,1.23 100.43,1.71 100.53,2.19 100.46,2.67 100.40,3.15 100.19,3.59 99.97,4.03 99.63,4.37 99.29,4.72 98.85,4.93 98.42,5.15 97.93,5.22 97.45,5.29 97.45,5.29 97.45,5.29 83.09,4.95 68.73,4.61 55.03,4.29 41.32,3.97 29.16,3.68 17.00,3.40 8.47,2.81 -0.05,2.23 -0.31,2.19 -0.58,2.15 -0.83,2.05 -1.08,1.95 -1.30,1.79 -1.52,1.63 -1.69,1.43 -1.86,1.22 -1.98,0.98 -2.10,0.74 -2.16,0.48 -2.22,0.21 -2.21,-0.05 -2.21,-0.32 -2.14,-0.58 -2.06,-0.84 -1.93,-1.07 -1.80,-1.31 -1.62,-1.50 -1.44,-1.70 -1.21,-1.85 -0.99,-2.00 -0.73,-2.09 -0.48,-2.18 -0.21,-2.20 0.05,-2.23 0.05,-2.23 L 0.05,-2.23 Z"/></g><g transform="translate(471.8455168876965 411.2716990439525) rotate(0 35.95208864266624 4.638979179698879)" stroke="none"><path fill="#000000" d="M 0.29,-2.27 Q 0.29,-2.27 5.50,-1.96 10.72,-1.64 18.08,-0.69 25.44,0.25 33.74,1.32 42.04,2.39 50.74,3.51 59.43,4.63 59.90,4.77 60.36,4.91 60.76,5.19 61.16,5.47 61.44,5.87 61.73,6.26 61.87,6.72 62.02,7.19 62.01,7.67 62.00,8.16 61.84,8.62 61.67,9.08 61.37,9.46 61.07,9.84 60.66,10.10 60.25,10.37 59.78,10.49 59.31,10.61 58.83,10.57 58.34,10.54 57.89,10.35 57.45,10.16 57.08,9.84 56.72,9.51 56.47,9.09 56.23,8.67 56.14,8.19 56.04,7.72 56.10,7.23 56.17,6.75 56.38,6.32 56.59,5.88 56.93,5.53 57.28,5.19 57.71,4.97 58.14,4.75 58.63,4.68 59.11,4.61 59.58,4.70 60.06,4.79 60.49,5.02 60.91,5.26 61.24,5.62 61.57,5.98 61.76,6.42 61.96,6.87 62.00,7.35 62.04,7.84 61.93,8.31 61.81,8.78 61.56,9.19 61.30,9.61 60.92,9.91 60.54,10.22 60.09,10.39 59.63,10.56 59.15,10.58 58.66,10.59 58.66,10.59 58.66,10.59 49.97,9.47 41.27,8.35 32.97,7.28 24.68,6.21 17.31,5.26 9.95,4.31 4.82,3.29 -0.29,2.27 -0.56,2.20 -0.83,2.14 -1.07,2.01 -1.31,1.88 -1.52,1.69 -1.73,1.51 -1.88,1.28 -2.04,1.05 -2.13,0.79 -2.23,0.53 -2.26,0.25 -2.29,-0.01 -2.26,-0.29 -2.22,-0.56 -2.12,-0.82 -2.02,-1.08 -1.86,-1.30 -1.70,-1.53 -1.49,-1.71 -1.29,-1.90 -1.04,-2.02 -0.79,-2.15 -0.52,-2.21 -0.25,-2.28 0.01,-2.28 0.29,-2.27 0.29,-2.27 L 0.29,-2.27 Z"/></g><g transform="translate(543.749694173029 420.54965740335024) rotate(0 -101.5936440354053 -201.33169639893106)" stroke="none"><path fill="#000000" d="M -1.72,0.87 Q -1.72,0.87 -16.81,-27.82 -31.89,-56.52 -52.70,-97.77 -73.51,-139.01 -96.96,-185.48 -120.41,-231.95 -144.97,-280.64 -169.54,-329.33 -169.69,-329.79 -169.84,-330.25 -169.83,-330.74 -169.82,-331.23 -169.65,-331.68 -169.49,-332.14 -169.19,-332.52 -168.88,-332.90 -168.48,-333.17 -168.07,-333.43 -167.60,-333.55 -167.13,-333.67 -166.64,-333.64 -166.16,-333.60 -165.71,-333.41 -165.26,-333.22 -164.90,-332.90 -164.53,-332.58 -164.29,-332.16 -164.05,-331.74 -163.95,-331.26 -163.86,-330.78 -163.92,-330.30 -163.98,-329.82 -164.20,-329.38 -164.41,-328.94 -164.75,-328.60 -165.09,-328.25 -165.53,-328.03 -165.96,-327.81 -166.44,-327.75 -166.92,-327.68 -167.40,-327.76 -167.88,-327.85 -168.30,-328.09 -168.73,-328.33 -169.06,-328.69 -169.38,-329.05 -169.58,-329.49 -169.77,-329.94 -169.82,-330.42 -169.86,-330.90 -169.74,-331.38 -169.63,-331.85 -169.37,-332.26 -169.11,-332.67 -168.74,-332.98 -168.36,-333.29 -167.90,-333.46 -167.45,-333.63 -166.96,-333.64 -166.48,-333.66 -166.01,-333.52 -165.54,-333.38 -165.15,-333.10 -164.75,-332.82 -164.46,-332.43 -164.18,-332.03 -164.18,-332.03 -164.18,-332.03 -139.61,-283.34 -115.04,-234.65 -91.59,-188.18 -68.14,-141.71 -47.33,-100.47 -26.52,-59.23 -12.39,-30.05 1.72,-0.87 1.80,-0.65 1.88,-0.43 1.91,-0.20 1.93,0.03 1.90,0.26 1.87,0.49 1.78,0.71 1.70,0.92 1.56,1.11 1.42,1.30 1.25,1.45 1.07,1.61 0.86,1.71 0.65,1.82 0.43,1.87 0.20,1.92 -0.03,1.92 -0.26,1.91 -0.49,1.85 -0.71,1.80 -0.92,1.68 -1.12,1.57 -1.29,1.41 -1.47,1.26 -1.60,1.06 -1.72,0.87 -1.72,0.87 L -1.72,0.87 Z"/></g><g transform="translate(340.56240610221835 17.886264605488122) rotate(0 -0.9277958359397758 -3.0153364668042855)" stroke="none"><path fill="#000000" d="M -1.68,0.51 Q -1.68,0.51 -2.98,-1.58 -4.27,-3.68 -4.34,-4.17 -4.41,-4.65 -4.31,-5.13 -4.22,-5.60 -3.98,-6.03 -3.75,-6.45 -3.38,-6.77 -3.02,-7.10 -2.58,-7.29 -2.13,-7.48 -1.64,-7.52 -1.16,-7.56 -0.69,-7.45 -0.22,-7.33 0.18,-7.07 0.59,-6.81 0.90,-6.43 1.20,-6.05 1.37,-5.59 1.54,-5.14 1.55,-4.65 1.57,-4.16 1.42,-3.70 1.28,-3.23 1.00,-2.84 0.71,-2.44 0.32,-2.16 -0.07,-1.88 -0.53,-1.73 -1.00,-1.59 -1.48,-1.60 -1.97,-1.62 -2.42,-1.78 -2.88,-1.95 -3.26,-2.26 -3.64,-2.56 -3.90,-2.97 -4.16,-3.38 -4.28,-3.85 -4.40,-4.32 -4.36,-4.81 -4.32,-5.29 -4.13,-5.74 -3.93,-6.19 -3.61,-6.55 -3.29,-6.91 -2.86,-7.15 -2.44,-7.39 -1.96,-7.48 -1.48,-7.57 -1.00,-7.51 -0.52,-7.44 -0.09,-7.23 0.34,-7.01 0.68,-6.67 1.03,-6.32 1.24,-5.89 1.46,-5.45 1.46,-5.45 1.46,-5.45 1.57,-2.98 1.68,-0.51 1.72,-0.30 1.75,-0.10 1.74,0.11 1.73,0.32 1.66,0.52 1.60,0.72 1.49,0.91 1.38,1.09 1.23,1.24 1.08,1.39 0.89,1.49 0.71,1.60 0.51,1.67 0.31,1.73 0.09,1.74 -0.11,1.75 -0.32,1.71 -0.53,1.67 -0.72,1.59 -0.91,1.50 -1.08,1.37 -1.25,1.24 -1.38,1.07 -1.51,0.90 -1.59,0.71 -1.68,0.51 -1.68,0.51 L -1.68,0.51 Z"/></g><g transform="translate(338.7068144303388 11.855591671879552) rotate(0 -1.159744794924734 3.0153364668042855)" stroke="none"><path fill="#000000" d="M 2.13,0.82 Q 2.13,0.82 1.59,3.23 1.04,5.65 0.80,6.07 0.55,6.49 0.18,6.81 -0.17,7.12 -0.62,7.31 -1.07,7.49 -1.56,7.53 -2.04,7.56 -2.51,7.43 -2.98,7.31 -3.39,7.04 -3.79,6.77 -4.09,6.39 -4.39,6.01 -4.55,5.55 -4.71,5.09 -4.72,4.60 -4.73,4.12 -4.58,3.65 -4.43,3.19 -4.14,2.80 -3.85,2.41 -3.45,2.13 -3.05,1.86 -2.58,1.72 -2.11,1.58 -1.63,1.60 -1.14,1.63 -0.69,1.80 -0.24,1.97 0.13,2.29 0.50,2.60 0.76,3.01 1.01,3.42 1.12,3.90 1.23,4.37 1.19,4.85 1.14,5.34 0.94,5.78 0.74,6.23 0.41,6.58 0.08,6.94 -0.33,7.17 -0.76,7.40 -1.24,7.49 -1.72,7.57 -2.20,7.50 -2.68,7.43 -3.11,7.20 -3.54,6.98 -3.88,6.63 -4.22,6.28 -4.43,5.84 -4.64,5.41 -4.70,4.92 -4.76,4.44 -4.66,3.96 -4.56,3.49 -4.56,3.49 -4.56,3.49 -3.35,1.33 -2.13,-0.82 -2.00,-1.06 -1.87,-1.30 -1.69,-1.51 -1.51,-1.72 -1.28,-1.87 -1.05,-2.03 -0.79,-2.12 -0.53,-2.22 -0.26,-2.25 0.01,-2.29 0.28,-2.25 0.55,-2.22 0.81,-2.12 1.07,-2.02 1.30,-1.86 1.52,-1.70 1.70,-1.49 1.89,-1.29 2.01,-1.04 2.14,-0.80 2.21,-0.53 2.27,-0.26 2.27,0.01 2.27,0.28 2.20,0.55 2.13,0.82 2.13,0.82 L 2.13,0.82 Z"/></g><g transform="translate(336.3873248404893 17.886264605488122) rotate(0 4.870928138683837 -3.4792343847742018)" stroke="none"><path fill="#000000" d="M -0.81,-1.14 Q -0.81,-1.14 0.11,-2.79 1.05,-4.44 2.34,-5.37 3.64,-6.29 4.89,-7.18 6.14,-8.08 6.58,-8.29 7.01,-8.51 7.50,-8.57 7.98,-8.64 8.45,-8.54 8.93,-8.45 9.35,-8.21 9.78,-7.97 10.10,-7.61 10.42,-7.24 10.62,-6.80 10.81,-6.35 10.84,-5.87 10.88,-5.38 10.76,-4.91 10.65,-4.44 10.38,-4.03 10.12,-3.62 9.74,-3.32 9.36,-3.01 8.90,-2.85 8.45,-2.68 7.96,-2.67 7.47,-2.66 7.01,-2.80 6.55,-2.94 6.15,-3.23 5.76,-3.51 5.47,-3.91 5.19,-4.31 5.05,-4.77 4.91,-5.24 4.92,-5.72 4.94,-6.21 5.11,-6.66 5.28,-7.12 5.58,-7.50 5.89,-7.88 6.30,-8.14 6.71,-8.40 7.18,-8.51 7.65,-8.63 8.14,-8.59 8.62,-8.55 9.07,-8.35 9.51,-8.16 9.87,-7.83 10.24,-7.51 10.47,-7.08 10.71,-6.66 10.80,-6.18 10.89,-5.71 10.83,-5.22 10.76,-4.74 10.54,-4.31 10.32,-3.87 9.98,-3.53 9.63,-3.19 9.63,-3.19 9.63,-3.19 8.38,-2.29 7.13,-1.40 5.84,-0.48 4.54,0.44 2.68,0.79 0.81,1.14 0.66,1.22 0.51,1.30 0.35,1.34 0.19,1.38 0.02,1.39 -0.14,1.39 -0.31,1.35 -0.47,1.31 -0.62,1.24 -0.77,1.16 -0.90,1.05 -1.03,0.94 -1.13,0.80 -1.23,0.67 -1.29,0.51 -1.35,0.35 -1.37,0.18 -1.40,0.02 -1.38,-0.14 -1.36,-0.31 -1.30,-0.47 -1.25,-0.63 -1.15,-0.77 -1.06,-0.91 -0.93,-1.02 -0.81,-1.14 -0.81,-1.14 L -0.81,-1.14 Z"/></g><g transform="translate(346.129181117857 10.927795835939719) rotate(0 -7.886264605488094 0.9277958359397758)" stroke="none"><path fill="#000000" d="M 0.20,1.73 Q 0.20,1.73 -1.98,2.62 -4.18,3.51 -6.28,3.76 -8.37,4.01 -10.40,4.24 -12.42,4.48 -12.91,4.46 -13.39,4.44 -13.85,4.26 -14.30,4.09 -14.67,3.78 -15.05,3.46 -15.30,3.05 -15.56,2.64 -15.66,2.16 -15.77,1.69 -15.72,1.20 -15.68,0.72 -15.48,0.28 -15.28,-0.16 -14.94,-0.51 -14.61,-0.87 -14.19,-1.10 -13.76,-1.33 -13.28,-1.41 -12.80,-1.50 -12.32,-1.42 -11.84,-1.35 -11.41,-1.12 -10.98,-0.90 -10.64,-0.55 -10.30,-0.20 -10.09,0.23 -9.89,0.67 -9.83,1.15 -9.77,1.64 -9.87,2.11 -9.97,2.59 -10.22,3.01 -10.47,3.42 -10.83,3.74 -11.20,4.06 -11.65,4.24 -12.10,4.43 -12.59,4.46 -13.07,4.49 -13.54,4.36 -14.01,4.24 -14.42,3.97 -14.82,3.70 -15.12,3.31 -15.42,2.93 -15.58,2.47 -15.74,2.01 -15.74,1.52 -15.74,1.04 -15.59,0.58 -15.44,0.11 -15.15,-0.27 -14.86,-0.66 -14.46,-0.93 -14.06,-1.21 -13.59,-1.34 -13.12,-1.48 -13.12,-1.48 -13.13,-1.48 -11.10,-1.71 -9.08,-1.95 -6.98,-2.20 -4.88,-2.45 -2.54,-2.09 -0.20,-1.73 0.00,-1.73 0.21,-1.73 0.42,-1.67 0.62,-1.62 0.81,-1.52 0.99,-1.43 1.15,-1.29 1.30,-1.15 1.42,-0.97 1.54,-0.80 1.62,-0.60 1.69,-0.41 1.71,-0.20 1.74,0.00 1.71,0.21 1.69,0.42 1.61,0.61 1.54,0.81 1.42,0.98 1.30,1.16 1.14,1.30 0.98,1.43 0.79,1.53 0.61,1.63 0.40,1.68 0.20,1.73 0.20,1.73 L 0.20,1.73 Z"/></g><g transform="translate(330.3566519068808 12.78338750781927) rotate(0 5.566775015638655 0.6958468769548745)" stroke="none"><path fill="#000000" d="M 0.24,-1.93 Q 0.24,-1.93 1.90,-2.25 3.57,-2.58 6.48,-2.21 9.39,-1.85 9.85,-1.71 10.32,-1.57 10.72,-1.30 11.12,-1.02 11.40,-0.62 11.69,-0.23 11.84,0.22 11.99,0.68 11.98,1.17 11.97,1.66 11.81,2.11 11.65,2.57 11.35,2.96 11.05,3.34 10.64,3.60 10.23,3.87 9.76,3.99 9.29,4.12 8.81,4.08 8.32,4.05 7.87,3.86 7.42,3.67 7.06,3.35 6.69,3.03 6.45,2.61 6.21,2.19 6.11,1.71 6.01,1.24 6.07,0.75 6.13,0.27 6.34,-0.16 6.56,-0.59 6.90,-0.94 7.24,-1.29 7.67,-1.51 8.10,-1.73 8.58,-1.80 9.06,-1.87 9.54,-1.79 10.02,-1.70 10.45,-1.46 10.87,-1.23 11.20,-0.87 11.53,-0.51 11.73,-0.07 11.92,0.37 11.97,0.85 12.01,1.33 11.90,1.81 11.79,2.28 11.53,2.69 11.27,3.11 10.90,3.41 10.52,3.72 10.07,3.90 9.61,4.07 9.13,4.09 8.64,4.10 8.64,4.10 8.64,4.10 5.73,3.74 2.82,3.38 1.29,2.65 -0.24,1.93 -0.47,1.87 -0.69,1.82 -0.90,1.71 -1.11,1.60 -1.28,1.44 -1.46,1.28 -1.59,1.09 -1.73,0.90 -1.81,0.68 -1.89,0.46 -1.92,0.22 -1.95,-0.00 -1.92,-0.24 -1.89,-0.47 -1.80,-0.69 -1.72,-0.91 -1.59,-1.10 -1.45,-1.29 -1.27,-1.45 -1.10,-1.61 -0.89,-1.71 -0.68,-1.82 -0.45,-1.88 -0.22,-1.93 0.00,-1.93 0.24,-1.93 0.24,-1.93 L 0.24,-1.93 Z"/></g><g transform="translate(341.4902019381581 14.17508126172902) rotate(0 1.8555916718795515 1.6236427128945934)" stroke="none"><path fill="#000000" d="M 1.34,-1.53 Q 1.34,-1.53 3.06,-0.66 4.79,0.20 5.10,0.57 5.41,0.95 5.58,1.40 5.75,1.85 5.77,2.34 5.79,2.83 5.65,3.29 5.52,3.76 5.24,4.16 4.96,4.56 4.57,4.84 4.18,5.13 3.71,5.28 3.25,5.43 2.77,5.42 2.28,5.42 1.82,5.25 1.36,5.09 0.98,4.79 0.60,4.49 0.33,4.09 0.06,3.68 -0.05,3.21 -0.17,2.74 -0.14,2.25 -0.11,1.77 0.07,1.32 0.26,0.87 0.58,0.50 0.90,0.14 1.32,-0.10 1.74,-0.34 2.21,-0.44 2.69,-0.54 3.17,-0.48 3.66,-0.42 4.09,-0.21 4.53,0.00 4.88,0.33 5.23,0.67 5.45,1.11 5.67,1.54 5.74,2.02 5.81,2.50 5.73,2.98 5.64,3.46 5.41,3.89 5.17,4.31 4.82,4.64 4.46,4.97 4.01,5.17 3.57,5.36 3.09,5.41 2.60,5.46 2.13,5.34 1.66,5.23 1.24,4.98 0.83,4.72 0.83,4.72 0.83,4.72 -0.25,3.13 -1.34,1.53 -1.51,1.35 -1.67,1.17 -1.79,0.95 -1.90,0.73 -1.96,0.49 -2.02,0.25 -2.02,0.01 -2.03,-0.23 -1.97,-0.47 -1.91,-0.71 -1.80,-0.93 -1.68,-1.15 -1.52,-1.33 -1.36,-1.52 -1.16,-1.66 -0.96,-1.80 -0.73,-1.89 -0.50,-1.98 -0.25,-2.01 -0.01,-2.04 0.23,-2.01 0.47,-1.98 0.70,-1.90 0.93,-1.81 1.14,-1.67 1.34,-1.53 1.34,-1.53 L 1.34,-1.53 Z"/></g><g transform="translate(345.2013852819172 17.422366687518206) rotate(0 -3.9431323027440612 2.7833875078193273)" stroke="none"><path fill="#000000" d="M 0.87,1.23 Q 0.87,1.23 -0.39,3.04 -1.66,4.85 -2.95,5.76 -4.24,6.67 -4.68,6.88 -5.12,7.10 -5.60,7.16 -6.08,7.22 -6.56,7.12 -7.03,7.03 -7.46,6.79 -7.88,6.54 -8.20,6.18 -8.52,5.81 -8.71,5.37 -8.90,4.92 -8.93,4.43 -8.97,3.95 -8.85,3.48 -8.73,3.01 -8.46,2.60 -8.20,2.19 -7.81,1.89 -7.43,1.59 -6.97,1.42 -6.52,1.26 -6.03,1.25 -5.54,1.24 -5.08,1.39 -4.62,1.54 -4.22,1.82 -3.83,2.11 -3.55,2.51 -3.27,2.90 -3.13,3.37 -2.99,3.84 -3.01,4.32 -3.03,4.81 -3.20,5.26 -3.37,5.72 -3.68,6.09 -3.99,6.47 -4.40,6.73 -4.81,6.99 -5.28,7.10 -5.76,7.21 -6.24,7.17 -6.72,7.13 -7.17,6.93 -7.61,6.73 -7.97,6.41 -8.33,6.08 -8.57,5.65 -8.80,5.23 -8.89,4.75 -8.98,4.27 -8.91,3.79 -8.84,3.31 -8.62,2.88 -8.40,2.44 -8.05,2.10 -7.71,1.76 -7.71,1.76 -7.71,1.76 -6.42,0.85 -5.13,-0.05 -3.00,-0.64 -0.87,-1.23 -0.71,-1.32 -0.55,-1.40 -0.37,-1.45 -0.19,-1.49 -0.01,-1.50 0.16,-1.50 0.34,-1.46 0.52,-1.41 0.68,-1.33 0.84,-1.25 0.98,-1.13 1.12,-1.01 1.22,-0.86 1.33,-0.71 1.39,-0.54 1.46,-0.37 1.48,-0.19 1.51,-0.01 1.49,0.16 1.47,0.34 1.40,0.51 1.34,0.68 1.24,0.84 1.14,0.99 1.00,1.11 0.87,1.23 0.87,1.23 L 0.87,1.23 Z"/></g><g transform="translate(95.62430541411788 495.70112011447196) rotate(0 18.55591671879546 10.901601072292323)" stroke="none"><path fill="#000000" d="M 1.11,-1.89 Q 1.11,-1.89 3.98,-0.67 6.85,0.54 10.65,2.77 14.45,5.00 18.74,7.52 23.02,10.04 27.51,12.67 32.00,15.31 32.37,15.62 32.74,15.93 33.00,16.35 33.25,16.76 33.36,17.23 33.47,17.71 33.42,18.19 33.38,18.67 33.18,19.12 32.98,19.56 32.65,19.92 32.32,20.27 31.89,20.51 31.46,20.74 30.98,20.82 30.50,20.91 30.02,20.83 29.54,20.76 29.11,20.54 28.68,20.31 28.34,19.96 28.00,19.61 27.79,19.17 27.59,18.73 27.53,18.25 27.47,17.77 27.57,17.29 27.67,16.82 27.92,16.40 28.16,15.98 28.53,15.66 28.90,15.34 29.35,15.16 29.80,14.97 30.28,14.94 30.77,14.91 31.24,15.04 31.71,15.16 32.11,15.43 32.52,15.70 32.82,16.08 33.11,16.47 33.27,16.93 33.43,17.38 33.44,17.87 33.44,18.36 33.29,18.82 33.14,19.28 32.85,19.67 32.56,20.06 32.16,20.34 31.76,20.62 31.30,20.75 30.83,20.88 30.34,20.86 29.86,20.84 29.40,20.67 28.95,20.49 28.95,20.49 28.95,20.49 24.46,17.86 19.98,15.22 15.69,12.70 11.41,10.19 7.61,7.95 3.81,5.72 1.34,3.80 -1.11,1.89 -1.32,1.73 -1.53,1.57 -1.69,1.36 -1.86,1.16 -1.97,0.92 -2.08,0.67 -2.14,0.42 -2.19,0.16 -2.17,-0.10 -2.16,-0.36 -2.09,-0.62 -2.01,-0.87 -1.88,-1.10 -1.74,-1.33 -1.56,-1.52 -1.37,-1.71 -1.15,-1.85 -0.92,-1.99 -0.67,-2.07 -0.42,-2.15 -0.15,-2.17 0.10,-2.19 0.36,-2.15 0.62,-2.10 0.87,-2.00 1.11,-1.89 1.11,-1.89 L 1.11,-1.89 Z"/></g><g transform="translate(132.7361388517088 517.5043222590566) rotate(0 33.63259905281686 -9.27795835939773)" stroke="none"><path fill="#000000" d="M -0.69,-2.53 Q -0.69,-2.53 4.08,-4.04 8.87,-5.56 15.75,-7.46 22.64,-9.36 30.41,-11.50 38.17,-13.64 46.30,-15.89 54.44,-18.13 54.92,-18.18 55.40,-18.23 55.88,-18.13 56.35,-18.02 56.77,-17.77 57.19,-17.52 57.50,-17.15 57.81,-16.78 57.99,-16.33 58.17,-15.87 58.20,-15.39 58.22,-14.90 58.09,-14.44 57.96,-13.97 57.69,-13.57 57.41,-13.16 57.03,-12.87 56.64,-12.58 56.18,-12.42 55.72,-12.27 55.23,-12.27 54.74,-12.27 54.28,-12.43 53.82,-12.58 53.44,-12.88 53.05,-13.17 52.78,-13.57 52.51,-13.98 52.38,-14.45 52.25,-14.91 52.28,-15.40 52.30,-15.89 52.48,-16.34 52.66,-16.79 52.98,-17.16 53.29,-17.53 53.71,-17.78 54.13,-18.03 54.60,-18.13 55.08,-18.24 55.56,-18.18 56.05,-18.13 56.49,-17.92 56.93,-17.72 57.28,-17.38 57.63,-17.05 57.86,-16.62 58.09,-16.19 58.16,-15.71 58.24,-15.23 58.16,-14.75 58.08,-14.27 57.85,-13.84 57.63,-13.41 57.27,-13.08 56.92,-12.74 56.48,-12.54 56.03,-12.34 56.04,-12.34 56.04,-12.34 47.90,-10.09 39.77,-7.85 32.01,-5.71 24.24,-3.57 17.35,-1.67 10.46,0.22 5.58,1.38 0.69,2.53 0.38,2.57 0.07,2.62 -0.24,2.59 -0.55,2.56 -0.85,2.46 -1.15,2.35 -1.42,2.18 -1.68,2.01 -1.90,1.78 -2.11,1.54 -2.27,1.27 -2.42,0.99 -2.51,0.69 -2.59,0.38 -2.60,0.07 -2.61,-0.24 -2.54,-0.55 -2.47,-0.86 -2.33,-1.14 -2.20,-1.43 -1.99,-1.67 -1.79,-1.91 -1.53,-2.10 -1.28,-2.29 -0.99,-2.41 -0.69,-2.53 -0.69,-2.53 L -0.69,-2.53 Z"/></g><g transform="translate(200.00133695734252 498.94840554026115) rotate(0 69.12078977751318 18.092018800825628)" stroke="none"><path fill="#000000" d="M 0.56,-2.15 Q 0.56,-2.15 10.59,0.07 20.63,2.29 34.79,6.00 48.95,9.70 64.90,13.88 80.85,18.05 97.57,22.43 114.29,26.80 114.73,27.00 115.17,27.20 115.53,27.53 115.89,27.86 116.12,28.28 116.36,28.71 116.44,29.19 116.53,29.67 116.46,30.15 116.39,30.63 116.17,31.06 115.94,31.49 115.60,31.83 115.25,32.17 114.81,32.38 114.37,32.59 113.89,32.65 113.41,32.71 112.93,32.62 112.45,32.52 112.03,32.27 111.61,32.03 111.29,31.66 110.97,31.30 110.79,30.85 110.60,30.40 110.57,29.92 110.53,29.43 110.66,28.96 110.78,28.49 111.05,28.08 111.31,27.68 111.70,27.38 112.08,27.08 112.54,26.91 113.00,26.75 113.48,26.75 113.97,26.74 114.43,26.89 114.89,27.04 115.29,27.32 115.68,27.61 115.96,28.01 116.23,28.41 116.37,28.88 116.51,29.34 116.49,29.83 116.47,30.31 116.30,30.77 116.12,31.22 115.81,31.60 115.50,31.97 115.09,32.23 114.68,32.49 114.20,32.60 113.73,32.71 113.25,32.66 112.76,32.62 112.76,32.62 112.76,32.62 96.05,28.24 79.33,23.87 63.38,19.69 47.42,15.52 33.27,11.81 19.11,8.10 9.27,5.13 -0.56,2.15 -0.81,2.05 -1.06,1.95 -1.28,1.79 -1.49,1.64 -1.67,1.44 -1.84,1.23 -1.96,0.99 -2.09,0.75 -2.15,0.49 -2.21,0.23 -2.20,-0.03 -2.20,-0.29 -2.13,-0.55 -2.06,-0.81 -1.93,-1.05 -1.81,-1.28 -1.63,-1.48 -1.45,-1.68 -1.22,-1.83 -1.00,-1.98 -0.75,-2.07 -0.50,-2.16 -0.23,-2.19 0.03,-2.22 0.29,-2.18 0.56,-2.15 0.56,-2.15 L 0.56,-2.15 Z"/></g><g transform="translate(338.2429165123689 535.1324431419124) rotate(0 43.606404289169404 14.148886498081538)" stroke="none"><path fill="#000000" d="M 0.50,-1.55 Q 0.50,-1.55 6.98,-0.17 13.46,1.20 22.39,4.10 31.32,7.00 41.39,10.27 51.45,13.53 62.00,16.95 72.55,20.38 72.98,20.60 73.41,20.82 73.75,21.17 74.09,21.52 74.30,21.96 74.50,22.40 74.56,22.88 74.62,23.36 74.52,23.84 74.42,24.32 74.18,24.73 73.93,25.15 73.56,25.47 73.20,25.79 72.75,25.98 72.30,26.16 71.81,26.19 71.33,26.23 70.86,26.10 70.39,25.98 69.98,25.71 69.58,25.44 69.28,25.06 68.98,24.67 68.82,24.21 68.66,23.75 68.65,23.27 68.65,22.78 68.80,22.32 68.95,21.86 69.24,21.47 69.53,21.08 69.93,20.80 70.33,20.52 70.79,20.39 71.26,20.25 71.75,20.27 72.23,20.29 72.69,20.47 73.14,20.64 73.51,20.95 73.89,21.26 74.14,21.68 74.40,22.09 74.51,22.57 74.62,23.04 74.57,23.52 74.52,24.01 74.32,24.45 74.12,24.89 73.79,25.25 73.46,25.61 73.04,25.84 72.61,26.07 72.13,26.16 71.65,26.24 71.17,26.17 70.69,26.09 70.69,26.09 70.69,26.09 60.14,22.67 49.60,19.25 39.53,15.98 29.47,12.72 20.54,9.82 11.60,6.92 5.55,4.24 -0.50,1.55 -0.68,1.47 -0.86,1.39 -1.01,1.26 -1.17,1.14 -1.29,0.98 -1.40,0.82 -1.48,0.64 -1.56,0.46 -1.60,0.27 -1.63,0.07 -1.61,-0.11 -1.60,-0.31 -1.54,-0.50 -1.48,-0.68 -1.37,-0.85 -1.27,-1.02 -1.13,-1.16 -0.99,-1.29 -0.82,-1.39 -0.65,-1.49 -0.46,-1.55 -0.27,-1.61 -0.07,-1.62 0.11,-1.63 0.31,-1.59 0.50,-1.55 0.50,-1.55 L 0.50,-1.55 Z"/></g><g transform="translate(425.4557250907077 563.4302161380755) rotate(0 15.308631293006272 -0.46389791796985946)" stroke="none"><path fill="#000000" d="M -0.04,-1.56 Q -0.04,-1.56 2.13,-2.35 4.31,-3.13 7.44,-3.23 10.58,-3.32 14.11,-3.43 17.64,-3.54 21.35,-3.65 25.05,-3.76 25.53,-3.70 26.01,-3.63 26.45,-3.42 26.88,-3.20 27.23,-2.86 27.57,-2.52 27.79,-2.08 28.01,-1.65 28.08,-1.17 28.14,-0.69 28.05,-0.21 27.96,0.26 27.73,0.68 27.49,1.11 27.13,1.43 26.77,1.76 26.32,1.95 25.87,2.15 25.39,2.19 24.90,2.23 24.43,2.11 23.96,2.00 23.55,1.74 23.14,1.48 22.83,1.10 22.53,0.72 22.36,0.26 22.19,-0.18 22.18,-0.67 22.16,-1.15 22.30,-1.62 22.44,-2.08 22.73,-2.48 23.01,-2.88 23.40,-3.16 23.80,-3.45 24.26,-3.59 24.72,-3.73 25.21,-3.72 25.70,-3.71 26.15,-3.54 26.61,-3.38 26.99,-3.07 27.37,-2.77 27.63,-2.36 27.90,-1.95 28.02,-1.48 28.13,-1.01 28.10,-0.53 28.06,-0.04 27.87,0.40 27.68,0.84 27.35,1.21 27.03,1.57 26.61,1.81 26.18,2.05 25.71,2.14 25.23,2.24 25.23,2.24 25.23,2.24 21.53,2.35 17.83,2.46 14.29,2.57 10.76,2.68 7.62,2.77 4.49,2.87 2.26,2.21 0.04,1.56 -0.14,1.54 -0.32,1.52 -0.50,1.46 -0.68,1.40 -0.84,1.30 -1.00,1.20 -1.13,1.06 -1.25,0.92 -1.35,0.76 -1.44,0.59 -1.49,0.41 -1.54,0.23 -1.55,0.04 -1.55,-0.14 -1.51,-0.32 -1.47,-0.51 -1.39,-0.67 -1.31,-0.84 -1.19,-0.99 -1.07,-1.13 -0.91,-1.25 -0.76,-1.36 -0.59,-1.43 -0.41,-1.50 -0.23,-1.53 -0.04,-1.56 -0.04,-1.56 L -0.04,-1.56 Z"/></g><g transform="translate(456.07298767672023 562.5024203021358) rotate(0 17.62812088285574 -2.7833875078193273)" stroke="none"><path fill="#000000" d="M -0.26,-1.66 Q -0.26,-1.66 2.16,-2.71 4.59,-3.76 8.21,-4.33 11.82,-4.90 15.89,-5.55 19.95,-6.19 24.22,-6.86 28.48,-7.54 28.97,-7.53 29.45,-7.53 29.91,-7.37 30.37,-7.21 30.76,-6.92 31.14,-6.62 31.41,-6.22 31.68,-5.81 31.81,-5.34 31.94,-4.87 31.91,-4.39 31.88,-3.90 31.70,-3.45 31.51,-3.00 31.20,-2.63 30.88,-2.26 30.46,-2.02 30.04,-1.77 29.57,-1.67 29.09,-1.56 28.61,-1.62 28.13,-1.68 27.69,-1.88 27.25,-2.09 26.90,-2.43 26.55,-2.76 26.32,-3.19 26.10,-3.62 26.02,-4.10 25.94,-4.58 26.03,-5.06 26.11,-5.54 26.34,-5.97 26.57,-6.40 26.92,-6.73 27.28,-7.06 27.72,-7.27 28.16,-7.47 28.65,-7.52 29.13,-7.57 29.60,-7.46 30.08,-7.35 30.49,-7.10 30.91,-6.85 31.22,-6.47 31.53,-6.10 31.71,-5.65 31.89,-5.19 31.91,-4.71 31.93,-4.22 31.80,-3.76 31.67,-3.29 31.39,-2.89 31.12,-2.49 30.73,-2.19 30.34,-1.90 29.88,-1.75 29.42,-1.60 29.42,-1.60 29.42,-1.60 25.15,-0.93 20.89,-0.25 16.82,0.38 12.75,1.02 9.14,1.59 5.53,2.16 2.90,1.91 0.26,1.66 0.05,1.67 -0.14,1.68 -0.34,1.64 -0.54,1.60 -0.72,1.51 -0.90,1.42 -1.06,1.29 -1.22,1.16 -1.34,1.00 -1.46,0.83 -1.54,0.65 -1.62,0.46 -1.65,0.26 -1.68,0.06 -1.67,-0.14 -1.65,-0.34 -1.58,-0.53 -1.52,-0.73 -1.41,-0.90 -1.30,-1.07 -1.15,-1.21 -1.00,-1.35 -0.83,-1.45 -0.65,-1.55 -0.45,-1.61 -0.26,-1.66 -0.26,-1.66 L -0.26,-1.66 Z"/></g><g transform="translate(491.3292294424317 556.9356452864971) rotate(0 -4.870928138683837 -7.422366687518206)" stroke="none"><path fill="#000000" d="M -2.40,1.58 Q -2.40,1.58 -3.86,-0.51 -5.31,-2.61 -6.60,-4.59 -7.90,-6.56 -9.15,-8.47 -10.40,-10.37 -10.60,-10.82 -10.80,-11.26 -10.84,-11.75 -10.89,-12.23 -10.77,-12.70 -10.66,-13.18 -10.41,-13.59 -10.15,-14.00 -9.77,-14.31 -9.40,-14.62 -8.94,-14.79 -8.49,-14.97 -8.00,-14.99 -7.52,-15.00 -7.05,-14.87 -6.58,-14.73 -6.19,-14.45 -5.79,-14.17 -5.50,-13.78 -5.21,-13.39 -5.06,-12.93 -4.92,-12.46 -4.92,-11.98 -4.93,-11.49 -5.09,-11.03 -5.25,-10.57 -5.55,-10.19 -5.85,-9.81 -6.26,-9.54 -6.67,-9.28 -7.14,-9.15 -7.61,-9.03 -8.09,-9.06 -8.58,-9.10 -9.03,-9.28 -9.48,-9.47 -9.84,-9.79 -10.21,-10.11 -10.45,-10.53 -10.70,-10.95 -10.79,-11.43 -10.89,-11.91 -10.83,-12.39 -10.77,-12.87 -10.56,-13.31 -10.35,-13.75 -10.01,-14.09 -9.67,-14.44 -9.24,-14.66 -8.80,-14.88 -8.32,-14.96 -7.84,-15.03 -7.36,-14.94 -6.88,-14.86 -6.46,-14.62 -6.03,-14.39 -5.70,-14.03 -5.37,-13.67 -5.38,-13.67 -5.38,-13.67 -4.12,-11.77 -2.87,-9.86 -1.58,-7.89 -0.28,-5.91 1.06,-3.74 2.40,-1.58 2.56,-1.26 2.71,-0.95 2.79,-0.61 2.86,-0.28 2.85,0.06 2.85,0.41 2.76,0.74 2.66,1.08 2.50,1.38 2.33,1.69 2.09,1.94 1.85,2.20 1.56,2.39 1.27,2.58 0.95,2.69 0.62,2.81 0.27,2.84 -0.06,2.88 -0.41,2.83 -0.75,2.78 -1.07,2.64 -1.39,2.51 -1.67,2.31 -1.96,2.11 -2.18,1.84 -2.40,1.58 -2.40,1.58 L -2.40,1.58 Z"/></g><g transform="translate(481.58737316506404 542.0909119114607) rotate(0 -3.0153364668042286 -0.6958468769548176)" stroke="none"><path fill="#000000" d="M -0.52,2.27 Q -0.52,2.27 -2.88,2.07 -5.24,1.87 -5.69,1.68 -6.14,1.50 -6.51,1.18 -6.88,0.86 -7.12,0.44 -7.37,0.02 -7.47,-0.44 -7.57,-0.92 -7.51,-1.40 -7.46,-1.88 -7.25,-2.32 -7.04,-2.76 -6.70,-3.11 -6.36,-3.46 -5.93,-3.68 -5.50,-3.91 -5.02,-3.98 -4.54,-4.06 -4.06,-3.97 -3.58,-3.89 -3.15,-3.66 -2.72,-3.42 -2.39,-3.07 -2.06,-2.71 -1.86,-2.27 -1.66,-1.82 -1.62,-1.34 -1.57,-0.86 -1.68,-0.38 -1.79,0.08 -2.04,0.49 -2.30,0.91 -2.67,1.22 -3.05,1.53 -3.50,1.71 -3.95,1.88 -4.44,1.90 -4.92,1.92 -5.39,1.79 -5.86,1.65 -6.26,1.38 -6.66,1.10 -6.95,0.71 -7.24,0.32 -7.39,-0.13 -7.54,-0.59 -7.53,-1.08 -7.53,-1.57 -7.37,-2.03 -7.21,-2.49 -6.91,-2.87 -6.61,-3.25 -6.21,-3.52 -5.80,-3.79 -5.33,-3.92 -4.86,-4.04 -4.38,-4.01 -3.89,-3.98 -3.89,-3.98 -3.89,-3.98 -1.68,-3.12 0.52,-2.27 0.78,-2.17 1.05,-2.08 1.28,-1.92 1.52,-1.76 1.71,-1.56 1.90,-1.35 2.03,-1.10 2.16,-0.85 2.24,-0.58 2.31,-0.31 2.31,-0.03 2.31,0.24 2.25,0.52 2.19,0.79 2.06,1.04 1.93,1.29 1.75,1.50 1.57,1.72 1.34,1.88 1.11,2.04 0.85,2.15 0.59,2.25 0.31,2.29 0.03,2.33 -0.24,2.30 -0.52,2.27 -0.52,2.27 L -0.52,2.27 Z"/></g><g transform="translate(475.5567002314556 540.6992181575511) rotate(0 -9.509907318382716 -7.422366687518206)" stroke="none"><path fill="#000000" d="M -1.28,1.64 Q -1.28,1.64 -4.30,-0.12 -7.31,-1.89 -9.84,-3.87 -12.37,-5.84 -14.81,-7.75 -17.25,-9.65 -17.58,-10.01 -17.91,-10.37 -18.11,-10.81 -18.31,-11.26 -18.36,-11.74 -18.40,-12.22 -18.29,-12.70 -18.18,-13.17 -17.93,-13.58 -17.67,-14.00 -17.30,-14.31 -16.92,-14.62 -16.47,-14.79 -16.01,-14.97 -15.53,-14.99 -15.04,-15.01 -14.58,-14.87 -14.11,-14.73 -13.71,-14.46 -13.31,-14.18 -13.02,-13.79 -12.73,-13.40 -12.58,-12.93 -12.43,-12.47 -12.44,-11.98 -12.45,-11.50 -12.61,-11.04 -12.77,-10.58 -13.07,-10.20 -13.37,-9.81 -13.77,-9.55 -14.18,-9.28 -14.65,-9.15 -15.12,-9.03 -15.60,-9.06 -16.09,-9.10 -16.54,-9.28 -16.99,-9.47 -17.35,-9.79 -17.72,-10.11 -17.97,-10.53 -18.21,-10.95 -18.31,-11.42 -18.41,-11.90 -18.35,-12.38 -18.29,-12.86 -18.08,-13.30 -17.87,-13.74 -17.53,-14.09 -17.19,-14.44 -16.76,-14.66 -16.33,-14.88 -15.85,-14.95 -15.37,-15.03 -14.89,-14.94 -14.41,-14.86 -13.98,-14.62 -13.56,-14.39 -13.56,-14.39 -13.56,-14.39 -11.11,-12.49 -8.67,-10.58 -6.14,-8.61 -3.61,-6.63 -1.16,-4.14 1.28,-1.64 1.46,-1.46 1.64,-1.29 1.77,-1.07 1.90,-0.86 1.97,-0.62 2.05,-0.38 2.06,-0.12 2.08,0.12 2.04,0.37 1.99,0.61 1.89,0.84 1.78,1.07 1.63,1.27 1.47,1.47 1.28,1.63 1.08,1.78 0.85,1.88 0.62,1.99 0.37,2.03 0.12,2.08 -0.12,2.07 -0.37,2.05 -0.61,1.98 -0.85,1.90 -1.06,1.77 -1.28,1.64 -1.28,1.64 L -1.28,1.64 Z"/></g><g transform="translate(456.53688559469015 525.8544847825146) rotate(0 1.6236427128945934 0)" stroke="none"><path fill="#000000" d="M 0,-1.90 Q 0,-1.90 0.93,-2.45 1.86,-3.00 2.34,-2.92 2.82,-2.84 3.25,-2.62 3.68,-2.39 4.02,-2.03 4.35,-1.68 4.55,-1.24 4.76,-0.80 4.81,-0.32 4.86,0.16 4.76,0.63 4.65,1.11 4.40,1.52 4.15,1.94 3.78,2.26 3.41,2.57 2.96,2.75 2.51,2.93 2.02,2.96 1.54,2.98 1.07,2.85 0.60,2.72 0.20,2.45 -0.19,2.18 -0.49,1.79 -0.78,1.40 -0.94,0.94 -1.09,0.48 -1.09,-0.00 -1.09,-0.48 -0.94,-0.94 -0.78,-1.40 -0.49,-1.79 -0.19,-2.18 0.20,-2.45 0.60,-2.72 1.07,-2.85 1.54,-2.98 2.02,-2.96 2.51,-2.93 2.96,-2.75 3.41,-2.57 3.78,-2.25 4.15,-1.94 4.40,-1.52 4.65,-1.11 4.76,-0.63 4.86,-0.16 4.81,0.32 4.76,0.80 4.55,1.24 4.35,1.68 4.01,2.04 3.68,2.39 3.25,2.62 2.82,2.84 2.34,2.92 1.86,3.00 1.86,3.00 1.86,3.00 0.93,2.45 0,1.90 -0.22,1.88 -0.45,1.85 -0.67,1.77 -0.88,1.69 -1.07,1.56 -1.26,1.42 -1.41,1.25 -1.57,1.08 -1.67,0.88 -1.78,0.67 -1.84,0.45 -1.89,0.23 -1.89,-0.00 -1.89,-0.23 -1.84,-0.45 -1.78,-0.67 -1.67,-0.88 -1.57,-1.08 -1.41,-1.25 -1.26,-1.42 -1.07,-1.56 -0.88,-1.69 -0.67,-1.77 -0.45,-1.85 -0.22,-1.88 0.00,-1.90 0.00,-1.90 L 0,-1.90 Z"/></g><g transform="translate(459.78417102047933 525.8544847825146) rotate(0 3.9431323027440612 -0.4638979179699163)" stroke="none"><path fill="#000000" d="M -0.27,-2.32 Q -0.27,-2.32 2.67,-3.00 5.62,-3.68 6.11,-3.66 6.60,-3.64 7.05,-3.46 7.50,-3.29 7.88,-2.98 8.25,-2.66 8.50,-2.25 8.76,-1.84 8.87,-1.36 8.97,-0.89 8.93,-0.40 8.88,0.07 8.68,0.51 8.48,0.96 8.15,1.31 7.81,1.67 7.39,1.90 6.96,2.13 6.48,2.21 6.00,2.30 5.52,2.22 5.04,2.15 4.61,1.92 4.18,1.70 3.84,1.35 3.50,1.00 3.29,0.56 3.09,0.12 3.03,-0.35 2.97,-0.84 3.07,-1.31 3.17,-1.79 3.42,-2.21 3.67,-2.62 4.04,-2.94 4.40,-3.26 4.85,-3.44 5.30,-3.63 5.79,-3.66 6.27,-3.69 6.74,-3.56 7.21,-3.44 7.62,-3.17 8.02,-2.90 8.32,-2.51 8.62,-2.13 8.78,-1.67 8.94,-1.21 8.94,-0.72 8.94,-0.24 8.79,0.21 8.64,0.68 8.35,1.07 8.06,1.46 7.66,1.73 7.26,2.01 6.79,2.14 6.33,2.28 6.33,2.28 6.33,2.28 3.30,2.30 0.27,2.32 -0.00,2.32 -0.29,2.32 -0.56,2.25 -0.83,2.18 -1.08,2.05 -1.33,1.92 -1.54,1.73 -1.75,1.54 -1.91,1.31 -2.07,1.08 -2.17,0.81 -2.27,0.55 -2.30,0.27 -2.34,-0.00 -2.30,-0.28 -2.27,-0.56 -2.17,-0.83 -2.07,-1.09 -1.90,-1.32 -1.74,-1.56 -1.53,-1.74 -1.32,-1.93 -1.07,-2.06 -0.82,-2.19 -0.54,-2.26 -0.27,-2.32 -0.27,-2.32 L -0.27,-2.32 Z"/></g><g transform="translate(467.67043562596746 524.9266889465748) rotate(0 -0.6958468769548176 0.4638979179699163)" stroke="none"><path fill="#000000" d="M 0.86,3.03 Q 0.86,3.03 0.42,3.23 -0.01,3.43 -0.50,3.48 -0.98,3.53 -1.46,3.42 -1.93,3.31 -2.34,3.06 -2.76,2.80 -3.07,2.43 -3.38,2.06 -3.56,1.60 -3.74,1.15 -3.76,0.67 -3.78,0.18 -3.65,-0.28 -3.51,-0.74 -3.24,-1.15 -2.96,-1.55 -2.57,-1.84 -2.18,-2.13 -1.72,-2.28 -1.26,-2.43 -0.77,-2.43 -0.29,-2.42 0.16,-2.26 0.62,-2.11 1.01,-1.81 1.39,-1.51 1.66,-1.11 1.93,-0.70 2.06,-0.23 2.18,0.23 2.15,0.71 2.12,1.20 1.94,1.65 1.76,2.10 1.44,2.47 1.12,2.83 0.70,3.08 0.28,3.33 -0.18,3.43 -0.66,3.53 -1.14,3.47 -1.62,3.42 -2.06,3.21 -2.50,3.00 -2.85,2.66 -3.20,2.33 -3.43,1.90 -3.65,1.47 -3.73,0.98 -3.80,0.50 -3.72,0.03 -3.64,-0.44 -3.40,-0.87 -3.17,-1.30 -2.82,-1.63 -2.46,-1.96 -2.46,-1.96 -2.46,-1.96 -2.19,-2.23 -1.92,-2.50 -1.59,-2.69 -1.27,-2.88 -0.90,-2.99 -0.54,-3.10 -0.16,-3.12 0.21,-3.14 0.59,-3.07 0.96,-3.00 1.30,-2.84 1.65,-2.68 1.95,-2.44 2.25,-2.21 2.48,-1.91 2.71,-1.60 2.86,-1.26 3.02,-0.91 3.08,-0.53 3.15,-0.16 3.12,0.21 3.09,0.59 2.98,0.95 2.86,1.31 2.66,1.64 2.46,1.96 1.66,2.50 L 0.86,3.03 Z"/></g><g transform="translate(466.2787418720578 525.8544847825146) rotate(0 2.551438548834369 -0.23194895898495815)" stroke="none"><path fill="#000000" d="M -0.13,-1.49 Q -0.13,-1.49 1.73,-2.41 3.59,-3.34 4.08,-3.30 4.56,-3.27 5.01,-3.08 5.46,-2.89 5.82,-2.57 6.19,-2.25 6.43,-1.83 6.68,-1.41 6.77,-0.93 6.87,-0.46 6.81,0.02 6.75,0.50 6.53,0.94 6.32,1.37 5.98,1.72 5.64,2.07 5.21,2.29 4.77,2.51 4.29,2.58 3.81,2.65 3.33,2.56 2.85,2.47 2.43,2.24 2.00,2.00 1.68,1.64 1.35,1.29 1.15,0.84 0.95,0.40 0.91,-0.08 0.87,-0.56 0.98,-1.04 1.09,-1.51 1.35,-1.92 1.61,-2.33 1.99,-2.64 2.36,-2.95 2.82,-3.12 3.27,-3.29 3.76,-3.31 4.24,-3.33 4.71,-3.19 5.17,-3.05 5.57,-2.77 5.97,-2.49 6.26,-2.10 6.54,-1.71 6.69,-1.24 6.84,-0.78 6.83,-0.29 6.82,0.18 6.66,0.64 6.49,1.10 6.19,1.48 5.89,1.86 5.48,2.13 5.08,2.39 4.61,2.51 4.14,2.64 4.14,2.64 4.14,2.64 2.13,2.06 0.13,1.49 -0.04,1.48 -0.22,1.48 -0.39,1.43 -0.57,1.38 -0.73,1.29 -0.88,1.20 -1.01,1.08 -1.15,0.95 -1.24,0.80 -1.34,0.65 -1.40,0.48 -1.46,0.31 -1.48,0.13 -1.49,-0.04 -1.47,-0.22 -1.44,-0.40 -1.37,-0.56 -1.30,-0.73 -1.19,-0.88 -1.09,-1.02 -0.95,-1.14 -0.81,-1.25 -0.65,-1.33 -0.48,-1.41 -0.31,-1.45 -0.13,-1.49 -0.13,-1.49 L -0.13,-1.49 Z"/></g><g transform="translate(471.38161896972656 525.3905868645447) rotate(0 0.23194895898495815 -1.3916937539096352)" stroke="none"><path fill="#000000" d="M -1.91,-0.31 Q -1.91,-0.31 -2.30,-1.20 -2.69,-2.09 -2.54,-2.55 -2.38,-3.01 -2.08,-3.40 -1.79,-3.78 -1.39,-4.05 -0.98,-4.33 -0.51,-4.46 -0.05,-4.58 0.43,-4.56 0.92,-4.53 1.37,-4.35 1.82,-4.17 2.19,-3.85 2.56,-3.53 2.81,-3.12 3.06,-2.70 3.16,-2.23 3.26,-1.75 3.21,-1.27 3.16,-0.78 2.95,-0.34 2.74,0.09 2.41,0.44 2.07,0.79 1.64,1.02 1.21,1.25 0.73,1.32 0.25,1.40 -0.22,1.32 -0.70,1.24 -1.12,1.01 -1.55,0.78 -1.89,0.43 -2.22,0.07 -2.42,-0.36 -2.63,-0.80 -2.68,-1.28 -2.73,-1.77 -2.62,-2.24 -2.52,-2.72 -2.26,-3.13 -2.01,-3.55 -1.64,-3.86 -1.27,-4.17 -0.82,-4.35 -0.37,-4.53 0.11,-4.56 0.60,-4.58 1.06,-4.45 1.53,-4.32 1.93,-4.05 2.33,-3.77 2.63,-3.38 2.92,-3.00 3.07,-2.53 3.23,-2.07 3.23,-1.59 3.23,-1.10 3.23,-1.10 3.23,-1.10 2.57,-0.39 1.91,0.31 1.84,0.54 1.78,0.76 1.66,0.97 1.54,1.17 1.38,1.34 1.22,1.50 1.02,1.63 0.82,1.75 0.60,1.83 0.38,1.90 0.14,1.92 -0.08,1.93 -0.31,1.90 -0.54,1.86 -0.76,1.76 -0.97,1.67 -1.16,1.53 -1.35,1.39 -1.49,1.21 -1.64,1.03 -1.74,0.81 -1.84,0.60 -1.88,0.37 -1.93,0.14 -1.92,-0.08 -1.91,-0.31 -1.91,-0.31 L -1.91,-0.31 Z"/></g><g transform="translate(471.8455168876965 522.6071993567255) rotate(0 0.6958468769548176 -3.9431323027440612)" stroke="none"><path fill="#000000" d="M -1.83,-0.32 Q -1.83,-0.32 -1.86,-3.41 -1.90,-6.50 -1.74,-6.96 -1.58,-7.41 -1.28,-7.80 -0.98,-8.18 -0.57,-8.45 -0.17,-8.72 0.29,-8.84 0.76,-8.97 1.25,-8.93 1.73,-8.90 2.18,-8.72 2.63,-8.53 3.00,-8.21 3.36,-7.89 3.61,-7.47 3.86,-7.05 3.95,-6.58 4.05,-6.10 3.99,-5.62 3.94,-5.14 3.73,-4.70 3.52,-4.26 3.18,-3.91 2.84,-3.56 2.41,-3.34 1.97,-3.12 1.49,-3.04 1.01,-2.97 0.53,-3.05 0.06,-3.14 -0.36,-3.37 -0.79,-3.61 -1.12,-3.96 -1.45,-4.32 -1.65,-4.76 -1.85,-5.21 -1.89,-5.69 -1.94,-6.17 -1.83,-6.65 -1.72,-7.12 -1.46,-7.54 -1.21,-7.95 -0.83,-8.26 -0.46,-8.57 -0.00,-8.74 0.44,-8.92 0.93,-8.94 1.41,-8.96 1.88,-8.82 2.35,-8.69 2.74,-8.41 3.14,-8.13 3.43,-7.74 3.72,-7.35 3.87,-6.89 4.02,-6.42 4.02,-5.94 4.01,-5.45 4.01,-5.45 4.01,-5.45 2.92,-2.56 1.83,0.32 1.76,0.53 1.70,0.75 1.58,0.94 1.47,1.13 1.31,1.29 1.15,1.45 0.96,1.57 0.77,1.69 0.56,1.75 0.34,1.82 0.12,1.84 -0.10,1.85 -0.32,1.81 -0.54,1.77 -0.74,1.68 -0.95,1.59 -1.12,1.46 -1.30,1.32 -1.44,1.14 -1.58,0.97 -1.67,0.76 -1.77,0.56 -1.81,0.34 -1.85,0.12 -1.84,-0.09 -1.83,-0.32 -1.83,-0.32 L -1.83,-0.32 Z"/></g><g transform="translate(473.2372106416061 514.7209347512373) rotate(0 -0.6958468769548176 -5.566775015638655)" stroke="none"><path fill="#000000" d="M -2.41,0.30 Q -2.41,0.30 -2.89,-1.26 -3.38,-2.82 -3.74,-5.73 -4.10,-8.64 -4.09,-9.13 -4.07,-9.61 -3.89,-10.07 -3.72,-10.52 -3.41,-10.90 -3.10,-11.27 -2.69,-11.53 -2.28,-11.79 -1.81,-11.90 -1.33,-12.01 -0.85,-11.97 -0.36,-11.92 0.07,-11.73 0.51,-11.53 0.87,-11.20 1.23,-10.87 1.47,-10.45 1.70,-10.02 1.79,-9.54 1.87,-9.06 1.80,-8.58 1.73,-8.10 1.51,-7.67 1.29,-7.24 0.94,-6.90 0.59,-6.56 0.16,-6.34 -0.27,-6.13 -0.76,-6.07 -1.24,-6.01 -1.71,-6.11 -2.19,-6.21 -2.61,-6.45 -3.03,-6.69 -3.35,-7.06 -3.67,-7.43 -3.86,-7.87 -4.05,-8.32 -4.08,-8.81 -4.11,-9.29 -3.99,-9.76 -3.87,-10.23 -3.60,-10.64 -3.34,-11.05 -2.95,-11.35 -2.57,-11.65 -2.11,-11.81 -1.66,-11.97 -1.17,-11.98 -0.68,-11.99 -0.22,-11.84 0.23,-11.69 0.62,-11.40 1.02,-11.12 1.30,-10.72 1.57,-10.32 1.71,-9.85 1.85,-9.39 1.85,-9.39 1.85,-9.39 2.21,-6.48 2.58,-3.57 2.49,-1.93 2.41,-0.30 2.41,-0.00 2.41,0.28 2.34,0.56 2.27,0.85 2.14,1.11 2.00,1.37 1.81,1.59 1.61,1.81 1.37,1.98 1.13,2.15 0.86,2.25 0.59,2.36 0.29,2.39 0.00,2.43 -0.28,2.39 -0.57,2.36 -0.84,2.26 -1.12,2.15 -1.36,1.99 -1.60,1.82 -1.80,1.60 -1.99,1.38 -2.13,1.12 -2.27,0.87 -2.34,0.58 -2.41,0.30 -2.41,0.30 L -2.41,0.30 Z"/></g><g transform="translate(471.8455168876965 503.58738471996) rotate(0 81.64603356270015 4.638979179698879)" stroke="none"><path fill="#000000" d="M 0.12,-2.20 Q 0.12,-2.20 11.88,-1.93 23.64,-1.66 40.36,-0.71 57.09,0.23 75.93,1.30 94.78,2.37 114.52,3.49 134.27,4.61 134.74,4.72 135.22,4.83 135.63,5.08 136.05,5.33 136.36,5.70 136.68,6.07 136.86,6.52 137.03,6.98 137.06,7.46 137.08,7.95 136.95,8.42 136.82,8.88 136.55,9.29 136.27,9.69 135.89,9.98 135.50,10.27 135.04,10.43 134.58,10.58 134.09,10.58 133.60,10.58 133.14,10.42 132.68,10.27 132.30,9.97 131.91,9.68 131.64,9.27 131.37,8.87 131.24,8.40 131.11,7.93 131.14,7.45 131.16,6.96 131.35,6.51 131.53,6.06 131.84,5.69 132.16,5.32 132.58,5.07 132.99,4.82 133.47,4.72 133.94,4.61 134.43,4.67 134.91,4.72 135.35,4.93 135.79,5.13 136.14,5.47 136.50,5.80 136.72,6.23 136.95,6.66 137.03,7.14 137.10,7.62 137.02,8.10 136.94,8.58 136.71,9.01 136.49,9.44 136.13,9.77 135.78,10.11 135.34,10.31 134.89,10.51 134.41,10.56 133.93,10.61 133.93,10.61 133.93,10.61 114.18,9.49 94.44,8.37 75.59,7.30 56.75,6.23 40.02,5.28 23.30,4.33 11.58,3.26 -0.12,2.20 -0.38,2.15 -0.64,2.10 -0.89,1.99 -1.13,1.89 -1.34,1.72 -1.55,1.56 -1.71,1.35 -1.88,1.14 -1.99,0.90 -2.10,0.66 -2.15,0.40 -2.19,0.14 -2.18,-0.12 -2.16,-0.38 -2.09,-0.64 -2.01,-0.89 -1.87,-1.12 -1.73,-1.35 -1.55,-1.54 -1.36,-1.73 -1.13,-1.86 -0.91,-2.00 -0.65,-2.08 -0.40,-2.16 -0.13,-2.18 0.12,-2.20 0.12,-2.20 L 0.12,-2.20 Z"/></g><g transform="translate(635.1375840130968 512.8653430793578) rotate(0 -151.69461917615317 -247.25759027794993)" stroke="none"><path fill="#000000" d="M -1.97,1.21 Q -1.97,1.21 -24.07,-34.15 -46.17,-69.51 -77.24,-120.16 -108.32,-170.81 -143.33,-227.88 -178.34,-284.95 -215.03,-344.74 -251.71,-404.54 -251.90,-404.99 -252.08,-405.44 -252.11,-405.93 -252.14,-406.41 -252.02,-406.88 -251.89,-407.35 -251.62,-407.76 -251.35,-408.16 -250.97,-408.46 -250.58,-408.76 -250.12,-408.92 -249.66,-409.07 -249.18,-409.08 -248.69,-409.08 -248.23,-408.93 -247.77,-408.78 -247.38,-408.49 -246.99,-408.20 -246.71,-407.80 -246.44,-407.40 -246.30,-406.93 -246.17,-406.46 -246.19,-405.98 -246.21,-405.49 -246.39,-405.04 -246.56,-404.59 -246.88,-404.21 -247.19,-403.84 -247.60,-403.59 -248.02,-403.33 -248.49,-403.22 -248.96,-403.11 -249.45,-403.16 -249.93,-403.21 -250.37,-403.41 -250.82,-403.61 -251.17,-403.94 -251.53,-404.27 -251.76,-404.70 -251.99,-405.13 -252.07,-405.61 -252.16,-406.09 -252.08,-406.57 -252.01,-407.05 -251.78,-407.48 -251.56,-407.91 -251.21,-408.25 -250.86,-408.59 -250.42,-408.79 -249.98,-409.00 -249.50,-409.06 -249.01,-409.12 -248.54,-409.02 -248.06,-408.91 -247.64,-408.67 -247.23,-408.42 -246.91,-408.05 -246.59,-407.68 -246.59,-407.68 -246.59,-407.69 -209.90,-347.89 -173.22,-288.09 -138.21,-231.02 -103.19,-173.95 -72.12,-123.30 -41.05,-72.65 -19.53,-36.93 1.97,-1.21 2.09,-0.95 2.20,-0.70 2.25,-0.42 2.31,-0.15 2.29,0.12 2.28,0.40 2.19,0.66 2.11,0.93 1.97,1.17 1.83,1.41 1.63,1.61 1.44,1.81 1.20,1.96 0.96,2.10 0.69,2.19 0.43,2.27 0.15,2.29 -0.12,2.31 -0.39,2.26 -0.67,2.21 -0.93,2.10 -1.18,1.99 -1.40,1.81 -1.62,1.64 -1.80,1.42 -1.97,1.21 -1.97,1.21 L -1.97,1.21 Z"/></g><g transform="translate(331.74834566079045 18.350162523457925) rotate(0 -0.9277958359397473 0.9277958359397758)" stroke="none"><path fill="#000000" d="M 1.05,1.05 Q 1.05,1.05 1.05,2.12 1.05,3.19 0.66,3.47 0.26,3.75 -0.19,3.90 -0.66,4.04 -1.14,4.03 -1.63,4.01 -2.08,3.85 -2.54,3.68 -2.92,3.37 -3.30,3.07 -3.56,2.66 -3.82,2.25 -3.94,1.78 -4.06,1.31 -4.02,0.82 -3.98,0.34 -3.79,-0.10 -3.59,-0.55 -3.27,-0.91 -2.94,-1.27 -2.52,-1.51 -2.10,-1.75 -1.62,-1.84 -1.14,-1.93 -0.66,-1.87 -0.18,-1.80 0.25,-1.58 0.68,-1.37 1.03,-1.02 1.37,-0.68 1.59,-0.25 1.80,0.18 1.87,0.66 1.93,1.14 1.84,1.62 1.75,2.10 1.51,2.52 1.27,2.95 0.91,3.27 0.55,3.59 0.10,3.79 -0.34,3.98 -0.82,4.02 -1.31,4.06 -1.78,3.94 -2.25,3.82 -2.66,3.56 -3.07,3.30 -3.37,2.92 -3.68,2.54 -3.85,2.08 -4.01,1.63 -4.03,1.14 -4.04,0.66 -3.90,0.19 -3.75,-0.26 -3.47,-0.66 -3.19,-1.05 -3.19,-1.05 -3.19,-1.05 -2.12,-1.05 -1.05,-1.05 -0.91,-1.17 -0.77,-1.28 -0.61,-1.35 -0.44,-1.43 -0.26,-1.46 -0.09,-1.49 0.08,-1.48 0.27,-1.47 0.44,-1.41 0.61,-1.36 0.76,-1.27 0.92,-1.17 1.05,-1.05 1.17,-0.92 1.27,-0.76 1.36,-0.61 1.41,-0.44 1.47,-0.26 1.48,-0.08 1.49,0.09 1.46,0.26 1.43,0.44 1.35,0.61 1.28,0.77 1.17,0.91 1.05,1.05 1.05,1.05 L 1.05,1.05 Z"/></g><g transform="translate(329.89275398891095 20.205754195337477) rotate(0 6.030672933608514 -5.102877097668738)" stroke="none"><path fill="#000000" d="M -1.08,-1.28 Q -1.08,-1.28 0.22,-3.25 1.52,-5.22 3.13,-6.58 4.73,-7.94 6.28,-9.25 7.83,-10.56 8.24,-10.81 8.66,-11.06 9.14,-11.16 9.61,-11.26 10.09,-11.21 10.58,-11.16 11.02,-10.95 11.46,-10.75 11.81,-10.41 12.16,-10.08 12.39,-9.65 12.62,-9.22 12.69,-8.74 12.77,-8.26 12.69,-7.78 12.61,-7.30 12.38,-6.87 12.16,-6.44 11.80,-6.11 11.45,-5.77 11.01,-5.57 10.57,-5.37 10.08,-5.31 9.60,-5.26 9.12,-5.37 8.65,-5.47 8.23,-5.73 7.82,-5.98 7.50,-6.35 7.19,-6.72 7.01,-7.17 6.83,-7.62 6.81,-8.11 6.78,-8.59 6.91,-9.06 7.04,-9.53 7.32,-9.93 7.59,-10.34 7.98,-10.63 8.37,-10.92 8.83,-11.08 9.29,-11.23 9.77,-11.23 10.26,-11.23 10.72,-11.07 11.18,-10.92 11.57,-10.62 11.95,-10.33 12.23,-9.92 12.50,-9.52 12.63,-9.05 12.76,-8.58 12.73,-8.10 12.70,-7.61 12.52,-7.16 12.34,-6.71 12.02,-6.34 11.71,-5.97 11.71,-5.97 11.71,-5.97 10.16,-4.66 8.61,-3.35 7.01,-1.99 5.40,-0.64 3.24,0.32 1.08,1.28 0.91,1.39 0.74,1.50 0.55,1.57 0.36,1.63 0.16,1.65 -0.03,1.67 -0.23,1.64 -0.43,1.62 -0.62,1.54 -0.81,1.46 -0.97,1.35 -1.14,1.23 -1.27,1.07 -1.40,0.92 -1.49,0.74 -1.58,0.55 -1.62,0.36 -1.67,0.16 -1.66,-0.03 -1.66,-0.24 -1.60,-0.43 -1.55,-0.63 -1.45,-0.80 -1.35,-0.98 -1.22,-1.13 -1.08,-1.28 -1.08,-1.28 L -1.08,-1.28 Z"/></g><g transform="translate(341.954099856128 10) rotate(0 0.23194895898495815 3.479234384774145)" stroke="none"><path fill="#000000" d="M 1.73,-0.11 Q 1.73,-0.11 2.54,2.48 3.35,5.07 3.30,5.56 3.25,6.04 3.05,6.48 2.85,6.93 2.52,7.28 2.19,7.64 1.77,7.87 1.34,8.11 0.86,8.19 0.38,8.28 -0.09,8.20 -0.57,8.13 -1.00,7.91 -1.43,7.69 -1.77,7.34 -2.11,6.99 -2.32,6.55 -2.53,6.11 -2.59,5.63 -2.65,5.15 -2.55,4.67 -2.45,4.19 -2.20,3.77 -1.96,3.35 -1.59,3.03 -1.22,2.72 -0.77,2.53 -0.33,2.34 0.15,2.31 0.64,2.28 1.11,2.40 1.58,2.53 1.98,2.80 2.39,3.06 2.69,3.45 2.98,3.83 3.15,4.29 3.31,4.75 3.31,5.24 3.32,5.72 3.17,6.18 3.02,6.65 2.73,7.04 2.44,7.43 2.04,7.71 1.64,7.98 1.17,8.12 0.71,8.25 0.22,8.23 -0.25,8.21 -0.71,8.04 -1.16,7.87 -1.54,7.55 -1.91,7.24 -2.17,6.83 -2.42,6.42 -2.53,5.94 -2.64,5.47 -2.64,5.47 -2.64,5.47 -2.19,2.79 -1.73,0.11 -1.72,-0.09 -1.71,-0.30 -1.65,-0.50 -1.59,-0.70 -1.48,-0.88 -1.37,-1.06 -1.23,-1.21 -1.08,-1.36 -0.90,-1.47 -0.72,-1.58 -0.52,-1.64 -0.32,-1.71 -0.11,-1.72 0.09,-1.74 0.30,-1.70 0.50,-1.66 0.70,-1.58 0.89,-1.49 1.05,-1.36 1.22,-1.24 1.35,-1.07 1.48,-0.91 1.57,-0.71 1.66,-0.52 1.70,-0.32 1.73,-0.11 1.73,-0.11 L 1.73,-0.11 Z"/></g><g transform="translate(342.4179977740979 16.95846876954829) rotate(0 -1.159744794924734 -0.46389791796985946)" stroke="none"><path fill="#000000" d="M -0.67,1.68 Q -0.67,1.68 -1.56,1.96 -2.44,2.25 -2.86,2.00 -3.28,1.75 -3.59,1.38 -3.91,1.01 -4.09,0.56 -4.26,0.10 -4.29,-0.37 -4.32,-0.86 -4.19,-1.33 -4.05,-1.79 -3.78,-2.20 -3.51,-2.60 -3.12,-2.89 -2.73,-3.19 -2.27,-3.34 -1.81,-3.49 -1.32,-3.49 -0.84,-3.49 -0.38,-3.34 0.07,-3.18 0.46,-2.89 0.85,-2.59 1.12,-2.19 1.39,-1.79 1.52,-1.32 1.65,-0.85 1.62,-0.36 1.60,0.11 1.41,0.56 1.23,1.01 0.92,1.38 0.60,1.75 0.19,2.00 -0.22,2.25 -0.70,2.36 -1.17,2.46 -1.65,2.41 -2.14,2.36 -2.58,2.15 -3.02,1.95 -3.37,1.61 -3.72,1.28 -3.95,0.85 -4.18,0.42 -4.26,-0.05 -4.33,-0.53 -4.25,-1.01 -4.18,-1.49 -3.95,-1.92 -3.72,-2.35 -3.36,-2.68 -3.01,-3.02 -2.57,-3.22 -2.13,-3.43 -1.64,-3.48 -1.16,-3.53 -0.69,-3.42 -0.21,-3.32 -0.21,-3.32 -0.21,-3.32 0.22,-2.50 0.67,-1.68 0.86,-1.57 1.05,-1.47 1.21,-1.32 1.37,-1.17 1.49,-0.99 1.61,-0.81 1.69,-0.60 1.76,-0.40 1.78,-0.18 1.81,0.03 1.78,0.24 1.75,0.46 1.66,0.66 1.58,0.87 1.46,1.04 1.33,1.22 1.16,1.36 1.00,1.50 0.80,1.60 0.61,1.70 0.39,1.75 0.18,1.80 -0.03,1.79 -0.25,1.79 -0.46,1.73 -0.67,1.68 -0.67,1.68 L -0.67,1.68 Z"/></g><g transform="translate(340.09850818424843 16.03067293360857) rotate(0 -0.4638979179698879 1.6236427128945934)" stroke="none"><path fill="#000000" d="M 1.27,0.36 Q 1.27,0.36 1.81,1.52 2.35,2.69 2.14,3.13 1.94,3.57 1.60,3.92 1.26,4.27 0.83,4.49 0.40,4.72 -0.07,4.79 -0.55,4.87 -1.03,4.79 -1.51,4.70 -1.94,4.47 -2.37,4.24 -2.70,3.89 -3.03,3.53 -3.23,3.09 -3.43,2.64 -3.48,2.16 -3.53,1.68 -3.42,1.20 -3.31,0.73 -3.06,0.31 -2.80,-0.09 -2.43,-0.40 -2.06,-0.71 -1.61,-0.89 -1.15,-1.07 -0.67,-1.09 -0.18,-1.11 0.28,-0.98 0.74,-0.85 1.14,-0.57 1.54,-0.29 1.84,0.09 2.13,0.47 2.28,0.94 2.43,1.40 2.43,1.88 2.42,2.37 2.26,2.83 2.11,3.29 1.81,3.67 1.51,4.06 1.11,4.33 0.70,4.60 0.23,4.73 -0.23,4.85 -0.71,4.82 -1.20,4.79 -1.65,4.61 -2.10,4.43 -2.47,4.11 -2.83,3.79 -3.08,3.37 -3.33,2.95 -3.43,2.48 -3.53,2.00 -3.47,1.52 -3.42,1.04 -3.42,1.04 -3.42,1.04 -2.34,0.33 -1.27,-0.36 -1.21,-0.51 -1.14,-0.65 -1.05,-0.78 -0.95,-0.91 -0.83,-1.01 -0.71,-1.11 -0.56,-1.18 -0.42,-1.25 -0.26,-1.28 -0.11,-1.31 0.04,-1.31 0.20,-1.30 0.36,-1.26 0.51,-1.22 0.65,-1.14 0.79,-1.06 0.90,-0.95 1.02,-0.84 1.10,-0.70 1.19,-0.57 1.24,-0.42 1.29,-0.26 1.31,-0.11 1.32,0.04 1.29,0.20 1.27,0.36 1.27,0.36 L 1.27,0.36 Z"/></g><g transform="translate(339.17071234830865 19.277958359397758) rotate(0 0.4638979179698879 -3.2472854257892436)" stroke="none"><path fill="#000000" d="M -1.41,-0.20 Q -1.41,-0.20 -1.84,-2.77 -2.27,-5.34 -2.12,-5.81 -1.98,-6.27 -1.69,-6.67 -1.40,-7.06 -1.01,-7.34 -0.61,-7.62 -0.14,-7.76 0.31,-7.90 0.80,-7.88 1.28,-7.87 1.74,-7.70 2.19,-7.53 2.57,-7.22 2.95,-6.91 3.21,-6.50 3.47,-6.09 3.58,-5.62 3.70,-5.14 3.65,-4.66 3.61,-4.18 3.41,-3.73 3.22,-3.28 2.89,-2.92 2.57,-2.57 2.14,-2.33 1.72,-2.09 1.24,-2.00 0.76,-1.92 0.28,-1.98 -0.19,-2.05 -0.63,-2.27 -1.06,-2.49 -1.40,-2.84 -1.74,-3.18 -1.96,-3.62 -2.17,-4.06 -2.23,-4.54 -2.29,-5.02 -2.20,-5.50 -2.11,-5.97 -1.86,-6.40 -1.62,-6.82 -1.26,-7.14 -0.89,-7.46 -0.45,-7.65 -0.00,-7.84 0.48,-7.88 0.96,-7.91 1.43,-7.79 1.90,-7.67 2.31,-7.41 2.72,-7.14 3.02,-6.76 3.32,-6.38 3.49,-5.92 3.65,-5.47 3.66,-4.98 3.67,-4.49 3.67,-4.49 3.67,-4.49 2.54,-2.14 1.41,0.20 1.36,0.36 1.32,0.53 1.23,0.68 1.15,0.83 1.03,0.95 0.92,1.08 0.77,1.18 0.63,1.27 0.47,1.33 0.31,1.38 0.14,1.40 -0.03,1.42 -0.20,1.39 -0.37,1.37 -0.52,1.31 -0.68,1.24 -0.82,1.14 -0.96,1.04 -1.07,0.91 -1.18,0.78 -1.26,0.63 -1.34,0.47 -1.37,0.30 -1.41,0.14 -1.41,-0.02 -1.41,-0.20 -1.41,-0.20 L -1.41,-0.20 Z"/></g></svg>