<svg version="1.1" xmlns="http://www.w3.org/2000/svg" viewBox="0 0 180 251" width="360" height="502">
  <!-- svg-source:excalidraw -->
  
  <defs>
    <style>
      @font-face {
        font-family: "Virgil";
        src: url("https://unpkg.com/@zsviczian/excalidraw@0.11.0-obsidian-18/dist/excalidraw-assets/Virgil.woff2");
      }
      @font-face {
        font-family: "Cascadia";
        src: url("https://unpkg.com/@zsviczian/excalidraw@0.11.0-obsidian-18/dist/excalidraw-assets/Cascadia.woff2");
      }
    </style>
  </defs>
  <rect x="0" y="0" width="180" height="251" fill="#ffffff"/><g transform="translate(170 10) rotate(0 -80 115.5)" stroke="none"><path fill="#000000" d="M 1.06,0.76 Q 1.06,0.76 -0.36,2.77 -1.80,4.78 -12.50,17.75 -23.20,30.72 -33.19,43.39 -43.18,56.06 -50.58,66.03 -57.98,76.01 -64.29,84.57 -70.61,93.12 -78.73,105.92 -86.85,118.72 -95.19,131.94 -103.54,145.16 -111.40,157.67 -119.26,170.19 -125.18,180.10 -131.10,190.00 -135.63,197.67 -140.16,205.33 -143.54,210.62 -146.92,215.91 -149.53,219.34 -152.14,222.78 -153.82,224.82 -155.51,226.85 -156.48,228.24 -157.44,229.63 -157.59,229.78 -157.74,229.93 -157.93,230.03 -158.12,230.13 -158.33,230.16 -158.54,230.19 -158.75,230.15 -158.96,230.12 -159.14,230.02 -159.33,229.91 -159.47,229.76 -159.62,229.60 -159.70,229.41 -159.79,229.21 -159.81,229.00 -159.83,228.79 -159.78,228.58 -159.73,228.38 -159.62,228.20 -159.51,228.02 -159.35,227.88 -159.18,227.74 -158.98,227.67 -158.79,227.59 -158.57,227.58 -158.36,227.57 -158.16,227.63 -157.95,227.69 -157.78,227.82 -157.60,227.94 -157.48,228.11 -157.35,228.28 -157.29,228.48 -157.22,228.68 -157.22,228.90 -157.23,229.11 -157.30,229.31 -157.37,229.51 -157.50,229.68 -157.63,229.84 -157.81,229.96 -157.98,230.08 -158.19,230.13 -158.40,230.19 -158.61,230.17 -158.82,230.16 -159.02,230.08 -159.21,229.99 -159.37,229.86 -159.53,229.72 -159.64,229.53 -159.75,229.35 -159.79,229.14 -159.83,228.93 -159.81,228.72 -159.78,228.51 -159.69,228.32 -159.60,228.13 -159.60,228.13 -159.60,228.13 -158.57,226.65 -157.54,225.18 -155.88,223.18 -154.23,221.19 -151.68,217.84 -149.13,214.50 -145.78,209.25 -142.43,203.99 -137.89,196.33 -133.36,188.66 -127.42,178.72 -121.49,168.79 -113.62,156.27 -105.76,143.75 -97.41,130.53 -89.06,117.31 -80.89,104.44 -72.72,91.56 -66.41,83.00 -60.09,74.44 -52.67,64.44 -45.25,54.43 -35.24,41.74 -25.23,29.04 -14.58,16.15 -3.94,3.26 -2.50,1.24 -1.06,-0.76 -0.96,-0.88 -0.85,-0.99 -0.72,-1.08 -0.59,-1.17 -0.44,-1.22 -0.29,-1.28 -0.13,-1.29 0.02,-1.31 0.17,-1.29 0.33,-1.26 0.48,-1.21 0.62,-1.15 0.75,-1.06 0.88,-0.96 0.98,-0.84 1.09,-0.72 1.16,-0.58 1.23,-0.44 1.27,-0.29 1.30,-0.13 1.30,0.02 1.30,0.17 1.26,0.33 1.22,0.48 1.14,0.62 1.06,0.76 1.06,0.76 L 1.06,0.76 Z"/></g></svg>