<svg version="1.1" xmlns="http://www.w3.org/2000/svg" viewBox="0 0 156 237" width="312" height="474">
  <!-- svg-source:excalidraw -->
  
  <defs>
    <style>
      @font-face {
        font-family: "Virgil";
        src: url("https://unpkg.com/@zsviczian/excalidraw@0.11.0-obsidian-18/dist/excalidraw-assets/Virgil.woff2");
      }
      @font-face {
        font-family: "Cascadia";
        src: url("https://unpkg.com/@zsviczian/excalidraw@0.11.0-obsidian-18/dist/excalidraw-assets/Cascadia.woff2");
      }
    </style>
  </defs>
  <rect x="0" y="0" width="156" height="237" fill="#ffffff"/><g transform="translate(146 10) rotate(0 -68 108.5)" stroke="none"><path fill="#000000" d="M 0.24,1.59 Q 0.24,1.59 -3.49,2.17 -7.22,2.74 -9.80,3.65 -12.39,4.57 -14.76,6.19 -17.13,7.81 -19.25,10.15 -21.37,12.49 -23.75,15.74 -26.12,18.98 -32.62,30.08 -39.12,41.18 -43.90,49.39 -48.68,57.60 -55.05,68.82 -61.43,80.04 -68.71,92.04 -75.99,104.05 -82.80,115.47 -89.62,126.88 -97.12,139.78 -104.61,152.68 -108.94,160.45 -113.27,168.22 -117.12,175.54 -120.97,182.85 -124.66,192.19 -128.34,201.53 -130.20,206.11 -132.06,210.70 -132.17,210.88 -132.28,211.07 -132.44,211.20 -132.60,211.34 -132.80,211.42 -133.00,211.50 -133.21,211.51 -133.42,211.52 -133.63,211.46 -133.83,211.40 -134.01,211.28 -134.18,211.16 -134.31,211.00 -134.44,210.83 -134.50,210.62 -134.57,210.42 -134.57,210.21 -134.57,210.00 -134.50,209.80 -134.43,209.60 -134.31,209.43 -134.18,209.26 -134.00,209.14 -133.82,209.02 -133.62,208.96 -133.41,208.91 -133.20,208.92 -132.99,208.93 -132.79,209.01 -132.60,209.09 -132.43,209.23 -132.27,209.37 -132.16,209.55 -132.05,209.73 -132.01,209.94 -131.96,210.15 -131.99,210.36 -132.01,210.57 -132.10,210.76 -132.19,210.95 -132.34,211.11 -132.48,211.26 -132.67,211.36 -132.86,211.46 -133.07,211.49 -133.28,211.53 -133.49,211.49 -133.70,211.46 -133.89,211.36 -134.07,211.26 -134.22,211.10 -134.36,210.95 -134.45,210.75 -134.54,210.56 -134.56,210.35 -134.59,210.14 -134.54,209.93 -134.49,209.72 -134.49,209.72 -134.49,209.72 -132.68,205.14 -130.86,200.55 -127.23,191.01 -123.61,181.46 -119.75,174.11 -115.89,166.76 -111.54,158.97 -107.19,151.17 -99.67,138.27 -92.15,125.37 -85.30,113.96 -78.44,102.55 -71.13,90.62 -63.82,78.69 -57.52,67.40 -51.22,56.12 -46.46,47.90 -41.71,39.69 -35.25,28.39 -28.78,17.08 -26.37,13.62 -23.95,10.16 -21.56,7.53 -19.16,4.90 -16.34,2.95 -13.51,1.00 -10.61,0.28 -7.72,-0.44 -3.98,-1.02 -0.24,-1.59 -0.05,-1.60 0.14,-1.60 0.33,-1.56 0.52,-1.52 0.69,-1.44 0.87,-1.35 1.02,-1.23 1.17,-1.10 1.28,-0.95 1.40,-0.79 1.47,-0.61 1.55,-0.43 1.58,-0.24 1.61,-0.05 1.59,0.14 1.57,0.33 1.51,0.52 1.45,0.70 1.34,0.86 1.24,1.03 1.10,1.16 0.95,1.29 0.78,1.39 0.61,1.49 0.43,1.54 0.24,1.59 0.24,1.59 L 0.24,1.59 Z"/></g></svg>