<svg version="1.1" xmlns="http://www.w3.org/2000/svg" viewBox="0 0 31.1328125 444.88671875" width="31.1328125" height="444.88671875">
  <!-- svg-source:excalidraw -->
  
  <defs>
    <style>
      @font-face {
        font-family: "Virgil";
        src: url("https://unpkg.com/@zsviczian/excalidraw@0.11.0-obsidian-18/dist/excalidraw-assets/Virgil.woff2");
      }
      @font-face {
        font-family: "Cascadia";
        src: url("https://unpkg.com/@zsviczian/excalidraw@0.11.0-obsidian-18/dist/excalidraw-assets/Cascadia.woff2");
      }
    </style>
  </defs>
  <rect x="0" y="0" width="31.1328125" height="444.88671875" fill="#ffffff"/><g transform="translate(10 10) rotate(0 5.56640625 212.443359375)" stroke="none"><path fill="#000000" d="M 1.55,-0.09 Q 1.55,-0.09 1.86,5.39 2.16,10.87 2.63,16.85 3.11,22.83 3.60,34.28 4.09,45.73 4.41,56.54 4.72,67.34 5.08,85.86 5.45,104.38 5.72,120.08 6.00,135.78 5.84,161.70 5.68,187.62 5.61,208.36 5.54,229.11 5.92,257.14 6.30,285.17 6.70,304.69 7.10,324.21 8.01,343.45 8.91,362.68 9.38,374.08 9.85,385.48 10.44,393.66 11.03,401.84 11.34,406.74 11.65,411.64 11.88,415.13 12.10,418.62 12.01,422.14 11.91,425.65 11.76,425.80 11.60,425.95 11.40,426.04 11.21,426.13 10.99,426.15 10.78,426.17 10.57,426.12 10.36,426.08 10.17,425.96 9.99,425.85 9.85,425.69 9.71,425.52 9.63,425.32 9.56,425.12 9.55,424.90 9.54,424.69 9.59,424.48 9.65,424.27 9.78,424.10 9.90,423.92 10.07,423.79 10.24,423.66 10.45,423.59 10.65,423.53 10.87,423.53 11.08,423.53 11.29,423.60 11.49,423.67 11.66,423.80 11.83,423.93 11.95,424.11 12.07,424.29 12.13,424.50 12.18,424.71 12.17,424.92 12.16,425.14 12.08,425.34 11.99,425.54 11.85,425.70 11.71,425.86 11.53,425.97 11.34,426.08 11.13,426.13 10.92,426.17 10.71,426.15 10.49,426.12 10.30,426.03 10.10,425.94 9.95,425.79 9.79,425.64 9.69,425.45 9.59,425.26 9.56,425.04 9.53,424.83 9.56,424.62 9.60,424.41 9.70,424.22 9.80,424.03 9.80,424.03 9.80,424.03 9.64,421.41 9.48,418.79 9.25,415.30 9.02,411.81 8.71,406.92 8.40,402.03 7.81,393.81 7.22,385.59 6.75,374.20 6.28,362.81 5.37,343.54 4.46,324.27 4.05,304.74 3.64,285.21 3.26,257.15 2.88,229.10 2.94,208.35 3.00,187.60 3.15,161.71 3.30,135.82 3.01,120.13 2.72,104.43 2.34,85.93 1.96,67.42 1.62,56.64 1.28,45.86 0.75,34.47 0.23,23.07 -0.29,17.07 -0.81,11.06 -1.18,5.57 -1.55,0.09 -1.54,-0.09 -1.53,-0.28 -1.48,-0.46 -1.42,-0.64 -1.32,-0.80 -1.23,-0.96 -1.09,-1.09 -0.96,-1.22 -0.80,-1.32 -0.64,-1.42 -0.46,-1.48 -0.28,-1.53 -0.09,-1.54 0.09,-1.55 0.27,-1.52 0.46,-1.49 0.63,-1.41 0.80,-1.33 0.95,-1.22 1.10,-1.10 1.22,-0.95 1.33,-0.80 1.41,-0.63 1.49,-0.46 1.52,-0.28 1.55,-0.09 1.55,-0.09 L 1.55,-0.09 Z"/></g></svg>