<svg version="1.1" xmlns="http://www.w3.org/2000/svg" viewBox="0 0 708.2076886866896 757.3653807357387" width="1416.4153773733792" height="1514.7307614714773">
  <!-- svg-source:excalidraw -->
  
  <defs>
    <style>
      @font-face {
        font-family: "Virgil";
        src: url("https://unpkg.com/@zsviczian/excalidraw@0.11.0-obsidian-18/dist/excalidraw-assets/Virgil.woff2");
      }
      @font-face {
        font-family: "Cascadia";
        src: url("https://unpkg.com/@zsviczian/excalidraw@0.11.0-obsidian-18/dist/excalidraw-assets/Cascadia.woff2");
      }
    </style>
  </defs>
  <rect x="0" y="0" width="708.2076886866896" height="757.3653807357387" fill="#ffffff"/><g transform="translate(410.28406382797243 10) rotate(0 -200.14203191398622 341.76300186481853)" stroke="none"><path fill="#000000" d="M 0.87,1.35 Q 0.87,1.35 -8.54,7.41 -17.96,13.46 -27.90,23.32 -37.85,33.19 -51.46,50.82 -65.07,68.46 -75.59,84.66 -86.11,100.86 -100.69,128.55 -115.28,156.24 -132.95,188.89 -150.63,221.55 -164.18,246.21 -177.73,270.87 -202.31,313.67 -226.90,356.48 -250.12,396.21 -273.35,435.95 -293.94,472.36 -314.54,508.77 -332.08,541.04 -349.62,573.31 -361.81,599.75 -374.00,626.19 -381.23,642.81 -388.45,659.43 -388.56,659.61 -388.68,659.78 -388.85,659.92 -389.01,660.05 -389.21,660.12 -389.41,660.20 -389.62,660.20 -389.83,660.21 -390.04,660.14 -390.24,660.08 -390.41,659.96 -390.59,659.83 -390.71,659.66 -390.83,659.49 -390.90,659.28 -390.96,659.08 -390.95,658.87 -390.95,658.66 -390.87,658.46 -390.80,658.26 -390.66,658.09 -390.53,657.93 -390.35,657.81 -390.17,657.70 -389.97,657.65 -389.76,657.60 -389.55,657.61 -389.34,657.63 -389.14,657.72 -388.95,657.80 -388.79,657.94 -388.63,658.08 -388.53,658.27 -388.42,658.45 -388.38,658.66 -388.34,658.87 -388.37,659.08 -388.40,659.29 -388.50,659.48 -388.59,659.67 -388.74,659.82 -388.89,659.97 -389.08,660.07 -389.27,660.16 -389.48,660.19 -389.69,660.22 -389.90,660.18 -390.11,660.14 -390.30,660.03 -390.48,659.93 -390.62,659.77 -390.76,659.61 -390.85,659.42 -390.93,659.22 -390.95,659.01 -390.96,658.80 -390.91,658.59 -390.86,658.39 -390.86,658.39 -390.86,658.39 -383.71,641.70 -376.57,625.02 -364.44,598.43 -352.31,571.85 -334.81,539.53 -317.30,507.21 -296.60,470.83 -275.91,434.45 -252.64,394.75 -229.38,355.05 -204.76,312.30 -180.14,269.54 -166.59,244.90 -153.03,220.25 -135.44,187.57 -117.85,154.89 -103.29,127.02 -88.74,99.16 -78.19,82.81 -67.65,66.47 -53.86,48.70 -40.08,30.94 -29.90,20.85 -19.72,10.76 -10.29,4.70 -0.87,-1.35 -0.69,-1.44 -0.52,-1.52 -0.33,-1.56 -0.14,-1.60 0.05,-1.60 0.24,-1.59 0.43,-1.54 0.62,-1.48 0.79,-1.39 0.96,-1.29 1.10,-1.16 1.24,-1.03 1.34,-0.86 1.45,-0.70 1.51,-0.51 1.57,-0.33 1.59,-0.14 1.61,0.05 1.58,0.24 1.55,0.43 1.47,0.61 1.40,0.79 1.28,0.95 1.17,1.10 1.02,1.23 0.87,1.35 0.87,1.35 L 0.87,1.35 Z"/></g><g transform="translate(379.8531116071324 21.70421239263078) rotate(0 67.88443187725852 362.83058417155394)" stroke="none"><path fill="#000000" d="M 1.53,-0.51 Q 1.53,-0.51 2.16,1.53 2.80,3.57 3.16,15.41 3.51,27.25 4.30,50.35 5.09,73.45 6.13,105.49 7.16,137.52 9.56,177.36 11.96,217.20 17.03,261.69 22.10,306.18 30.97,354.67 39.84,403.16 52.40,454.02 64.95,504.88 79.68,551.37 94.42,597.86 106.03,631.08 117.65,664.31 123.23,681.85 128.82,699.39 128.49,705.72 128.16,712.04 128.11,712.25 128.07,712.46 127.96,712.64 127.85,712.82 127.69,712.96 127.53,713.10 127.33,713.18 127.13,713.26 126.92,713.27 126.71,713.28 126.51,713.23 126.30,713.17 126.12,713.05 125.95,712.93 125.82,712.76 125.69,712.60 125.62,712.39 125.55,712.19 125.55,711.98 125.55,711.77 125.62,711.57 125.68,711.37 125.81,711.20 125.94,711.03 126.11,710.91 126.29,710.79 126.49,710.73 126.70,710.67 126.91,710.68 127.12,710.69 127.32,710.77 127.52,710.85 127.68,710.98 127.84,711.12 127.95,711.30 128.06,711.48 128.11,711.69 128.16,711.90 128.14,712.11 128.11,712.32 128.02,712.51 127.94,712.71 127.79,712.86 127.65,713.02 127.46,713.12 127.27,713.22 127.06,713.25 126.85,713.29 126.64,713.25 126.43,713.22 126.24,713.12 126.06,713.02 125.91,712.87 125.76,712.72 125.67,712.52 125.58,712.33 125.56,712.12 125.53,711.91 125.53,711.91 125.53,711.91 125.81,706.06 126.08,700.20 120.42,682.76 114.75,665.32 103.06,632.07 91.38,598.82 76.62,552.23 61.86,505.64 49.36,454.67 36.86,403.71 27.96,355.12 19.06,306.53 13.97,261.96 8.88,217.39 6.39,177.50 3.89,137.62 2.90,105.59 1.91,73.56 1.11,50.44 0.31,27.32 0.10,15.91 -0.11,4.50 -0.82,2.50 -1.53,0.51 -1.57,0.31 -1.60,0.12 -1.60,-0.06 -1.59,-0.25 -1.53,-0.44 -1.48,-0.63 -1.38,-0.80 -1.28,-0.97 -1.15,-1.11 -1.02,-1.25 -0.85,-1.35 -0.69,-1.45 -0.50,-1.52 -0.32,-1.58 -0.12,-1.59 0.06,-1.61 0.25,-1.58 0.44,-1.55 0.62,-1.47 0.80,-1.39 0.96,-1.28 1.11,-1.16 1.24,-1.01 1.36,-0.86 1.44,-0.68 1.53,-0.51 1.53,-0.51 L 1.53,-0.51 Z"/></g><g transform="translate(54.47600709199696 436.03333109176015) rotate(0 319.52499831882017 5.85210619631539)" stroke="none"><path fill="#000000" d="M -0.72,1.44 Q -0.72,1.44 -2.33,0.30 -3.95,-0.84 -3.38,-3.33 -2.82,-5.82 4.72,-6.60 12.27,-7.39 24.90,-7.70 37.54,-8.02 56.38,-7.49 75.23,-6.96 101.44,-4.76 127.65,-2.57 161.02,1.72 194.38,6.03 234.09,9.17 273.79,12.32 316.90,14.31 360.00,16.31 401.87,17.18 443.73,18.05 479.63,15.76 515.53,13.47 543.56,9.87 571.59,6.27 590.88,2.10 610.17,-2.06 619.71,-4.51 629.26,-6.96 629.47,-6.98 629.68,-7.00 629.89,-6.95 630.10,-6.90 630.28,-6.79 630.46,-6.68 630.59,-6.51 630.73,-6.35 630.80,-6.15 630.88,-5.95 630.88,-5.74 630.89,-5.53 630.83,-5.32 630.77,-5.12 630.65,-4.94 630.53,-4.77 630.36,-4.64 630.18,-4.52 629.98,-4.45 629.78,-4.39 629.57,-4.39 629.36,-4.40 629.15,-4.47 628.95,-4.54 628.79,-4.67 628.62,-4.80 628.50,-4.98 628.39,-5.16 628.34,-5.36 628.28,-5.57 628.30,-5.78 628.31,-5.99 628.39,-6.19 628.48,-6.39 628.62,-6.55 628.76,-6.70 628.94,-6.81 629.12,-6.92 629.33,-6.96 629.54,-7.00 629.75,-6.98 629.96,-6.95 630.15,-6.86 630.35,-6.76 630.50,-6.61 630.65,-6.47 630.74,-6.28 630.84,-6.09 630.87,-5.88 630.90,-5.67 630.86,-5.46 630.83,-5.25 630.72,-5.06 630.62,-4.88 630.46,-4.73 630.31,-4.59 630.11,-4.50 629.92,-4.42 629.92,-4.42 629.92,-4.42 620.34,-1.91 610.76,0.60 591.37,4.94 571.99,9.28 543.87,13.04 515.75,16.80 479.71,19.17 443.66,21.53 401.75,20.68 359.84,19.83 316.68,17.77 273.51,15.72 233.74,12.50 193.96,9.28 160.67,4.93 127.38,0.59 101.26,-1.71 75.14,-4.01 56.37,-4.58 37.60,-5.14 25.06,-4.87 12.53,-4.60 5.55,-3.22 -1.42,-1.84 -0.35,-1.64 0.72,-1.44 0.88,-1.33 1.04,-1.22 1.17,-1.08 1.31,-0.94 1.40,-0.77 1.49,-0.60 1.54,-0.41 1.59,-0.22 1.60,-0.03 1.60,0.16 1.56,0.35 1.52,0.54 1.43,0.71 1.34,0.89 1.21,1.03 1.09,1.18 0.93,1.30 0.77,1.41 0.59,1.48 0.41,1.55 0.22,1.58 0.03,1.61 -0.16,1.59 -0.35,1.57 -0.53,1.50 -0.72,1.44 -0.72,1.44 L -0.72,1.44 Z"/></g></svg>